<?xml version="1.0" standalone="no"?>
<!DOCTYPE svg PUBLIC "-//W3C//DTD SVG 1.1//EN" "http://www.w3.org/Graphics/SVG/1.1/DTD/svg11.dtd" >
<svg xmlns="http://www.w3.org/2000/svg" xmlns:xlink="http://www.w3.org/1999/xlink" version="1.1">
<metadata>
Created by FontForge 20191125 at Mon May 31 03:29:18 2021
 By convertio
Copyright 2020 Spoqa (http://www.spoqa-han-sans.com)
</metadata>
<defs>
<font id="SpoqaHanSansNeo-Regular" horiz-adv-x="920" >
  <font-face 
    font-family="Spoqa Han Sans Neo"
    font-weight="400"
    font-stretch="normal"
    units-per-em="1000"
    panose-1="2 11 5 0 0 0 0 0 0 0"
    ascent="800"
    descent="-200"
    x-height="543"
    cap-height="733"
    bbox="-44 -253 1000 959"
    underline-thickness="50"
    underline-position="-150"
    unicode-range="U+0020-FFE6"
  />
<missing-glyph horiz-adv-x="1000" 
d="M622 258h-220v220h220v-220z" />
    <glyph glyph-name=".notdef" horiz-adv-x="1000" 
d="M622 258h-220v220h220v-220z" />
    <glyph glyph-name="space" unicode=" " horiz-adv-x="224" 
 />
    <glyph glyph-name="exclam" unicode="!" horiz-adv-x="293" 
d="M100 749h93l-15 -570h-63zM192 81v-94h-91v94h91z" />
    <glyph glyph-name="quotedbl" unicode="&#x22;" horiz-adv-x="475" 
d="M110 483l-18 185l-2 103h96l-2 -103l-18 -185h-56zM307 483l-18 185l-3 103h97l-2 -103l-19 -185h-55z" />
    <glyph glyph-name="numbersign" unicode="#" horiz-adv-x="555" 
d="M101 0l27 224h-88v68h96l21 166h-95v68h103l25 200h64l-24 -200h138l26 200h63l-24 -200h88v-68h-96l-21 -166h95v-68h-103l-27 -224h-65l27 224h-138l-28 -224h-64zM201 292h138l21 166h-139z" />
    <glyph glyph-name="dollar" unicode="$" horiz-adv-x="599" 
d="M537 168q-6 -39 -25 -68.5t-46.5 -50t-62 -32.5t-71.5 -17v-86h-62v84q-64 3 -125 27t-106 72l49 63q15 -18 36.5 -33t46.5 -26t50.5 -17.5t48.5 -7.5v271l-55 21q-20 9 -39.5 18.5t-38.5 21.5q-19 11 -33.5 28.5t-24 38t-14 41t-3.5 37.5q2 41 20.5 73.5t47 56t65 36.5
t75.5 14v82h62v-82q54 -6 91.5 -24.5t76.5 -57.5l-41 -51q-26 24 -58.5 41.5t-68.5 19.5v-253l46 -17q31 -13 60 -30t51.5 -40t36 -52t13.5 -67q0 -8 -0.5 -16.5t-1.5 -17.5zM250 433l20 -6v235q-22 -1 -45 -8.5t-42.5 -20.5t-32 -32t-12.5 -44q0 -23 7 -44t25 -36
q6 -6 11.5 -10.5t13.5 -9.5t21 -10.5t34 -13.5zM332 326v-249q54 2 89 28t40 83v10q0 11 -1.5 22t-10.5 30q-19 32 -51.5 48.5t-65.5 27.5z" />
    <glyph glyph-name="percent" unicode="%" horiz-adv-x="921" 
d="M205 303q-76 0 -121.5 56t-45.5 168t45.5 166.5t121.5 54.5q78 0 123.5 -54.5t45.5 -166.5t-45.5 -168t-123.5 -56zM218 -12l405 760h79l-404 -760h-80zM205 365q42 0 68 37t26 125q0 86 -26 122.5t-68 36.5t-67.5 -37t-25.5 -122q0 -87 25.5 -124.5t67.5 -37.5zM713 -10
q-76 0 -122.5 55.5t-46.5 167.5t46.5 166.5t122.5 54.5t122 -54.5t46 -166.5t-46 -167.5t-122 -55.5zM713 52q42 0 67.5 36.5t25.5 124.5q0 87 -25.5 123.5t-67.5 36.5t-68 -36.5t-26 -123.5t26 -124t68 -37z" />
    <glyph glyph-name="ampersand" unicode="&#x26;" horiz-adv-x="658" 
d="M519 144l135 -137h-99l-79 85q-43 -42 -98.5 -65.5t-125.5 -26.5q-103 0 -158.5 50.5t-62.5 135.5v13q0 66 39 118t111 85l-6 8q-27 31 -50 68.5t-25 82.5q0 160 161 166h5q33 0 61 -10t49 -29t33.5 -46t13.5 -62q0 -34 -11 -62.5t-29.5 -52.5t-43.5 -43t-54 -34
l187 -195q16 19 32.5 57.5t29.5 104.5h77q-17 -81 -43 -130.5t-49 -80.5zM266 663h-5q-43 -4 -68 -27.5t-25 -66.5q0 -23 12.5 -48.5t45.5 -68.5l15 -16q19 12 38.5 26.5t35 31.5t25.5 37.5t10 45.5q-2 38 -24.5 62t-59.5 24zM425 145l-199 205q-24 -13 -46 -29t-38.5 -36.5
t-26 -44.5t-9.5 -54q0 -25 11 -46t30.5 -36.5t46.5 -24t59 -8.5q55 2 96.5 21.5t75.5 52.5z" />
    <glyph glyph-name="quotesingle" unicode="'" horiz-adv-x="278" 
d="M110 483l-18 185l-2 103h96l-2 -103l-18 -185h-56z" />
    <glyph glyph-name="parenleft" unicode="(" horiz-adv-x="338" 
d="M296 -116l-57 -27q-69 112 -108 235.5t-39 272.5q0 148 39 271.5t108 235.5l57 -26q-66 -109 -97 -229t-31 -252t31 -252t97 -229z" />
    <glyph glyph-name="parenright" unicode=")" horiz-adv-x="338" 
d="M99 -137l-56 27q66 109 97 229t31 252t-31 252t-97 229l56 26q70 -112 109 -235.5t39 -271.5q0 -149 -39 -272.5t-109 -235.5z" />
    <glyph glyph-name="asterisk" unicode="*" horiz-adv-x="467" 
d="M154 471l-44 32l63 104l-109 45l18 51l114 -28l10 121h54l10 -120l114 27l17 -51l-109 -45l64 -104l-44 -32l-79 95z" />
    <glyph glyph-name="plus" unicode="+" horiz-adv-x="555" 
d="M241 116v219h-203v68h203v218h73v-218h203v-68h-203v-219h-73z" />
    <glyph glyph-name="comma" unicode="," horiz-adv-x="189" 
d="M20 -75l36 202h91l-61 -202h-66z" />
    <glyph glyph-name="hyphen" unicode="-" horiz-adv-x="430" 
d="M50 333v70h330v-70h-330z" />
    <glyph glyph-name="period" unicode="." horiz-adv-x="230" 
d="M42 -14v94h91v-94h-91z" />
    <glyph glyph-name="slash" unicode="/" horiz-adv-x="392" 
d="M11 -129l300 972h66l-299 -972h-67z" />
    <glyph glyph-name="zero" unicode="0" horiz-adv-x="596" 
d="M569 365q0 -97 -21 -168.5t-57 -118.5t-85 -69.5t-106 -22.5t-106 22.5t-85.5 69.5t-57 118.5t-20.5 168.5q0 98 20.5 169.5t57 118.5t85.5 69.5t106 22.5t106 -22.5t85 -69.5t57 -118.5t21 -169.5zM477 365q0 86 -14.5 144.5t-39 94t-56.5 51t-67 15.5t-67 -15.5
t-56 -51t-38.5 -94t-14.5 -144.5q0 -85 14.5 -143.5t38.5 -94.5t56 -51.5t67 -15.5t67 15.5t56.5 51.5t39 94.5t14.5 143.5z" />
    <glyph glyph-name="one" unicode="1" horiz-adv-x="596" 
d="M382 74h144v-74h-396v74h163v542q0 6 1 11l-133 -119l-49 59l197 170h73v-663z" />
    <glyph glyph-name="two" unicode="2" horiz-adv-x="596" 
d="M256 81h289v-81h-492v64l253 243q29 31 53.5 58.5t42 55.5t27.5 56.5t10 60.5q-2 66 -40 97.5t-95 31.5q-31 0 -58 -10.5t-46.5 -30t-30.5 -45.5t-11 -58l-90 15q7 51 28 89.5t52.5 65t72.5 40t88 13.5t87.5 -14t70.5 -40.5t47 -64.5t17 -87q0 -41 -12 -76t-33 -67.5
t-49 -63t-59 -61.5l-205 -203q21 6 42.5 9t40.5 3z" />
    <glyph glyph-name="three" unicode="3" horiz-adv-x="596" 
d="M162 521l-91 15q7 50 28 89t52.5 65.5t72.5 40.5t88 14q48 0 87.5 -14t68.5 -39t45 -60t16 -77q0 -72 -34.5 -111.5t-94.5 -59.5q146 -36 146 -177q0 -50 -19.5 -91t-53 -69.5t-79 -44t-96.5 -15.5q-59 0 -100.5 15t-70.5 41t-47.5 61.5t-31.5 75.5l82 34q3 -16 15 -45
q23 -48 59 -75.5t93 -27.5q39 0 68.5 12.5t49 32.5t29 45t9.5 49q0 30 -7.5 55t-28.5 43t-58 28.5t-96 10.5v66q48 1 81.5 11t54.5 27.5t30 41.5t9 52q0 63 -36.5 94t-94.5 31q-31 0 -58 -11t-46 -30.5t-30 -45.5t-11 -57z" />
    <glyph glyph-name="four" unicode="4" horiz-adv-x="596" 
d="M469 267h111v-72h-111v-195h-81v195h-366v68l361 478h86v-474zM122 267h266v306q0 13 1 29.5t3 32.5z" />
    <glyph glyph-name="five" unicode="5" horiz-adv-x="596" 
d="M224 652l-33 -192q49 13 105 13q58 0 102.5 -17t74.5 -47t45.5 -71t15.5 -89q0 -58 -20.5 -106t-56.5 -81.5t-84.5 -52t-104.5 -18.5q-66 0 -119.5 23.5t-87.5 55.5l49 67q33 -28 75 -46t87 -18q38 0 70 11.5t55 33.5t36 54t13 72q0 72 -44 112t-123 40q-29 0 -58.5 -6.5
t-61.5 -17.5l-59 17l60 347h351v-84h-287z" />
    <glyph glyph-name="six" unicode="6" horiz-adv-x="596" 
d="M462 737l-221 -277q-13 -18 -21.5 -30t-13.5 -18q27 18 58 28t68 10q45 0 85 -14.5t70 -43t47.5 -69.5t17.5 -94q0 -51 -18.5 -95t-52 -77t-80.5 -51.5t-103 -18.5t-101.5 18t-77.5 51t-49.5 79.5t-17.5 103.5q0 49 21.5 104.5t69.5 118.5l204 275h115zM296 64
q36 0 66.5 12t52 33t33.5 50t12 63q0 36 -12 65.5t-33 49.5t-50 31t-63 11q-37 0 -66.5 -12.5t-50.5 -34t-32.5 -49.5t-11.5 -59q0 -72 40 -116t115 -44z" />
    <glyph glyph-name="seven" unicode="7" horiz-adv-x="596" 
d="M69 733h482v-59l-331 -674h-101l299 599l34 56h-383v78z" />
    <glyph glyph-name="eight" unicode="8" horiz-adv-x="596" 
d="M405 382q70 -19 107.5 -66t37.5 -119q0 -49 -18.5 -88.5t-52 -67.5t-79.5 -43t-102 -15t-103 15t-80.5 43t-52 67.5t-18.5 88.5q0 72 38 119t107 66q-57 22 -87.5 65.5t-30.5 106.5q0 41 16 76.5t45.5 62.5t71.5 42.5t94 15.5q50 0 92 -15.5t72 -42.5t46.5 -62.5
t16.5 -76.5q0 -128 -120 -172zM298 678q-69 0 -102.5 -37t-33.5 -90q0 -25 7 -49t23 -43t42 -30.5t64 -11.5q37 0 62.5 11.5t41.5 30.5t23 43t7 49q0 53 -33 90t-101 37zM298 58q75 0 115 38.5t40 101.5q0 39 -12.5 66.5t-34 45t-49.5 26t-59 8.5t-59.5 -8.5t-50.5 -26
t-34.5 -45t-12.5 -66.5q0 -63 41 -101.5t116 -38.5z" />
    <glyph glyph-name="nine" unicode="9" horiz-adv-x="596" 
d="M137 0l228 291q16 21 25.5 35t14.5 21q-59 -47 -141 -47q-43 0 -81.5 14t-67 41.5t-45.5 67.5t-17 92q0 49 18.5 92t51.5 75t78.5 50.5t100.5 18.5q54 0 98 -18t75.5 -50t48.5 -76.5t17 -98.5q0 -66 -23 -119.5t-65 -111.5l-201 -277h-115zM146 522q0 -73 39.5 -111.5
t108.5 -38.5q38 0 67 12t49.5 32.5t31 47t10.5 55.5q0 36 -11.5 64.5t-31.5 48t-48 30t-60 10.5q-70 0 -112.5 -41.5t-42.5 -108.5z" />
    <glyph glyph-name="colon" unicode=":" horiz-adv-x="237" 
d="M73 483v94h91v-94h-91zM73 57v94h91v-94h-91z" />
    <glyph glyph-name="semicolon" unicode=";" horiz-adv-x="237" 
d="M73 577h91v-94h-91v94zM37 -51l36 202h91l-61 -202h-66z" />
    <glyph glyph-name="less" unicode="&#x3c;" horiz-adv-x="503" 
d="M441 53l-403 272v67l403 281v-91l-324 -225l324 -212v-92z" />
    <glyph glyph-name="equal" unicode="=" horiz-adv-x="555" 
d="M38 454v68h479v-68h-479zM38 215v68h479v-68h-479z" />
    <glyph glyph-name="greater" unicode="&#x3e;" horiz-adv-x="504" 
d="M466 325l-403 -272v92l324 212l-324 225v91l403 -281v-67z" />
    <glyph glyph-name="question" unicode="?" horiz-adv-x="472" 
d="M275 174h-75q-6 63 3 104t25.5 69.5t37.5 49t40 42.5t31.5 49t12.5 69q0 26 -7.5 49t-22 40t-35 27.5t-47.5 10.5q-19 0 -39 -6.5t-37.5 -23t-29.5 -44t-15 -69.5h-77q4 67 25.5 109.5t51.5 67t65 34t66 9.5q42 0 76 -15.5t58 -42.5t36.5 -63t12.5 -77q0 -49 -13.5 -82
t-32.5 -58.5t-41 -47.5t-39.5 -48.5t-26.5 -62.5t-3 -90zM281 81v-94h-91v94h91z" />
    <glyph glyph-name="at" unicode="@" horiz-adv-x="946" 
d="M450 -173q-82 0 -154 26t-125 76.5t-84 125.5t-31 172q0 112 38 203.5t102 156t148.5 100t177.5 35.5q84 0 152 -27t116 -75.5t73.5 -116.5t25.5 -151q0 -73 -20.5 -128.5t-53 -93t-72 -56.5t-77.5 -19q-46 0 -78 21t-37 64h-3q-27 -32 -63 -54.5t-73 -22.5
q-57 0 -95.5 40.5t-38.5 118.5q0 44 15 90t43 83.5t68 61.5t89 24q59 0 89 -55h2l13 46h60l-44 -223q-4 -22 -6 -37t-2 -23q0 -24 12 -47q11 -24 57 -24q27 0 53.5 15.5t48.5 45t35.5 72.5t13.5 97q0 68 -20 125.5t-59 99t-97 65t-134 23.5q-75 0 -145 -30.5t-125 -87
t-88 -136t-33 -177.5q0 -82 25 -145.5t69.5 -107t105.5 -66.5t132 -23q51 0 97.5 14t84.5 36l24 -54q-49 -29 -101.5 -43t-110.5 -14zM430 126q23 0 48.5 15.5t54.5 50.5l32 178q-16 26 -32.5 36.5t-39.5 10.5q-33 0 -59.5 -18t-44.5 -45.5t-28 -61t-10 -65.5
q0 -54 22.5 -77.5t56.5 -23.5z" />
    <glyph glyph-name="A" unicode="A" horiz-adv-x="607" 
d="M506 0l-70 224h-268l-71 -224h-94l249 733h103l249 -733h-98zM191 298h222l-35 112q-20 63 -38 123.5t-36 124.5h-4q-17 -66 -35 -125.5t-38 -122.5z" />
    <glyph glyph-name="B" unicode="B" horiz-adv-x="657" 
d="M100 0v733h218q56 0 102.5 -10t79.5 -31.5t51.5 -55.5t18.5 -82q0 -55 -28 -98.5t-80 -60.5v-5q66 -13 108 -56.5t42 -118.5q0 -54 -20.5 -94.5t-57 -67t-87.5 -40t-113 -13.5h-234zM193 421h109q95 0 136 32.5t41 88.5q0 66 -42.5 92t-130.5 26h-113v-239zM193 74h128
q97 0 148.5 34.5t51.5 109.5q0 69 -51.5 100.5t-148.5 31.5h-128v-276z" />
    <glyph glyph-name="C" unicode="C" horiz-adv-x="638" 
d="M377 -13q-68 0 -126.5 26t-101 74.5t-67 119t-24.5 159.5t24.5 159.5t68 120t103 75.5t129.5 26q67 0 118 -28t83 -63l-50 -60q-29 31 -65.5 50.5t-84.5 19.5q-52 0 -94.5 -20.5t-73 -59t-47 -93.5t-16.5 -124t16 -125t45.5 -95t72 -60t94.5 -21q54 0 94.5 22t75.5 60
l51 -58q-45 -51 -99 -78t-126 -27z" />
    <glyph glyph-name="D" unicode="D" horiz-adv-x="687" 
d="M100 0v733h184q174 0 260 -92t86 -272q0 -87 -22.5 -155.5t-66 -116t-107 -72.5t-146.5 -25h-188zM193 76h83q131 0 194.5 76.5t63.5 216.5q0 143 -62 216t-196 73h-83v-582z" />
    <glyph glyph-name="E" unicode="E" horiz-adv-x="588" 
d="M100 0v733h423v-78h-330v-230h278v-79h-278v-267h341v-79h-434z" />
    <glyph glyph-name="F" unicode="F" horiz-adv-x="552" 
d="M100 0v733h423v-78h-330v-248h280v-78h-280v-329h-93z" />
    <glyph glyph-name="G" unicode="G" horiz-adv-x="689" 
d="M388 -13q-72 0 -133 26t-104.5 74.5t-68 119t-24.5 159.5t25 159.5t70 120t106.5 75.5t134.5 26q38 0 70 -8t58 -20.5t46.5 -29t36.5 -33.5l-50 -60q-28 29 -65 49.5t-94 20.5q-55 0 -100 -20.5t-76.5 -59t-49 -93.5t-17.5 -124t16 -125t47 -95t76.5 -60t104.5 -21
q40 0 75.5 11.5t57.5 31.5v192h-155v77h240v-308q-35 -37 -93.5 -61t-133.5 -24z" />
    <glyph glyph-name="H" unicode="H" horiz-adv-x="728" 
d="M100 0v733h93v-307h342v307h92v-733h-92v346h-342v-346h-93z" />
    <glyph glyph-name="I" unicode="I" horiz-adv-x="293" 
d="M100 0v733h93v-733h-93z" />
    <glyph glyph-name="J" unicode="J" horiz-adv-x="536" 
d="M237 -13q-70 0 -120 29.5t-82 86.5l66 47q25 -45 56 -63.5t71 -18.5q60 0 89 35.5t29 120.5v509h92v-518q0 -47 -11.5 -88.5t-35.5 -72.5t-62 -49t-92 -18z" />
    <glyph glyph-name="K" unicode="K" horiz-adv-x="646" 
d="M100 0v733h93v-368h3l306 368h104l-229 -279l265 -454h-104l-219 382l-126 -150v-232h-93z" />
    <glyph glyph-name="L" unicode="L" horiz-adv-x="542" 
d="M100 0v733h93v-654h320v-79h-413z" />
    <glyph glyph-name="M" unicode="M" horiz-adv-x="812" 
d="M100 0v733h112l141 -392q13 -38 25.5 -76.5t26.5 -76.5h5q13 38 25 76.5t25 76.5l140 392h112v-733h-87v406q0 48 4 107.5t8 108.5h-4l-58 -167l-139 -381h-62l-139 381l-58 167h-4q1 -24 3 -52t3.5 -56.5t3 -56t1.5 -51.5v-406h-84z" />
    <glyph glyph-name="N" unicode="N" horiz-adv-x="722" 
d="M100 0v733h96l267 -462l78 -151h5q-4 57 -8 116t-4 116v381h88v-733h-95l-267 463l-79 151h-4q3 -57 7 -114t4 -115v-385h-88z" />
    <glyph glyph-name="O" unicode="O" horiz-adv-x="742" 
d="M371 -13q-69 0 -126.5 26.5t-99 76t-64.5 120.5t-23 159t23 158t64.5 119t99 75t126.5 26t126.5 -26t99 -75t64.5 -119t23 -158t-23 -159t-64.5 -120.5t-99 -76t-126.5 -26.5zM371 68q50 0 90 21.5t68.5 60.5t44 94.5t15.5 124.5t-15.5 124t-44 93.5t-68.5 59t-90 20.5
q-49 0 -89.5 -20.5t-69 -59t-44 -93.5t-15.5 -124t15.5 -124.5t44 -94.5t69 -60.5t89.5 -21.5z" />
    <glyph glyph-name="P" unicode="P" horiz-adv-x="632" 
d="M100 0v733h209q62 0 112.5 -11t86.5 -36.5t56 -66.5t20 -101q0 -58 -19.5 -101t-55.5 -71t-85.5 -41.5t-109.5 -13.5h-121v-291h-93zM193 366h109q97 0 143.5 36.5t46.5 115.5t-48.5 109.5t-145.5 30.5h-105v-292z" />
    <glyph glyph-name="Q" unicode="Q" horiz-adv-x="742" 
d="M564 -129l-104 129q-35 -13 -89 -13q-69 0 -126.5 26.5t-99 76t-64.5 120.5t-23 159t23 158t64.5 119t99 75t126.5 26t126.5 -26t99 -75t64.5 -119t23 -158q0 -115 -38.5 -199t-104.5 -132l144 -167h-121zM371 68q50 0 90 21.5t68.5 60.5t44 94.5t15.5 124.5t-15.5 124
t-44 93.5t-68.5 59t-90 20.5q-49 0 -89.5 -20.5t-69 -59t-44 -93.5t-15.5 -124t15.5 -124.5t44 -94.5t69 -60.5t89.5 -21.5z" />
    <glyph glyph-name="R" unicode="R" horiz-adv-x="635" 
d="M608 0h-105l-178 311h-132v-311h-93v733h230q56 0 103 -10.5t81 -35t53 -64t19 -96.5q0 -88 -45.5 -138t-120.5 -68zM193 658v-272h123q88 0 133 34.5t45 106.5q0 73 -45 102t-133 29h-123z" />
    <glyph glyph-name="S" unicode="S" horiz-adv-x="597" 
d="M304 -13q-78 0 -143.5 29t-113.5 80l55 63q40 -42 93 -66.5t110 -24.5q72 0 113 33t41 87q0 28 -9.5 47.5t-26 33.5t-38.5 25.5t-48 23.5l-106 46q-25 11 -51.5 26.5t-48 38t-35.5 53t-14 70.5q0 42 17.5 78t48 62t73 40.5t92.5 14.5q66 0 121.5 -24.5t94.5 -66.5
l-49 -59q-34 32 -75 50.5t-92 18.5q-63 0 -100 -28.5t-37 -79.5q0 -27 11 -46t28 -33t39 -24t43 -19l105 -45q32 -14 59.5 -31t48 -40t32 -53.5t11.5 -71.5q0 -43 -17.5 -81t-49.5 -66.5t-78.5 -44.5t-103.5 -16z" />
    <glyph glyph-name="T" unicode="T" horiz-adv-x="599" 
d="M253 0v655h-222v78h537v-78h-222v-655h-93z" />
    <glyph glyph-name="U" unicode="U" horiz-adv-x="721" 
d="M360 -13q-56 0 -104 16t-83.5 53.5t-55.5 98t-20 148.5v430h93v-433q0 -66 13 -110.5t36 -71.5t54 -38.5t67 -11.5q37 0 69 11.5t55.5 38.5t37 71.5t13.5 110.5v433h89v-430q0 -88 -20 -148.5t-55.5 -98t-84 -53.5t-104.5 -16z" />
    <glyph glyph-name="V" unicode="V" horiz-adv-x="575" 
d="M235 0l-234 733h97l119 -397q20 -64 34.5 -120.5t36.5 -121.5h4q20 65 35.5 121t35.5 121l118 397h94l-233 -733h-107z" />
    <glyph glyph-name="W" unicode="W" horiz-adv-x="878" 
d="M181 0l-156 733h96l77 -399q11 -60 21.5 -118.5t21.5 -118.5h4q13 60 26 118.5t27 118.5l101 399h84l103 -399q14 -60 26.5 -118.5t25.5 -118.5h5q21 120 42 237l77 399h89l-152 -733h-111l-111 442q-10 45 -18.5 85t-17.5 82h-4q-9 -42 -18.5 -82t-18.5 -85l-109 -442
h-110z" />
    <glyph glyph-name="X" unicode="X" horiz-adv-x="573" 
d="M17 0l214 379l-200 354h102l100 -187q14 -26 27 -50.5t31 -56.5h4q15 32 26.5 56.5t25.5 50.5l98 187h97l-200 -359l214 -374h-102l-108 198q-14 27 -29.5 56t-33.5 62h-4q-16 -32 -30.5 -62t-28.5 -56l-106 -198h-97z" />
    <glyph glyph-name="Y" unicode="Y" horiz-adv-x="531" 
d="M219 0v285l-220 448h99l94 -207q18 -42 35 -80t37 -80h4q20 42 38 80t35 80l95 207h96l-220 -448v-285h-93z" />
    <glyph glyph-name="Z" unicode="Z" horiz-adv-x="603" 
d="M50 0v55l387 600h-352v78h466v-54l-387 -600h391v-79h-505z" />
    <glyph glyph-name="bracketleft" unicode="[" horiz-adv-x="338" 
d="M105 -115v961h199v-51h-130v-858h130v-52h-199z" />
    <glyph glyph-name="backslash" unicode="\" horiz-adv-x="392" 
d="M314 -129l-299 972h66l299 -972h-66z" />
    <glyph glyph-name="bracketright" unicode="]" horiz-adv-x="338" 
d="M34 -117v52h130v858h-130v51h199v-961h-199z" />
    <glyph glyph-name="asciicircum" unicode="^" horiz-adv-x="466" 
d="M44 453l158 281h62l158 -281h-83l-106 187l-106 -187h-83z" />
    <glyph glyph-name="underscore" unicode="_" horiz-adv-x="559" 
d="M13 -54v61h532v-61h-532z" />
    <glyph glyph-name="grave" unicode="`" horiz-adv-x="606" 
d="M319 641l-175 170l64 61l158 -186z" />
    <glyph glyph-name="a" unicode="a" horiz-adv-x="564" 
d="M216 -13q-34 0 -63 11t-50 31.5t-33 50t-12 66.5q0 105 86.5 150.5t247.5 47.5q0 26 -5 51t-17.5 44t-34.5 30.5t-55 11.5q-48 0 -92 -15.5t-76 -37.5l-36 65q38 24 95.5 44t123.5 20q50 0 85.5 -16t58 -45.5t33.5 -70.5t11 -91v-334h-75l-8 58h-3q-39 -32 -84.5 -51.5
t-96.5 -19.5zM242 60q40 0 75 14t75 49v161q-72 -5 -119.5 -14.5t-75.5 -25t-39 -38t-11 -54.5q0 -48 26.5 -70t68.5 -22z" />
    <glyph glyph-name="b" unicode="b" horiz-adv-x="618" 
d="M331 -13q-38 0 -78.5 18t-76.5 51h-3l-8 -56h-73v796h91v-218l-3 -98q37 32 81 54.5t89 22.5q53 0 93.5 -20t68 -56t41.5 -87t14 -113q0 -70 -19.5 -125t-52 -92.5t-75 -57t-89.5 -19.5zM316 63q69 0 112.5 57t43.5 159q0 45 -8 82t-25 63.5t-44 41t-66 14.5
q-35 0 -71 -19t-75 -56v-285q36 -32 71 -44.5t62 -12.5z" />
    <glyph glyph-name="c" unicode="c" horiz-adv-x="509" 
d="M306 -13q-54 0 -100.5 19t-81 55.5t-54 89.5t-19.5 120q0 68 21.5 121t57.5 90t83.5 56t99.5 19q54 0 92 -19t67 -45l-47 -61q-24 22 -50 35.5t-59 13.5q-37 0 -68 -15t-53.5 -43t-35.5 -66.5t-13 -85.5t12 -85.5t34.5 -65.5t53.5 -42t68 -15q38 0 70 15.5t58 38.5
l39 -61q-36 -33 -81 -51t-94 -18z" />
    <glyph glyph-name="d" unicode="d" horiz-adv-x="620" 
d="M277 -13q-51 0 -92.5 19t-70.5 55t-45 89t-16 121q0 66 19.5 119t51.5 90t75 57t89 20q48 0 82.5 -17t70.5 -47l-5 94v209h91v-796h-74l-9 64h-2q-32 -32 -74 -54.5t-91 -22.5zM297 63q38 0 71.5 18.5t67.5 56.5v285q-35 31 -66.5 44t-65.5 13q-33 0 -61.5 -15t-50 -42.5
t-33.5 -65.5t-12 -85q0 -100 39 -154.5t111 -54.5z" />
    <glyph glyph-name="e" unicode="e" horiz-adv-x="554" 
d="M311 -13q-54 0 -101.5 19t-82.5 55.5t-55.5 89.5t-20.5 120q0 66 20.5 119t54.5 90t78.5 57t91.5 20q52 0 92 -18t67.5 -51.5t42 -80.5t14.5 -105q0 -15 -1 -28.5t-3 -23.5h-366q5 -88 53.5 -139t126.5 -51q40 0 73 11.5t63 31.5l33 -60q-36 -23 -79.5 -39.5
t-100.5 -16.5zM141 315h291q0 85 -35.5 127t-99.5 42q-29 0 -55.5 -11.5t-47.5 -33t-35 -53t-18 -71.5z" />
    <glyph glyph-name="f" unicode="f" horiz-adv-x="325" 
d="M356 791l-20 -69q-37 14 -61 14q-77 0 -77 -107v-86h115v-74h-115v-469h-91v469h-74v69l74 5v87q0 85 38.5 132t119.5 47q25 0 48 -5t43 -13z" />
    <glyph glyph-name="g" unicode="g" horiz-adv-x="563" 
d="M275 -250q-50 0 -91.5 9.5t-71 28t-46 46t-16.5 62.5t21.5 66.5t59.5 56.5v4q-22 13 -36 35t-14 54q0 34 20 60t41 41v4q-27 22 -49 59.5t-22 86.5q0 45 16.5 80.5t44.5 61t65 39t78 13.5q23 0 42.5 -4.5t33.5 -9.5h189v-70h-111q20 -19 32 -48t12 -64q0 -43 -15.5 -78
t-42.5 -60t-63 -38t-77 -13q-44 0 -81 19q-15 -13 -25 -27.5t-10 -37.5q0 -26 20 -42.5t75 -16.5h106q97 0 143 -31t46 -98q0 -38 -19 -72t-55 -60t-86.5 -41t-113.5 -15zM275 234q23 0 44 9t36.5 26t25 40.5t9.5 53.5q0 60 -33.5 93.5t-81.5 33.5t-82 -33.5t-34 -93.5
q0 -30 9.5 -53.5t25 -40.5t36.5 -26t45 -9zM288 -188q39 0 71 9.5t54.5 25t35 36t12.5 41.5q0 38 -28.5 52.5t-82.5 14.5h-94q-15 0 -33.5 2t-36.5 7q-29 -21 -42.5 -44.5t-13.5 -47.5q0 -45 41.5 -70.5t116.5 -25.5z" />
    <glyph glyph-name="h" unicode="h" horiz-adv-x="607" 
d="M92 0v796h91v-218l-3 -112q38 38 80.5 64.5t99.5 26.5q88 0 127 -53.5t39 -159.5v-344h-91v332q0 78 -24.5 111.5t-78.5 33.5q-42 0 -74.5 -20.5t-74.5 -62.5v-394h-91z" />
    <glyph glyph-name="i" unicode="i" horiz-adv-x="241" 
d="M167 749v-94h-91v94h91zM166 0h-91v543h91v-543z" />
    <glyph glyph-name="j" unicode="j" horiz-adv-x="258" 
d="M185 749v-94h-91v94h91zM36 -243q-25 0 -45.5 4.5t-34.5 9.5l18 70q11 -4 24 -7t27 -3q42 0 55 28t13 79v605h91v-605q0 -83 -34 -132t-114 -49z" />
    <glyph glyph-name="k" unicode="k" horiz-adv-x="552" 
d="M92 0v796h90v-540h2l233 287h101l-182 -218l206 -325h-99l-159 262l-102 -119v-143h-90z" />
    <glyph glyph-name="l" unicode="l" horiz-adv-x="273" 
d="M183 0h-91v796h91v-796z" />
    <glyph glyph-name="m" unicode="m" horiz-adv-x="926" 
d="M92 0v543h75l8 -79h3q35 39 77.5 66t91.5 27q63 0 98 -28t52 -76q42 46 85 75t94 29q85 0 125 -53.5t40 -159.5v-344h-91v332q0 78 -24.5 111.5t-76.5 33.5q-60 0 -137 -83v-394h-91v332q0 78 -24.5 111.5t-76.5 33.5q-63 0 -137 -83v-394h-91z" />
    <glyph glyph-name="n" unicode="n" horiz-adv-x="611" 
d="M92 0v543h75l8 -78h3q39 38 82 65t100 27q88 0 127 -53.5t39 -159.5v-344h-91v332q0 78 -24.5 111.5t-78.5 33.5q-42 0 -74.5 -20.5t-74.5 -62.5v-394h-91z" />
    <glyph glyph-name="o" unicode="o" horiz-adv-x="606" 
d="M303 -13q-50 0 -95.5 19t-80.5 55.5t-55.5 89.5t-20.5 120q0 68 20.5 121t55.5 90t80.5 56t95.5 19t95.5 -19t80.5 -56t55.5 -90t20.5 -121q0 -67 -20.5 -120t-55.5 -89.5t-80.5 -55.5t-95.5 -19zM303 63q35 0 64 15t50 42t32.5 65.5t11.5 85.5t-11.5 85.5t-32.5 66.5
t-50 43t-64 15t-64 -15t-49.5 -43t-32 -66.5t-11.5 -85.5t11.5 -85.5t32 -65.5t49.5 -42t64 -15z" />
    <glyph glyph-name="p" unicode="p" horiz-adv-x="620" 
d="M92 -229v772h75l8 -62h3q37 30 81 53t92 23q53 0 93 -20t67.5 -56t41.5 -87t14 -114q0 -70 -19.5 -124.5t-52 -92t-75 -57t-89.5 -19.5q-37 0 -75 16.5t-75 46.5l2 -95v-184h-91zM316 63q69 0 112.5 57t43.5 159q0 45 -8 82t-25 63.5t-44 41t-66 14.5q-35 0 -70.5 -19
t-75.5 -56v-285q37 -32 71.5 -44.5t61.5 -12.5z" />
    <glyph glyph-name="q" unicode="q" horiz-adv-x="620" 
d="M436 -229v193l5 99q-33 -32 -74.5 -54t-89.5 -22q-51 0 -92.5 19t-70.5 55t-45 89t-16 121q0 66 19.5 119t51.5 90t75 57t89 20q48 0 84 -17t71 -49h3l9 52h72v-772h-91zM297 63q38 0 71.5 18.5t67.5 56.5v285q-35 31 -66.5 44t-65.5 13q-33 0 -61.5 -15t-50 -42.5
t-33.5 -65.5t-12 -85q0 -100 39 -154.5t111 -54.5z" />
    <glyph glyph-name="r" unicode="r" horiz-adv-x="388" 
d="M92 0v543h75l8 -99h3q29 52 68.5 82.5t85.5 30.5q18 0 31.5 -2.5t26.5 -9.5l-17 -80q-14 5 -25 7t-28 2q-16 0 -35 -6.5t-37 -21t-35 -38.5t-30 -59v-349h-91z" />
    <glyph glyph-name="s" unicode="s" horiz-adv-x="468" 
d="M234 -13q-58 0 -111 21.5t-92 53.5l45 60q35 -29 73.5 -46.5t87.5 -17.5q54 0 80.5 25t26.5 60q0 21 -11 36t-28.5 27t-39.5 21.5t-45 18.5q-28 10 -57 23t-52.5 31.5t-38 43.5t-14.5 59q0 32 12.5 60t36.5 49t59 33t79 12q51 0 94 -18t75 -43l-44 -59q-29 21 -58.5 34.5
t-66.5 13.5q-51 0 -75 -23t-24 -55q0 -19 10 -33t27 -24.5t38.5 -19t44.5 -17.5q30 -11 59.5 -23.5t53 -31.5t38.5 -45.5t15 -64.5q0 -33 -13 -62.5t-38 -51t-62 -34.5t-85 -13z" />
    <glyph glyph-name="t" unicode="t" horiz-adv-x="377" 
d="M263 -13q-43 0 -73 13t-48 36.5t-26 57t-8 74.5v301h-81v69l85 5l11 152h76v-152h147v-74h-147v-303q0 -51 18 -78t66 -27q14 0 31 4.5t31 9.5l18 -68q-23 -8 -49 -14t-51 -6z" />
    <glyph glyph-name="u" unicode="u" horiz-adv-x="607" 
d="M250 -13q-88 0 -126.5 53t-38.5 159v344h91v-333q0 -76 24 -110t78 -34q42 0 75 21.5t72 70.5v385h91v-543h-76l-7 85h-3q-38 -45 -80.5 -71.5t-99.5 -26.5z" />
    <glyph glyph-name="v" unicode="v" horiz-adv-x="521" 
d="M209 0l-196 543h95l102 -309q13 -40 25.5 -81t25.5 -79h4q12 38 25 79t25 81l103 309h90l-193 -543h-106z" />
    <glyph glyph-name="w" unicode="w" horiz-adv-x="802" 
d="M178 0l-151 543h93l81 -314q8 -39 16 -76.5t16 -75.5h5q9 38 17.5 76t19.5 76l84 314h89l85 -314q10 -39 19 -76.5t19 -75.5h4q9 38 17 75.5t17 76.5l80 314h86l-146 -543h-110l-79 293q-11 38 -19 76t-18 80h-5q-9 -42 -17.5 -80.5t-19.5 -77.5l-76 -291h-107z" />
    <glyph glyph-name="x" unicode="x" horiz-adv-x="498" 
d="M15 0l179 283l-165 260h98l73 -120q13 -23 26.5 -45t27.5 -45h4q13 23 25 45t24 45l67 120h95l-165 -269l179 -274h-100l-80 127q-14 25 -28.5 49.5t-29.5 47.5h-5q-14 -23 -28 -47.5t-28 -49.5l-73 -127h-96z" />
    <glyph glyph-name="y" unicode="y" horiz-adv-x="521" 
d="M232 -234h-85l85 239l-218 538h95l111 -296q12 -35 25.5 -75t26.5 -77h5q11 37 23 76.5t23 75.5l97 296h89z" />
    <glyph glyph-name="z" unicode="z" horiz-adv-x="474" 
d="M35 0v49l286 420h-255v74h370v-49l-286 -420h296v-74h-411z" />
    <glyph glyph-name="braceleft" unicode="{" horiz-adv-x="338" 
d="M304 -117h-49q-33 0 -58 7t-41 24t-24 45.5t-8 72.5q0 61 5 110t5 105q0 17 -4.5 32.5t-15 28t-29 20t-47.5 7.5v57q29 0 47.5 7.5t29 20t15 28t4.5 31.5q0 57 -5 106.5t-5 109.5q0 44 8 72.5t24 45.5t41 24t58 7h49v-51h-29q-45 0 -60.5 -24.5t-15.5 -78.5q0 -51 3 -98
t3 -105q0 -54 -15 -82.5t-52 -38.5v-4q37 -11 52 -39.5t15 -82.5q0 -57 -3 -104.5t-3 -98.5q0 -54 15.5 -78t60.5 -24h29v-52z" />
    <glyph glyph-name="bar" unicode="|" horiz-adv-x="269" 
d="M103 -135v982h64v-982h-64z" />
    <glyph glyph-name="braceright" unicode="}" horiz-adv-x="338" 
d="M34 -117v52h29q46 0 61 24t15 78q0 51 -2.5 98.5t-2.5 104.5q0 54 15 82.5t51 39.5v4q-36 10 -51 38.5t-15 82.5q0 58 2.5 105t2.5 98q0 54 -15 78.5t-61 24.5h-29v51h50q33 0 57.5 -7t40.5 -24t24 -45.5t8 -72.5q0 -30 -1.5 -57t-2.5 -53l-3 -52q-1 -13 -1.5 -26.5
t-0.5 -27.5q0 -16 4 -31.5t15 -28t29.5 -20t46.5 -7.5v-57q-28 0 -46.5 -7.5t-29.5 -19.5t-15 -28t-4 -33q0 -56 4.5 -105t4.5 -110q0 -44 -8 -72.5t-24 -45.5t-40.5 -24t-57.5 -7h-50z" />
    <glyph glyph-name="asciitilde" unicode="~" horiz-adv-x="555" 
d="M376 287q-33 0 -59.5 15t-49.5 32.5t-44.5 32.5t-45.5 15t-45 -16t-41 -52l-51 36q31 54 67 77t73 23q33 0 59 -14.5t49 -32.5t44.5 -32.5t45.5 -14.5t45 16t40 52l52 -37q-31 -54 -67 -77t-72 -23z" />
    <glyph glyph-name="exclamdown" unicode="&#xa1;" horiz-adv-x="323" 
d="M115 446v94h91v-94h-91zM207 -222h-93l15 570h63z" />
    <glyph glyph-name="currency" unicode="&#xa4;" horiz-adv-x="555" 
d="M78 115l-48 50l71 73q-40 52 -40 129q0 79 40 131l-71 74l48 50l76 -78q53 42 124 42q69 0 123 -42l76 78l48 -50l-72 -74q41 -53 41 -131q0 -76 -41 -129l72 -73l-48 -50l-76 77q-54 -42 -123 -42q-70 0 -124 42zM278 218q27 0 51 11t42 30.5t28.5 47t10.5 60.5
t-10.5 61t-28.5 48t-42 31t-51 11t-51.5 -11t-42.5 -31t-28.5 -48t-10.5 -61t10.5 -60.5t28.5 -47t42.5 -30.5t51.5 -11z" />
    <glyph glyph-name="yen" unicode="&#xa5;" horiz-adv-x="600" 
d="M253 0v173h-190v57h190v69h-190v56h167l-222 366h96q53 -94 86 -153.5t53 -97t32 -59.5t23 -41h5q10 19 22 41.5t32.5 60.5t53 97t84.5 152h93l-221 -366h168v-56h-191v-69h191v-57h-191v-173h-91z" />
    <glyph glyph-name="section" unicode="&#xa7;" horiz-adv-x="1000" 
d="M694 731l-25 -62q-21 14 -62.5 29t-98.5 15q-28 0 -51 -7.5t-39.5 -20t-25 -28t-8.5 -31.5q0 -23 11.5 -39t32.5 -28t49.5 -21.5t61.5 -18.5q90 -24 141.5 -63t51.5 -107q0 -43 -18.5 -80t-47.5 -61q15 -12 28.5 -38.5t13.5 -60.5q0 -39 -17.5 -71t-48 -54.5t-71 -35
t-87.5 -12.5q-122 0 -187 50l28 61q21 -17 61 -33t100 -16q66 0 103 29.5t37 72.5q0 20 -7 35.5t-25 29t-48 26.5t-77 27q-49 15 -87 31t-63.5 36t-38.5 46t-13 61q0 29 17.5 65t59.5 66q-19 14 -29.5 39.5t-10.5 47.5q0 44 19 75.5t49.5 51.5t69 29.5t76.5 9.5
q58 0 102.5 -14t73.5 -31zM391 492q-26 -21 -37.5 -43.5t-11.5 -44.5q0 -15 4.5 -28t19 -26t41 -26.5t71.5 -28.5q61 -20 93 -32.5t47 -21.5q19 17 29 41t10 49q0 40 -29.5 63.5t-71.5 39t-87.5 28t-77.5 30.5z" />
    <glyph glyph-name="dieresis" unicode="&#xa8;" horiz-adv-x="606" 
d="M196 656q-24 0 -40 16t-16 39q0 24 16 40t40 16t39.5 -16t15.5 -40q0 -23 -15.5 -39t-39.5 -16zM410 656q-24 0 -39.5 16t-15.5 39q0 24 15.5 40t39.5 16t39.5 -16t15.5 -40q0 -23 -15.5 -39t-39.5 -16z" />
    <glyph glyph-name="guillemotleft" unicode="&#xab;" horiz-adv-x="479" 
d="M218 74l-168 191v33l168 192l45 -39l-144 -171l73.5 -84t71.5 -86zM394 74l-168 191v33l168 192l45 -39l-144 -171l73.5 -84t71.5 -86z" />
    <glyph glyph-name="degree" unicode="&#xb0;" horiz-adv-x="370" 
d="M185 480q-28 0 -53 10t-44.5 28.5t-31 45t-11.5 58.5q0 33 11.5 59t31 45t44.5 29t53 10t53.5 -10t44.5 -29t30.5 -45t11.5 -59q0 -32 -11.5 -58.5t-30.5 -45t-44.5 -28.5t-53.5 -10zM185 531q38 0 61 25.5t23 65.5q0 42 -23 67t-61 25t-61 -25t-23 -67q0 -40 23 -65.5
t61 -25.5z" />
    <glyph glyph-name="plusminus" unicode="&#xb1;" horiz-adv-x="1000" 
d="M863 530v-69h-329v-275h-68v275h-329v69h329v274h68v-274h329zM137 87h730v-69h-730v69z" />
    <glyph glyph-name="twosuperior" unicode="&#xb2;" horiz-adv-x="410" 
d="M58 441v41q51 46 89.5 82.5t65 67t39.5 56.5t13 51q0 43 -23 67.5t-61 24.5q-28 0 -51.5 -18.5t-42.5 -45.5l-43 39q26 38 64 61t83 23q66 0 105 -35.5t39 -105.5q0 -31 -12 -60t-34 -59t-51.5 -61t-64.5 -67h184v-61h-299z" />
    <glyph glyph-name="threesuperior" unicode="&#xb3;" horiz-adv-x="410" 
d="M202 428q-54 0 -95.5 24t-66.5 61l47 36q20 -30 48 -47.5t62 -17.5q36 0 62 20.5t26 57.5q0 38 -35 58.5t-101 20.5v45q57 0 88 22.5t31 56.5q0 31 -21.5 50t-57.5 19q-24 0 -47 -15t-42 -38l-42 38q27 32 61.5 51.5t79.5 19.5q29 0 54 -8t44.5 -23t30.5 -37t11 -49
q0 -39 -21.5 -65t-55.5 -42q38 -10 66 -36.5t28 -71.5q0 -30 -12.5 -54t-33.5 -41t-49 -26t-59 -9z" />
    <glyph glyph-name="acute" unicode="&#xb4;" horiz-adv-x="606" 
d="M287 641l-47 45l158 186l64 -61z" />
    <glyph glyph-name="paragraph" unicode="&#xb6;" horiz-adv-x="1000" 
d="M477 -57v351h-9q-34 0 -74 13t-73.5 40t-56 68t-22.5 97q0 71 25.5 119t69 77.5t101 42.5t120.5 13q51 0 81.5 -2t50.5 -7v-812h-64v758h-85v-758h-64z" />
    <glyph glyph-name="periodcentered" unicode="&#xb7;" horiz-adv-x="520" 
d="M301 411v-94h-91v94h91z" />
    <glyph glyph-name="cedilla" unicode="&#xb8;" horiz-adv-x="606" 
d="M214 -253l-9 45q70 5 95.5 18t25.5 38q0 21 -19 33.5t-67 20.5l48 101h60l-32 -75q38 -9 59.5 -26.5t21.5 -51.5q0 -49 -47.5 -73.5t-135.5 -29.5z" />
    <glyph glyph-name="onesuperior" unicode="&#xb9;" horiz-adv-x="410" 
d="M192 441v345h-94v46q36 7 60 17.5t47 27.5h59v-436h-72z" />
    <glyph glyph-name="guillemotright" unicode="&#xbb;" horiz-adv-x="479" 
d="M261 486l168 -191v-33l-168 -192l-45 39l144 171l-73.5 84t-71.5 86zM85 486l168 -191v-33l-168 -192l-45 39l144 171l-73.5 84t-71.5 86z" />
    <glyph glyph-name="onequarter" unicode="&#xbc;" horiz-adv-x="872" 
d="M606 747h62l-405 -760h-61zM236 298h-71v344h-94v47q36 7 60 17t47 27h58v-435zM837 167v-50h-65v-117h-65v117h-198v36l183 283h80v-269h65zM583 167h124v80l6 121h-5z" />
    <glyph glyph-name="onehalf" unicode="&#xbd;" horiz-adv-x="903" 
d="M179 -13l404 760h62l-405 -760h-61zM165 298v344h-94v47q36 7 60 17t47 27h58v-435h-71zM551 0v41q51 46 89.5 82.5t64.5 67t39 56.5t13 51q0 42 -22.5 67t-61.5 25q-28 0 -51.5 -18.5t-41.5 -45.5l-43 39q25 38 62.5 61t82.5 23q66 0 105.5 -36t39.5 -105q0 -32 -12 -61
t-34 -58.5t-51.5 -60.5t-64.5 -67h185v-61h-299z" />
    <glyph glyph-name="threequarters" unicode="&#xbe;" horiz-adv-x="889" 
d="M99 637l-43 38q28 33 62 52.5t80 19.5q29 0 54 -8t44 -23t30 -37t11 -49q0 -39 -21.5 -65.5t-54.5 -41.5q37 -10 65 -36.5t28 -71.5q0 -30 -12 -54t-33 -41.5t-49 -26.5t-60 -9q-54 0 -95.5 24t-66.5 61l47 37q20 -30 48.5 -47.5t62.5 -17.5q36 0 61.5 20t25.5 58
t-34.5 58t-100.5 20v45q57 0 88 22.5t31 56.5q0 31 -22 50.5t-57 19.5q-25 0 -48 -15.5t-41 -38.5zM649 747h61l-405 -760h-61zM853 167v-50h-65v-117h-64v117h-198v36l183 283h79v-269h65zM600 167h124v80l6 121h-5z" />
    <glyph glyph-name="questiondown" unicode="&#xbf;" horiz-adv-x="474" 
d="M207 460v94h91v-94h-91zM213 367h75q6 -62 -3 -103.5t-25.5 -70t-37.5 -49t-39.5 -42.5t-31.5 -49t-13 -69q0 -26 7.5 -49t22 -40t35 -27.5t47.5 -10.5q19 0 39 6.5t37.5 23t29.5 44t15 69.5h77q-4 -67 -25.5 -109.5t-51.5 -67t-65 -34t-66 -9.5q-42 0 -76 15.5t-58 42.5
t-36.5 63t-12.5 77q0 49 13.5 82t33 58.5t41.5 47.5t39 48.5t26.5 62.5t2.5 90z" />
    <glyph glyph-name="multiply" unicode="&#xd7;" horiz-adv-x="1000" 
d="M822 102l-48 -48l-274 274l-273 -274l-49 48l274 274l-274 273l49 49l273 -274l274 274l48 -48l-273 -274z" />
    <glyph glyph-name="divide" unicode="&#xf7;" horiz-adv-x="1000" 
d="M428 630q0 30 21 51.5t51 21.5t51 -21.5t21 -51.5q0 -29 -21 -50.5t-51 -21.5t-51 21.5t-21 50.5zM137 410h726v-69h-726v69zM428 121q0 29 21 50.5t51 21.5t51 -21.5t21 -50.5q0 -30 -21 -51.5t-51 -21.5t-51 21.5t-21 51.5z" />
    <glyph glyph-name="caron" unicode="&#x2c7;" horiz-adv-x="1000" 
d="M664 542h100l-264 -404l-266 404h95l171 -269z" />
    <glyph glyph-name="dotaccent" unicode="&#x2d9;" horiz-adv-x="1000" 
d="M499 290q-42 0 -67.5 28t-26.5 64q0 18 6.5 35.5t18.5 31t29.5 22t39.5 8.5q44 0 68.5 -29.5t24.5 -67.5t-24 -65t-69 -27z" />
    <glyph glyph-name="quoteleft" unicode="&#x2018;" horiz-adv-x="241" 
d="M171 728v-110h-108v110q1 57 17.5 86.5t36.5 42.5q26 14 53 14v-48q-18 0 -29 -9.5t-17.5 -24t-8.5 -31t-2 -30.5h58z" />
    <glyph glyph-name="quoteright" unicode="&#x2019;" horiz-adv-x="241" 
d="M70 770v110h108v-110q0 -26 -5.5 -51.5t-18 -46t-33 -33t-50.5 -12.5v48q18 0 29.5 9.5t17.5 24t8 31t2 30.5h-58z" />
    <glyph glyph-name="quotedblleft" unicode="&#x201c;" horiz-adv-x="402" 
d="M331 733v-110h-108v110q1 57 17.5 86.5t36.5 42.5q26 14 53 14v-48q-18 0 -29 -9.5t-17.5 -24t-8.5 -31t-2 -30.5h58zM171 733v-110h-108v110q1 57 17.5 86.5t36.5 42.5q26 14 53 14v-48q-18 0 -29 -9.5t-17.5 -24t-8.5 -31t-2 -30.5h58z" />
    <glyph glyph-name="quotedblright" unicode="&#x201d;" horiz-adv-x="402" 
d="M70 768v110h108v-110q0 -26 -5.5 -51.5t-18 -46t-33 -33t-50.5 -12.5v49q16 -1 28 9q11 8 20 27.5t8 57.5h-57zM230 768v110h108v-110q0 -26 -5.5 -51.5t-18 -46t-33 -33t-50.5 -12.5v49q16 -1 28 9q11 8 20 27.5t8 57.5h-57z" />
    <glyph glyph-name="dagger" unicode="&#x2020;" horiz-adv-x="1000" 
d="M543 764l-7 -242l203 5v-76l-203 6l7 -513h-86l7 513l-203 -6v76l203 -5l-7 242h86z" />
    <glyph glyph-name="daggerdbl" unicode="&#x2021;" horiz-adv-x="1000" 
d="M543 764l-7 -230l203 6v-76l-203 6v-232l203 6v-77l-203 6l7 -229h-86l7 229l-203 -6v77l203 -6v232l-203 -6v76l203 -6l-7 230h86z" />
    <glyph glyph-name="twodotenleader" unicode="&#x2025;" horiz-adv-x="1000" 
d="M684 333v94h91v-94h-91zM225 333v94h91v-94h-91z" />
    <glyph glyph-name="ellipsis" unicode="&#x2026;" horiz-adv-x="1000" 
d="M454 333v94h91v-94h-91zM767 333v94h91v-94h-91zM142 333v94h91v-94h-91z" />
    <glyph glyph-name="perthousand" unicode="&#x2030;" horiz-adv-x="1000" 
d="M125 -16l386 766h51l-385 -766h-52zM34 522q0 108 38 165.5t93 57.5q29 0 52.5 -16t40 -45.5t25.5 -70.5t9 -91q0 -58 -11 -99.5t-29 -68.5t-41 -40t-47 -13q-29 0 -53 15.5t-41 44.5t-26.5 70t-9.5 91zM234 522q0 29 -3 59.5t-10.5 56t-21.5 42t-37 16.5
q-21 0 -34.5 -16.5t-21 -42t-10.5 -56t-3 -58.5q0 -30 3 -60.5t10.5 -55.5t21 -41t35.5 -16t36 16.5t21.5 41.5t10.5 55.5t3 58.5zM396 212q0 53 10 95t28 70.5t42 43.5t51 15q29 0 52.5 -16t40 -45.5t25.5 -70.5t9 -91q0 -58 -11 -100t-29 -69t-41 -40t-47 -13
q-29 0 -53 15.5t-41 44.5t-26.5 70t-9.5 91zM708 212q0 109 37.5 166.5t92.5 57.5q29 0 53 -16t40.5 -45.5t25.5 -70.5t9 -91q0 -58 -11 -100t-29 -69t-41 -40t-48 -13q-28 0 -52 15.5t-41 44.5t-26.5 70t-9.5 91zM596 212q0 29 -3 59.5t-10.5 56.5t-21.5 42.5t-37 16.5
q-21 0 -34.5 -16.5t-21 -42t-10.5 -56t-3 -59.5q0 -30 3 -60.5t10.5 -55.5t21 -41t35.5 -16t36 16.5t21.5 42t10.5 55.5t3 58zM907 212q0 27 -2.5 58t-10.5 57t-21.5 43t-36.5 17q-21 0 -34.5 -16.5t-21.5 -42t-11 -56t-3 -59.5t2.5 -59.5t10.5 -56t22 -41.5t36 -16
q23 0 36.5 16.5t21 42t10 55.5t2.5 58z" />
    <glyph glyph-name="minute" unicode="&#x2032;" horiz-adv-x="278" 
d="M91 504l25 267l89 -1l-15 -101l-39 -166z" />
    <glyph glyph-name="second" unicode="&#x2033;" horiz-adv-x="475" 
d="M91 504l25 267l89 -1l-15 -101l-39 -166zM288 504l24 267l90 -1l-16 -101l-38 -166z" />
    <glyph glyph-name="guilsinglleft" unicode="&#x2039;" horiz-adv-x="302" 
d="M217 74l-168 191v33l168 192l45 -39l-144 -171l73.5 -84t71.5 -86z" />
    <glyph glyph-name="guilsinglright" unicode="&#x203a;" horiz-adv-x="302" 
d="M84 487l168 -191v-33l-168 -192l-45 39l144 170q-35 42 -73.5 85.5t-71.5 85.5z" />
    <glyph glyph-name="uni203B" unicode="&#x203b;" horiz-adv-x="925" 
d="M513 376l294 -290l-52 -56l-294 297q-70 -72 -145 -148t-145 -149l-52 52l294 294q-70 70 -146 145t-148 145l52 56l294 -298l294 298l48 -52zM454 577q-29 0 -50 21t-21 49q0 31 21 51t50 20q30 0 52 -20t22 -51q0 -28 -22 -49t-52 -21zM186 305q-28 0 -49.5 21.5
t-21.5 49.5q0 31 20 50.5t51 19.5q28 0 51 -19.5t23 -50.5q0 -28 -21.5 -49.5t-52.5 -21.5zM747 305q-28 0 -51 19.5t-23 47.5q0 34 21.5 54t49.5 20q31 0 52.5 -20t21.5 -54q0 -28 -21 -47.5t-50 -19.5zM457 22q-28 0 -49 21.5t-21 49.5q0 31 19.5 51t50.5 20
q28 0 49.5 -20t21.5 -51q0 -28 -20 -49.5t-51 -21.5z" />
    <glyph glyph-name="uni20A9" unicode="&#x20a9;" horiz-adv-x="888" 
d="M848 393v-54h-118l-73 -339h-88l-77 339h-102l-75 -339h-82l-79 339h-122v54h113l-77 324h84l66 -324h118l60 281h92l63 -281h123l62 324h77l-70 -324h105zM401 393h82l-39 212zM276 85l49 254h-98zM642 226l21 113h-101l24 -113l25 -141z" />
    <glyph glyph-name="uni2103" unicode="&#x2103;" horiz-adv-x="1000" 
d="M188 477q-28 0 -54 10.5t-45 29t-30.5 45t-11.5 58.5q0 33 11.5 59.5t30.5 45t45 28.5t54 10t53.5 -10t44.5 -28.5t30.5 -45t11.5 -59.5q0 -32 -11.5 -58.5t-30.5 -45t-44.5 -29t-53.5 -10.5zM735 -13q-69 0 -128 25.5t-102 74t-67.5 119t-24.5 159.5t24.5 159.5
t68.5 119.5t104 75t130 26q66 0 117 -27.5t84 -62.5l-54 -60q-29 31 -64.5 48.5t-81.5 17.5q-52 0 -94 -20.5t-72 -58.5t-46.5 -92.5t-16.5 -122.5t15.5 -123t45 -93.5t71 -59t93.5 -20.5q54 0 92.5 20.5t73.5 59.5l55 -59q-45 -51 -99 -78t-124 -27zM188 529
q37 0 60.5 25.5t23.5 65.5q0 42 -23.5 66.5t-60.5 24.5q-38 0 -61 -24.5t-23 -66.5q0 -40 23 -65.5t61 -25.5z" />
    <glyph glyph-name="uni2109" unicode="&#x2109;" horiz-adv-x="1000" 
d="M224 477q-28 0 -54 10.5t-45 29t-30.5 45t-11.5 58.5q0 33 11.5 59.5t30.5 45t45 28.5t54 10t53.5 -10t44.5 -28.5t30.5 -45t11.5 -59.5q0 -32 -11.5 -58.5t-30.5 -45t-44.5 -29t-53.5 -10.5zM508 0v732h424v-81h-329v-244h279v-81h-279v-326h-95zM224 529
q37 0 60.5 25.5t23.5 65.5q0 42 -23.5 66.5t-60.5 24.5q-38 0 -61 -24.5t-23 -66.5q0 -40 23 -65.5t61 -25.5z" />
    <glyph glyph-name="uni2116" unicode="&#x2116;" horiz-adv-x="997" 
d="M102 -13q-10 0 -15 0.5t-13 2.5l-8 73q20 0 29 9.5t9 36.5v604h102q51 -115 101 -229.5t98 -229.5l63 -146h4q-4 53 -6.5 96.5t-3.5 82t-1.5 75t-0.5 76.5v179q0 55 20 82t65 27q11 0 16 -1t13 -3l7 -72q-20 0 -29 -9.5t-9 -36.5v-604h-102q-51 115 -100.5 228.5
t-97.5 231.5l-64 145h-4q4 -53 6.5 -96.5t3.5 -82t1.5 -75t0.5 -76.5v-179q0 -55 -20 -82t-65 -27zM810 309q-35 0 -66 12t-54.5 35t-37 56t-13.5 76q0 44 13.5 77.5t37 56t54.5 34.5t66 12t66.5 -12t55 -34.5t37 -56t13.5 -77.5q0 -43 -13.5 -76t-37 -56t-55 -35t-66.5 -12
zM810 369q45 0 71 31t26 88t-26 88.5t-71 31.5t-71 -31.5t-26 -88.5t26 -88t71 -31zM669 168v55h282v-55h-282z" />
    <glyph glyph-name="uni2121" unicode="&#x2121;" horiz-adv-x="1000" 
d="M149 0v660h-123v72h325v-72h-123v-660h-79zM400 0v578h250v-67h-172v-178h131v-63h-131v-203h183v-67h-261zM727 0v578h79v-508h164v-70h-243z" />
    <glyph glyph-name="trademark" unicode="&#x2122;" horiz-adv-x="711" 
d="M115 409v286h-112v61h289v-61h-112v-286h-65zM347 409v347h81l52 -130l32 -88h4l31 88l51 130h82v-347h-62v154l7 117h-4l-82 -218h-52l-81 218h-5l8 -117v-154h-62z" />
    <glyph glyph-name="uni212B" unicode="&#x212b;" horiz-adv-x="1000" 
d="M700 0l-69 221h-265l-70 -221h-97l237 706q-37 15 -59 46t-22 76q0 60 40 95.5t103 35.5q30 0 56 -9.5t45.5 -26.5t30.5 -41t11 -54q0 -43 -22 -74.5t-58 -46.5l240 -707h-101zM498 909q-35 0 -59 -23.5t-24 -62.5q0 -42 24 -64.5t59 -22.5q33 0 57 22.5t24 64.5
q0 39 -24 62.5t-57 23.5zM389 297h218l-34 110q-20 63 -37.5 123t-35.5 124h-5q-17 -63 -34.5 -124.5t-36.5 -122.5z" />
    <glyph glyph-name="uni2160" unicode="&#x2160;" horiz-adv-x="1000" 
d="M452 0v732h96v-732h-96z" />
    <glyph glyph-name="uni2161" unicode="&#x2161;" horiz-adv-x="1000" 
d="M305 0v732h96v-732h-96zM600 0v732h95v-732h-95z" />
    <glyph glyph-name="uni2162" unicode="&#x2162;" horiz-adv-x="1000" 
d="M157 0v732h96v-732h-96zM452 0v732h96v-732h-96zM747 0v732h96v-732h-96z" />
    <glyph glyph-name="uni2163" unicode="&#x2163;" horiz-adv-x="1000" 
d="M164 0v732h96v-732h-96zM592 0l-233 732h101l118 -394q18 -66 33.5 -121.5t35.5 -119.5h5q20 65 35 120.5t35 120.5l116 394h97l-232 -732h-111z" />
    <glyph glyph-name="uni2164" unicode="&#x2164;" horiz-adv-x="1000" 
d="M445 0l-232 732h100l118 -394q18 -66 33.5 -121.5t35.5 -119.5h5q20 65 35 120.5t35 120.5l116 394h97l-232 -732h-111z" />
    <glyph glyph-name="uni2165" unicode="&#x2165;" horiz-adv-x="1000" 
d="M298 0l-233 732h100l118 -394q19 -66 34 -121.5t35 -119.5h5q20 64 35.5 120t35.5 121l116 394h96l-231 -732h-111zM739 0v732h96v-732h-96z" />
    <glyph glyph-name="uni2166" unicode="&#x2166;" horiz-adv-x="1000" 
d="M202 0l-194 732h101l91 -394q16 -65 29 -120.5t31 -120.5h4q18 65 32 120t28 121l92 394h97l-194 -732h-117zM593 0v732h96v-732h-96zM826 0v732h96v-732h-96z" />
    <glyph glyph-name="uni2167" unicode="&#x2167;" horiz-adv-x="1000" 
d="M147 0l-143 732h88l64 -394q11 -66 20.5 -121.5t20.5 -119.5h4q12 64 21.5 119.5t19.5 121.5l62 394h84l-137 -732h-104zM472 0v732h83v-732h-83zM659 0v732h83v-732h-83zM845 0v732h83v-732h-83z" />
    <glyph glyph-name="uni2168" unicode="&#x2168;" horiz-adv-x="1000" 
d="M165 0v732h96v-732h-96zM377 0l212 378l-199 354h106l98 -186q14 -26 27 -50t31 -56h4q7 16 13.5 30t12.5 26l121 236h101l-200 -359l213 -373h-105l-106 196q-15 27 -30 55.5t-32 61.5h-4q-17 -33 -31 -61.5t-28 -55.5l-104 -196h-100z" />
    <glyph glyph-name="uni2169" unicode="&#x2169;" horiz-adv-x="1000" 
d="M229 0l212 378l-199 354h106l99 -186q14 -26 26.5 -50t30.5 -56h4q15 32 26.5 56t24.5 50l97 186h100l-200 -359l214 -373h-106l-106 196q-14 27 -29.5 55.5t-32.5 61.5h-4q-16 -33 -30 -61.5t-28 -55.5l-105 -196h-100z" />
    <glyph glyph-name="uni2170" unicode="&#x2170;" horiz-adv-x="1000" 
d="M501 653q-28 0 -46.5 17t-18.5 43q0 27 18.5 43.5t46.5 16.5q26 0 45 -16.5t19 -43.5q0 -26 -19 -43t-45 -17zM452 0v542h95v-542h-95z" />
    <glyph glyph-name="uni2171" unicode="&#x2171;" horiz-adv-x="1000" 
d="M363 653q-28 0 -46.5 17t-18.5 43q0 27 18.5 43.5t46.5 16.5q27 0 45.5 -16.5t18.5 -43.5q0 -26 -18.5 -43t-45.5 -17zM639 653q-28 0 -46.5 17t-18.5 43q0 27 18.5 43.5t46.5 16.5q27 0 45.5 -16.5t18.5 -43.5q0 -26 -18.5 -43t-45.5 -17zM315 0v542h94v-542h-94zM591 0
v542h94v-542h-94z" />
    <glyph glyph-name="uni2172" unicode="&#x2172;" horiz-adv-x="1000" 
d="M225 653q-27 0 -46 17t-19 43q0 27 19 43.5t46 16.5t45.5 -16.5t18.5 -43.5q0 -26 -18.5 -43t-45.5 -17zM501 653q-28 0 -46.5 17t-18.5 43q0 27 18.5 43.5t46.5 16.5q26 0 45 -16.5t19 -43.5q0 -26 -19 -43t-45 -17zM776 653q-28 0 -46.5 17t-18.5 43q0 27 18.5 43.5
t46.5 16.5q27 0 45.5 -16.5t18.5 -43.5q0 -26 -18.5 -43t-45.5 -17zM177 0v542h95v-542h-95zM452 0v542h95v-542h-95zM728 0v542h95v-542h-95z" />
    <glyph glyph-name="uni2173" unicode="&#x2173;" horiz-adv-x="1000" 
d="M240 653q-28 0 -46.5 17t-18.5 43q0 27 18.5 43.5t46.5 16.5q27 0 45 -16.5t18 -43.5q0 -26 -18 -43t-45 -17zM191 0v542h95v-542h-95zM585 0l-195 542h97l101 -306q12 -40 25 -81t25 -79h4q12 38 25 79t24 81l102 306h93l-191 -542h-110z" />
    <glyph glyph-name="uni2174" unicode="&#x2174;" horiz-adv-x="1000" 
d="M447 0l-195 542h97l101 -306q13 -40 25.5 -81t25.5 -79h4q12 38 25 79t24 81l102 306h92l-191 -542h-110z" />
    <glyph glyph-name="uni2175" unicode="&#x2175;" horiz-adv-x="1000" 
d="M762 653q-28 0 -46.5 17t-18.5 43q0 27 18.5 43.5t46.5 16.5q27 0 45 -16.5t18 -43.5q0 -26 -18 -43t-45 -17zM310 0l-196 542h97l102 -306q11 -40 24 -81t25 -79h4q13 38 26 79t24 81l102 306h92l-191 -542h-109zM714 0v542h94v-542h-94z" />
    <glyph glyph-name="uni2176" unicode="&#x2176;" horiz-adv-x="1000" 
d="M618 653q-28 0 -46.5 17t-18.5 43q0 27 18.5 43.5t46.5 16.5q27 0 45.5 -16.5t18.5 -43.5q0 -26 -18.5 -43t-45.5 -17zM869 653q-28 0 -46.5 17t-18.5 43q0 27 18.5 43.5t46.5 16.5q27 0 45.5 -16.5t18.5 -43.5q0 -26 -18.5 -43t-45.5 -17zM196 0l-183 542h97l93 -306
q11 -40 22.5 -81t24.5 -79h4q12 38 23.5 79t22.5 81l93 306h92l-179 -542h-110zM570 0v542h95v-542h-95zM821 0v542h94v-542h-94z" />
    <glyph glyph-name="uni2177" unicode="&#x2177;" horiz-adv-x="1000" 
d="M503 653q-26 0 -42.5 17t-16.5 43q0 27 16.5 43.5t42.5 16.5q24 0 40.5 -16.5t16.5 -43.5q0 -26 -16.5 -43t-40.5 -17zM700 653q-25 0 -42 17t-17 43q0 27 17 43.5t42 16.5q24 0 41 -16.5t17 -43.5q0 -26 -17 -43t-41 -17zM898 653q-25 0 -42 17t-17 43q0 27 17 43.5
t42 16.5q24 0 40.5 -16.5t16.5 -43.5q0 -26 -16.5 -43t-40.5 -17zM141 0l-135 542h91l60 -306q10 -40 17 -81t17 -79h4q9 38 17 79t16 81l60 306h86l-130 -542h-103zM461 0v542h82v-542h-82zM658 0v542h82v-542h-82zM855 0v542h83v-542h-83z" />
    <glyph glyph-name="uni2178" unicode="&#x2178;" horiz-adv-x="1000" 
d="M251 653q-28 0 -46.5 17t-18.5 43q0 27 18.5 43.5t46.5 16.5q26 0 44.5 -16.5t18.5 -43.5q0 -26 -18.5 -43t-44.5 -17zM203 0v542h94v-542h-94zM403 0l178 283l-165 259h102l72 -118q12 -22 25.5 -44.5t27.5 -45.5h4q13 23 24.5 45.5t23.5 44.5l66 118h98l-164 -269
l177 -273h-102l-79 125q-14 24 -28.5 49t-29.5 48h-5q-14 -23 -27.5 -47.5t-27.5 -49.5l-72 -125h-98z" />
    <glyph glyph-name="uni2179" unicode="&#x2179;" horiz-adv-x="1000" 
d="M265 0l178 283l-165 259h102l72 -118q26 -43 54 -90h4q24 47 48 90l65 118h99l-164 -269l176 -273h-101l-80 125q-14 24 -28 49t-30 48h-5q-14 -23 -27 -47.5t-27 -49.5l-73 -125h-98z" />
    <glyph glyph-name="arrowleft" unicode="&#x2190;" horiz-adv-x="1000" 
d="M960 346h-771q38 -30 83 -73t79 -91l-60 -35q-25 33 -55.5 65.5t-64 62.5t-68.5 57t-68 48q33 21 68 48t68.5 57t64 62.5t55.5 65.5l60 -35q-35 -47 -79.5 -90.5t-82.5 -73.5h771v-68z" />
    <glyph glyph-name="arrowup" unicode="&#x2191;" horiz-adv-x="1000" 
d="M466 -80v771q-30 -38 -73.5 -82.5t-90.5 -79.5l-35 60q33 25 65.5 55.5t62.5 64t57 68.5t48 68q21 -33 48 -68t57 -68.5t62.5 -64t65.5 -55.5l-35 -60q-47 35 -90.5 79.5t-73.5 82.5v-771h-68z" />
    <glyph glyph-name="arrowright" unicode="&#x2192;" horiz-adv-x="1000" 
d="M40 346v68h771q-38 30 -82.5 73.5t-79.5 90.5l60 35q25 -33 55.5 -65.5t64 -62.5t68.5 -57t68 -48q-33 -21 -68 -48t-68.5 -57t-64 -62.5t-55.5 -65.5l-60 35q35 47 79.5 90.5t82.5 73.5h-771z" />
    <glyph glyph-name="arrowdown" unicode="&#x2193;" horiz-adv-x="1000" 
d="M534 840v-771q30 38 73.5 82.5t90.5 79.5l35 -60q-33 -25 -65.5 -55.5t-62.5 -64t-57 -68.5t-48 -68q-21 33 -48 68t-57 68.5t-62.5 64t-65.5 55.5l35 60q48 -34 91 -79t73 -83v771h68z" />
    <glyph glyph-name="arrowboth" unicode="&#x2194;" horiz-adv-x="1000" 
d="M811 342h-622q38 -30 83 -73t79 -91l-60 -35q-25 33 -55.5 65.5t-64 62.5t-68.5 57t-68 48q33 21 68 48t68.5 57t64 62.5t55.5 65.5l60 -35q-35 -47 -79.5 -90.5t-82.5 -73.5h622q-38 30 -82.5 73.5t-79.5 90.5l60 35q25 -33 55.5 -65.5t64 -62.5t68.5 -57t68 -48
q-33 -21 -68 -48t-68.5 -57t-64 -62.5t-55.5 -65.5l-60 35q35 47 79.5 90.5t82.5 73.5z" />
    <glyph glyph-name="arrowupdn" unicode="&#x2195;" horiz-adv-x="1000" 
d="M534 691v-622q30 38 73.5 82.5t90.5 79.5l35 -60q-33 -25 -65.5 -55.5t-62.5 -64t-57 -68.5t-48 -68q-21 33 -48 68t-57 68.5t-62.5 64t-65.5 55.5l35 60q48 -34 91 -79t73 -83v622q-30 -38 -73.5 -82.5t-90.5 -79.5l-35 60q33 25 65.5 55.5t62.5 64t57 68.5t48 68
q21 -33 48 -68t57 -68.5t62.5 -64t65.5 -55.5l-35 -60q-47 35 -90.5 79.5t-73.5 82.5z" />
    <glyph glyph-name="uni2196" unicode="&#x2196;" horiz-adv-x="1000" 
d="M801 30l-546 546q8 -48 8 -111t-8 -120l-67 17q4 28 5.5 57t1.5 59t-3.5 91.5t-20.5 139.5q78 -17 139.5 -20.5t91.5 -3.5t59 1.5t57 5.5l17 -67q-29 -4 -59.5 -6t-60.5 -2t-58.5 2t-52.5 6l546 -546z" />
    <glyph glyph-name="uni2197" unicode="&#x2197;" horiz-adv-x="1000" 
d="M150 79l546 546q-24 -4 -52.5 -6t-58.5 -2t-60.5 2t-59.5 6l17 67q28 -4 57 -5.5t59 -1.5t91.5 3.5t139.5 20.5q-17 -78 -20.5 -139.5t-3.5 -91.5t1.5 -59t5.5 -57l-67 -17q-8 57 -8 120t8 111l-546 -546z" />
    <glyph glyph-name="uni2198" unicode="&#x2198;" horiz-adv-x="1000" 
d="M199 730l546 -546q-8 48 -8 111t8 120l67 -17q-4 -28 -5.5 -57t-1.5 -59t3.5 -91.5t20.5 -139.5q-78 17 -139.5 20.5t-91.5 3.5t-59 -1.5t-57 -5.5l-17 67q29 5 59.5 6.5t60.5 1.5t58.5 -1.5t52.5 -6.5l-546 546z" />
    <glyph glyph-name="uni2199" unicode="&#x2199;" horiz-adv-x="1000" 
d="M850 681l-546 -546q24 5 52.5 6.5t58.5 1.5t60.5 -1.5t59.5 -6.5l-17 -67q-28 4 -57 5.5t-59 1.5t-91.5 -3.5t-139.5 -20.5q17 78 20.5 139.5t3.5 91.5t-1.5 59t-5.5 57l67 17q8 -57 8 -120t-8 -111l546 546z" />
    <glyph glyph-name="arrowdblright" unicode="&#x21d2;" horiz-adv-x="1000" 
d="M40 271h703q30 31 60 58t58 47q-29 21 -58 47t-60 57h-703v69h643q-56 64 -93 124l59 34q29 -46 67 -93t81 -90.5t88.5 -81.5t90.5 -66q-45 -29 -90.5 -67t-88.5 -81.5t-81 -90.5t-67 -93l-59 34q37 60 93 124h-643v69z" />
    <glyph glyph-name="arrowdblboth" unicode="&#x21d4;" horiz-adv-x="1000" 
d="M329 707l58 -34q-17 -29 -39.5 -61t-48.5 -63h402q-26 31 -48.5 63t-39.5 61l58 34q27 -46 62.5 -93t75.5 -90.5t82.5 -81.5t84.5 -66q-42 -29 -84.5 -67t-82.5 -81.5t-75.5 -90.5t-62.5 -93l-58 34q17 29 39.5 61t48.5 63h-402q26 -31 48.5 -63t39.5 -61l-58 -34
q-27 46 -62.5 93t-75.5 90.5t-82.5 81.5t-84.5 67q42 28 84.5 66t82.5 81.5t75.5 90.5t62.5 93zM756 480h-512q-29 -31 -57.5 -57.5t-55.5 -46.5q27 -20 55.5 -47t57.5 -58h512q29 31 57.5 58t55.5 47q-27 20 -55.5 46.5t-57.5 57.5z" />
    <glyph glyph-name="universal" unicode="&#x2200;" horiz-adv-x="1000" 
d="M826 764l61 -31l-385 -748h-4l-385 748l61 31l132 -259h388zM342 437l157 -308h2l157 308h-316z" />
    <glyph glyph-name="partialdiff" unicode="&#x2202;" horiz-adv-x="1000" 
d="M706 488q0 103 -44.5 155.5t-119.5 52.5q-28 0 -53 -8.5t-46 -21t-37.5 -28t-27.5 -30.5l-49 54q19 19 42.5 37t51 32.5t59 23t67.5 8.5q51 0 94.5 -18t75 -52.5t49 -85.5t17.5 -117q0 -88 -23 -177.5t-67 -161.5t-109.5 -117.5t-149.5 -45.5q-53 0 -94 17t-68.5 47
t-42 70.5t-14.5 87.5q0 57 22 106t57.5 85t81 56t92.5 20q42 0 75.5 -10.5t60 -28.5t46 -42t33.5 -52h2q9 35 14 73t5 71zM294 210q0 -69 39 -110t106 -41q69 1 124 49t90 142q-5 36 -20.5 66t-39 51.5t-53.5 33t-63 11.5q-34 0 -67 -15.5t-59 -42.5t-41.5 -64t-15.5 -80z
" />
    <glyph glyph-name="existential" unicode="&#x2203;" horiz-adv-x="1000" 
d="M195 739h604v-727h-604v69h535v261h-535v68h535v260h-535v69z" />
    <glyph glyph-name="gradient" unicode="&#x2207;" horiz-adv-x="1000" 
d="M447 -16l-296 677v56h696v-56l-294 -677h-106zM596 302l144 336h-483l143 -336l96 -236h5z" />
    <glyph glyph-name="element" unicode="&#x2208;" horiz-adv-x="1000" 
d="M872 629h-412q-52 0 -97.5 -16.5t-80.5 -46t-57 -69.5t-28 -87h675v-69h-675q6 -47 28 -87t57 -69.5t80.5 -46t97.5 -16.5h412v-69h-412q-71 0 -132.5 25t-106.5 68.5t-71 102.5t-26 127t26 126.5t71 102t106.5 68.5t132.5 25h412v-69z" />
    <glyph glyph-name="suchthat" unicode="&#x220b;" horiz-adv-x="1000" 
d="M540 629h-412v69h412q71 0 132.5 -25t106.5 -68.5t71 -102t26 -126.5t-26 -127t-71 -102.5t-106.5 -68.5t-132.5 -25h-412v69h412q53 0 98 16.5t80 46t57 69.5t28 87h-675v69h675q-6 47 -28 87t-57 69.5t-80 46t-98 16.5z" />
    <glyph glyph-name="product" unicode="&#x220f;" horiz-adv-x="1000" 
d="M208 -134v847h585v-847h-94v766h-399v-766h-92z" />
    <glyph glyph-name="summation" unicode="&#x2211;" horiz-adv-x="1000" 
d="M326 79v-4h473v-75h-598v53l287 309l-271 308v56h545v-74h-420v-4l249 -284z" />
    <glyph glyph-name="radical" unicode="&#x221a;" horiz-adv-x="1000" 
d="M560 880h440v-41h-411l-321 -925h-30l-108 280l-70 -99l-26 19l137 193l99 -260z" />
    <glyph glyph-name="proportional" unicode="&#x221d;" horiz-adv-x="1000" 
d="M544 376q43 -58 96.5 -94.5t122.5 -36.5q36 0 64 9l25 -65q-33 -13 -91 -13q-43 0 -80.5 11.5t-69.5 31.5t-59.5 46t-51.5 56q-24 -30 -51 -56t-59.5 -46t-70 -31.5t-81.5 -11.5q-36 0 -72.5 12.5t-66 37.5t-47.5 62.5t-18 87.5t18 87t47.5 62t66 37.5t72.5 12.5
q44 0 81.5 -11.5t70 -31.5t59.5 -46t51 -56q24 30 51.5 56t59.5 46t69.5 31.5t80.5 11.5q58 0 91 -13l-25 -64q-28 9 -64 9q-69 0 -122.5 -37t-96.5 -94zM103 376q0 -31 11 -55.5t29.5 -41.5t43 -25.5t50.5 -8.5q69 0 122.5 36.5t96.5 94.5q-43 57 -96.5 94t-122.5 37
q-26 0 -50.5 -9t-43 -25.5t-29.5 -41t-11 -55.5z" />
    <glyph glyph-name="infinity" unicode="&#x221e;" horiz-adv-x="1000" 
d="M500 430q24 30 51.5 56t59.5 46t69.5 31.5t80.5 11.5q36 0 72.5 -12.5t66 -37.5t47.5 -62t18 -87t-18 -87.5t-47.5 -62.5t-66 -37.5t-72.5 -12.5q-43 0 -80.5 11.5t-69.5 31.5t-59.5 46t-51.5 56q-24 -30 -51.5 -56t-60 -46t-70 -31.5t-80.5 -11.5q-36 0 -72.5 12.5
t-66 37.5t-47.5 62.5t-18 87.5t18 87t47.5 62t66 37.5t72.5 12.5q43 0 80.5 -11.5t70 -31.5t60 -46t51.5 -56zM103 376q0 -31 11 -55.5t29.5 -41.5t43 -25.5t50.5 -8.5q69 0 121.5 36.5t97.5 94.5q-45 57 -97.5 94t-121.5 37q-26 0 -50.5 -9t-43 -25.5t-29.5 -41t-11 -55.5z
M544 376q43 -58 96.5 -94.5t122.5 -36.5q26 0 50 8.5t42.5 25.5t29.5 41.5t11 55.5t-11 55.5t-29.5 41t-42.5 25.5t-50 9q-69 0 -122.5 -37t-96.5 -94z" />
    <glyph glyph-name="angle" unicode="&#x2220;" horiz-adv-x="1000" 
d="M264 99v-3h615v-69h-777v4l663 664l48 -49z" />
    <glyph glyph-name="logicaland" unicode="&#x2227;" horiz-adv-x="1000" 
d="M113 23l385 747h4l385 -747l-61 -32l-325 635h-2l-325 -635z" />
    <glyph glyph-name="logicalor" unicode="&#x2228;" horiz-adv-x="1000" 
d="M887 728l-385 -747h-4l-385 747l61 32l325 -635h2l325 635z" />
    <glyph glyph-name="intersection" unicode="&#x2229;" horiz-adv-x="1000" 
d="M178 4v411q0 72 24.5 133.5t68 106.5t102.5 70.5t127 25.5t127 -25.5t102.5 -70.5t68 -106.5t24.5 -133.5v-411h-69v411q0 57 -19.5 106t-53.5 85t-80 56t-100 20t-100 -20t-80 -56t-53.5 -85t-19.5 -106v-411h-69z" />
    <glyph glyph-name="union" unicode="&#x222a;" horiz-adv-x="1000" 
d="M822 747v-411q0 -72 -24.5 -133.5t-68 -106.5t-102.5 -70.5t-127 -25.5t-127 25.5t-102.5 70.5t-68 106.5t-24.5 133.5v411h69v-411q0 -57 19.5 -106t53.5 -85t80 -56t100 -20t100 20t80 56t53.5 85t19.5 106v411h69z" />
    <glyph glyph-name="integral" unicode="&#x222b;" horiz-adv-x="1000" 
d="M460 166v439q0 75 16.5 122.5t42 73.5t57 35.5t62.5 9.5q11 0 22 -1.5t24 -3.5l-7 -73q-9 4 -33 4q-19 0 -37.5 -5.5t-33.5 -24.5t-24 -54t-9 -94v-439q0 -75 -16 -122.5t-41.5 -73.5t-57 -35.5t-63.5 -9.5q-11 0 -22 1.5t-24 3.5l7 73q9 -4 33 -4q19 0 37.5 5.5
t33.5 24.5t24 54t9 94z" />
    <glyph glyph-name="uni222C" unicode="&#x222c;" horiz-adv-x="1000" 
d="M266 166v439q0 75 16.5 122.5t42 73.5t57 35.5t62.5 9.5q11 0 22 -1.5t24 -3.5l-7 -73q-9 4 -33 4q-19 0 -37.5 -5.5t-33.5 -24.5t-24 -54t-9 -94v-439q0 -75 -16 -122.5t-41.5 -73.5t-57 -35.5t-63.5 -9.5q-11 0 -22 1.5t-24 3.5l7 73q9 -4 33 -4q19 0 37.5 5.5
t33.5 24.5t24 54t9 94zM654 166v439q0 75 16 122.5t41.5 73.5t57.5 35.5t63 9.5q11 0 22 -1.5t24 -3.5l-7 -73q-9 4 -33 4q-19 0 -37.5 -5.5t-33.5 -24.5t-24 -54t-9 -94v-439q0 -75 -16.5 -122.5t-42 -73.5t-57 -35.5t-62.5 -9.5q-11 0 -22 1.5t-24 3.5l7 73q9 -4 33 -4
q19 0 37.5 5.5t33.5 24.5t24 54t9 94z" />
    <glyph glyph-name="uni222E" unicode="&#x222e;" horiz-adv-x="1000" 
d="M460 159v60q-27 6 -50.5 21t-41 36t-27 47.5t-9.5 56.5t9.5 56.5t27 47.5t41 36t50.5 21v64q0 75 16.5 122.5t42 73.5t57 35.5t62.5 9.5q11 0 22 -1.5t24 -3.5l-7 -73q-9 4 -33 4q-18 0 -36.5 -5.5t-33.5 -23t-24.5 -51.5t-9.5 -91v-60q27 -6 50.5 -21t41 -36t27 -47.5
t9.5 -56.5t-9.5 -56.5t-27 -47.5t-41 -36t-50.5 -21v-64q0 -75 -16 -122.5t-41.5 -73.5t-57 -35.5t-63.5 -9.5q-11 0 -22 1.5t-24 3.5l7 73q9 -4 33 -4q18 0 36.5 5.5t33.5 23t24.5 51.5t9.5 91zM460 261v238q-38 -11 -63 -44t-25 -75t25 -75t63 -44zM540 499v-238
q38 11 63 44t25 75t-25 75t-63 44z" />
    <glyph glyph-name="therefore" unicode="&#x2234;" horiz-adv-x="1000" 
d="M428 612q0 29 21 50.5t51 21.5t51 -21.5t21 -50.5q0 -30 -21 -51.5t-51 -21.5t-51 21.5t-21 51.5zM163 139q0 30 21.5 51.5t51.5 21.5t51 -21.5t21 -51.5q0 -29 -21 -50.5t-51 -21.5t-51.5 21.5t-21.5 50.5zM692 139q0 30 21.5 51.5t51.5 21.5t51 -21.5t21 -51.5
q0 -29 -21 -50.5t-51 -21.5t-51.5 21.5t-21.5 50.5z" />
    <glyph glyph-name="uni2235" unicode="&#x2235;" horiz-adv-x="1000" 
d="M163 612q0 29 21.5 50.5t51.5 21.5t51 -21.5t21 -50.5q0 -30 -21 -51.5t-51 -21.5t-51.5 21.5t-21.5 51.5zM692 612q0 29 21.5 50.5t51.5 21.5t51 -21.5t21 -50.5q0 -30 -21 -51.5t-51 -21.5t-51.5 21.5t-21.5 51.5zM428 139q0 30 21 51.5t51 21.5t51 -21.5t21 -51.5
q0 -29 -21 -50.5t-51 -21.5t-51 21.5t-21 50.5z" />
    <glyph glyph-name="uni2236" unicode="&#x2236;" horiz-adv-x="1000" 
d="M428 612q0 29 21 50.5t51 21.5t51 -21.5t21 -50.5q0 -30 -21 -51.5t-51 -21.5t-51 21.5t-21 51.5zM428 139q0 30 21 51.5t51 21.5t51 -21.5t21 -51.5q0 -29 -21 -50.5t-51 -21.5t-51 21.5t-21 50.5z" />
    <glyph glyph-name="uni223D" unicode="&#x223d;" horiz-adv-x="1000" 
d="M476 400q25 35 54.5 66.5t64.5 55.5t76.5 38.5t89.5 14.5q36 0 72.5 -12.5t66 -37.5t47.5 -62t18 -87t-18 -87.5t-47.5 -62.5t-66 -37.5t-74.5 -12.5q-51 0 -91 13l26 65q29 -9 67 -9q27 0 51 8.5t43 25.5t30 41.5t11 55.5t-11 55.5t-29.5 41t-42.5 25.5t-50 9
q-39 0 -72.5 -12t-63 -33.5t-55 -50t-48.5 -61.5q-25 -35 -54.5 -66.5t-65 -55.5t-76.5 -38t-90 -14q-36 0 -72.5 12.5t-66 37.5t-47.5 62.5t-18 87.5t18.5 87.5t47.5 62t66 37t74 12.5q56 0 91 -13l-25 -64q-30 9 -67 9q-27 0 -51.5 -9t-43.5 -25.5t-30 -41t-11 -55.5
t11 -55.5t29.5 -41.5t43 -25.5t50.5 -8.5q39 0 72 12t62.5 33t55 49t49.5 61z" />
    <glyph glyph-name="uni2252" unicode="&#x2252;" horiz-adv-x="1000" 
d="M246 667q0 30 21 51.5t51 21.5t51.5 -21.5t21.5 -51.5t-21.5 -51t-51.5 -21t-51 21t-21 51zM137 506h726v-61h-726v61zM137 306h726v-61h-726v61zM609 84q0 30 21.5 51t51.5 21t51 -21t21 -51t-21 -51.5t-51 -21.5t-51.5 21.5t-21.5 51.5z" />
    <glyph glyph-name="notequal" unicode="&#x2260;" horiz-adv-x="1000" 
d="M863 446h-301l-52 -145h353v-69h-378l-77 -210l-64 24l67 186h-274v69h299l53 145h-352v69h377l78 214l64 -24l-69 -190h276v-69z" />
    <glyph glyph-name="equivalence" unicode="&#x2261;" horiz-adv-x="1000" 
d="M137 624h726v-65h-726v65zM137 408h726v-65h-726v65zM137 192h726v-65h-726v65z" />
    <glyph glyph-name="lessequal" unicode="&#x2264;" horiz-adv-x="1000" 
d="M285 479v-4l589 -238l-26 -63l-746 301v4l746 302l26 -64zM128 83h744v-65h-744v65z" />
    <glyph glyph-name="greaterequal" unicode="&#x2265;" horiz-adv-x="1000" 
d="M126 237l589 238v4l-589 238l26 64l746 -302v-4l-746 -301zM128 18v65h744v-65h-744z" />
    <glyph glyph-name="uni226A" unicode="&#x226a;" horiz-adv-x="1000" 
d="M607 763l35 -50l-482 -335v-4l482 -336l-35 -50l-553 386v4zM910 763l35 -50l-483 -335v-4l483 -336l-35 -50l-553 386v4z" />
    <glyph glyph-name="uni226B" unicode="&#x226b;" horiz-adv-x="1000" 
d="M90 763l553 -385v-4l-553 -386l-35 50l483 336v4l-483 335zM393 763l553 -385v-4l-553 -386l-35 50l482 336v4l-482 335z" />
    <glyph glyph-name="propersubset" unicode="&#x2282;" horiz-adv-x="1000" 
d="M872 53h-412q-71 0 -132.5 25t-106.5 68.5t-71 102.5t-26 127t26 126.5t71 102t106.5 68.5t132.5 25h412v-69h-412q-57 0 -106 -19.5t-84.5 -53.5t-56 -80t-20.5 -100t20.5 -100.5t56 -80.5t84.5 -53.5t106 -19.5h412v-69z" />
    <glyph glyph-name="propersuperset" unicode="&#x2283;" horiz-adv-x="1000" 
d="M128 698h412q71 0 132.5 -25t106.5 -68.5t71 -102t26 -126.5t-26 -127t-71 -102.5t-106.5 -68.5t-132.5 -25h-412v69h412q57 0 106 19.5t84.5 53.5t56 80.5t20.5 100.5t-20.5 100t-56 80t-84.5 53.5t-106 19.5h-412v69z" />
    <glyph glyph-name="reflexsubset" unicode="&#x2286;" horiz-adv-x="1000" 
d="M872 694h-463q-52 0 -92.5 -16t-68 -43t-41.5 -62t-14 -73t14 -73.5t41.5 -62.5t68 -43t92.5 -16h463v-69h-463q-67 0 -120 21.5t-89.5 58t-56 84.5t-19.5 100t19.5 99.5t56 84t89.5 58t120 21.5h463v-69zM128 57h744v-69h-744v69z" />
    <glyph glyph-name="reflexsuperset" unicode="&#x2287;" horiz-adv-x="1000" 
d="M128 305h463q53 0 93 16t67.5 43t41.5 62.5t14 73.5t-14 73t-41.5 62t-67.5 43t-93 16h-463v69h463q67 0 120 -21.5t89.5 -58t56 -84t19.5 -99.5t-19.5 -100t-56 -84.5t-89.5 -58t-120 -21.5h-463v69zM128 57h744v-69h-744v69z" />
    <glyph glyph-name="uni2299" unicode="&#x2299;" horiz-adv-x="1000" 
d="M500 10q-76 0 -143.5 29t-118 79.5t-79.5 118t-29 143.5q0 77 29 144t79.5 117.5t118 79.5t143.5 29q77 0 144 -29t117.5 -79.5t79.5 -117.5t29 -144q0 -76 -29 -143.5t-79.5 -118t-117.5 -79.5t-144 -29zM199 380q0 -62 23.5 -117t64.5 -96t96 -64.5t117 -23.5t117 23.5
t96 64.5t64.5 96t23.5 117t-23.5 117t-64.5 96t-96 64.5t-117 23.5t-117 -23.5t-96 -64.5t-64.5 -96t-23.5 -117zM558 380q0 -24 -17 -41t-41 -17t-41 17t-17 41q0 23 17 40.5t41 17.5t41 -17.5t17 -40.5z" />
    <glyph glyph-name="uni22A5" unicode="&#x22a5;" horiz-adv-x="1000" 
d="M534 105h361v-69h-790v69h361v634h68v-634z" />
    <glyph glyph-name="uni2312" unicode="&#x2312;" horiz-adv-x="1000" 
d="M55 586l-31 60q91 91 210 145t266 54q146 0 265 -54.5t211 -144.5l-31 -60q-91 88 -199.5 137t-245.5 49t-245.5 -49t-199.5 -137z" />
    <glyph glyph-name="uni2460" unicode="&#x2460;" horiz-adv-x="1000" 
d="M500 -86q-96 0 -181 36.5t-148.5 100t-100 148.5t-36.5 181t36.5 181t100 148.5t148.5 100t181 36.5t181 -36.5t148.5 -100t100 -148.5t36.5 -181q0 -97 -37 -182t-100.5 -148t-148 -99.5t-180.5 -36.5zM500 -54q90 0 169 34t138 93t93 138t34 169t-34 169t-93 138
t-138 93t-169 34q-91 0 -170 -34.5t-137.5 -93.5t-92.5 -138t-34 -168q0 -90 34 -169t93 -138t138 -93t169 -34zM480 127v424h-106v53q40 7 69.5 17t55.5 24h63v-518h-82z" />
    <glyph glyph-name="uni2461" unicode="&#x2461;" horiz-adv-x="1000" 
d="M500 -86q-96 0 -181 36.5t-148.5 100t-100 148.5t-36.5 181t36.5 181t100 148.5t148.5 100t181 36.5t181 -36.5t148.5 -100t100 -148.5t36.5 -181q0 -97 -37 -182t-100.5 -148t-148 -99.5t-180.5 -36.5zM500 -54q90 0 169 34t138 93t93 138t34 169t-34 169t-93 138
t-138 93t-169 34q-91 0 -170 -34.5t-137.5 -93.5t-92.5 -138t-34 -168q0 -90 34 -169t93 -138t138 -93t169 -34zM327 127v48q63 55 112 100.5t83 84.5t51.5 72t17.5 64q0 45 -25 70t-77 25q-37 0 -67.5 -18t-54.5 -41l-47 44q38 40 80.5 60.5t96.5 20.5q81 0 127.5 -42.5
t46.5 -112.5q0 -36 -17 -72.5t-47.5 -75t-71.5 -78.5t-89 -83q23 2 49.5 3t52.5 1h147v-70h-368z" />
    <glyph glyph-name="uni2462" unicode="&#x2462;" horiz-adv-x="1000" 
d="M500 -86q-96 0 -181 36.5t-148.5 100t-100 148.5t-36.5 181t36.5 181t100 148.5t148.5 100t181 36.5t181 -36.5t148.5 -100t100 -148.5t36.5 -181q0 -97 -37 -182t-100.5 -148t-148 -99.5t-180.5 -36.5zM500 -54q90 0 169 34t138 93t93 138t34 169t-34 169t-93 138
t-138 93t-169 34q-91 0 -170 -34.5t-137.5 -93.5t-92.5 -138t-34 -168q0 -90 34 -169t93 -138t138 -93t169 -34zM495 115q-67 0 -114.5 21.5t-76.5 52.5l40 53q26 -25 61.5 -43t87.5 -18q49 0 80 24t31 64q0 22 -9 39.5t-30 30t-55.5 19.5t-85.5 7v61q89 0 125 25t36 64
q0 36 -25 56.5t-70 20.5q-35 0 -65.5 -13.5t-56.5 -38.5l-43 51q33 30 74.5 48t92.5 18q77 0 126.5 -35.5t49.5 -101.5q0 -45 -28.5 -74t-73.5 -46v-3q51 -13 86.5 -45.5t35.5 -86.5q0 -34 -15 -62t-41.5 -47.5t-61.5 -30t-75 -10.5z" />
    <glyph glyph-name="uni2463" unicode="&#x2463;" horiz-adv-x="1000" 
d="M500 846q96 0 181 -36.5t148.5 -100t100 -148.5t36.5 -181q0 -97 -37 -182t-100.5 -148t-148 -99.5t-180.5 -36.5t-181 36.5t-148.5 100t-100 148.5t-36.5 181t36.5 181t100 148.5t148.5 100t181 36.5zM500 -54q90 0 169 34t138 93t93 138t34 169t-34 169t-93 138
t-138 93t-169 34q-91 0 -170 -34.5t-137.5 -93.5t-92.5 -138t-34 -168q0 -90 34 -169t93 -138t138 -93t169 -34zM606 645v-317h77v-63h-77v-138h-78v138h-256v55l240 325h94zM357 328h171v132q0 22 0.5 51.5t2.5 52.5h-4q-11 -21 -21 -35.5t-24 -35.5z" />
    <glyph glyph-name="uni2464" unicode="&#x2464;" horiz-adv-x="1000" 
d="M500 -86q-96 0 -181 36.5t-148.5 100t-100 148.5t-36.5 181t36.5 181t100 148.5t148.5 100t181 36.5t181 -36.5t148.5 -100t100 -148.5t36.5 -181q0 -97 -37 -182t-100.5 -148t-148 -99.5t-180.5 -36.5zM500 -54q90 0 169 34t138 93t93 138t34 169t-34 169t-93 138
t-138 93t-169 34q-91 0 -170 -34.5t-137.5 -93.5t-92.5 -138t-34 -168q0 -90 34 -169t93 -138t138 -93t169 -34zM498 115q-69 0 -113 21.5t-74 49.5l39 54q25 -22 59 -40.5t85 -18.5t84 29.5t33 80.5q0 49 -32 78t-83 29q-30 0 -51.5 -9t-46.5 -25l-42 26l18 255h292v-70
h-222l-13 -140q19 8 40 14.5t45 6.5q37 0 69.5 -10t56.5 -30t38 -50.5t14 -72.5t-16.5 -75.5t-43.5 -56t-62.5 -34.5t-73.5 -12z" />
    <glyph glyph-name="uni2465" unicode="&#x2465;" horiz-adv-x="1000" 
d="M500 846q96 0 181 -36.5t148.5 -100t100 -148.5t36.5 -181q0 -97 -37 -182t-100.5 -148t-148 -99.5t-180.5 -36.5t-181 36.5t-148.5 100t-100 148.5t-36.5 181t36.5 181t100 148.5t148.5 100t181 36.5zM500 -54q90 0 169 34t138 93t93 138t34 169t-34 169t-93 138
t-138 93t-169 34q-91 0 -170 -34.5t-137.5 -93.5t-92.5 -138t-34 -168q0 -90 34 -169t93 -138t138 -93t169 -34zM665 600l-45 -51q-17 18 -43 29t-54 11q-29 0 -55.5 -10.5t-47 -35t-33 -64t-13.5 -97.5q27 29 64 46.5t75 17.5q75 0 119.5 -40.5t44.5 -121.5q0 -39 -14 -70
t-38 -53t-56 -34t-68 -12q-43 0 -80.5 15.5t-65.5 46.5t-43.5 79t-15.5 112q0 77 18.5 131.5t49.5 89.5t72 51.5t85 16.5q49 0 84 -16.5t60 -40.5zM502 179q40 0 68.5 28.5t28.5 74.5q0 48 -26.5 75.5t-78.5 27.5q-26 0 -57.5 -14.5t-60.5 -49.5q8 -73 40 -107.5t86 -34.5z
" />
    <glyph glyph-name="uni2466" unicode="&#x2466;" horiz-adv-x="1000" 
d="M500 -86q-96 0 -181 36.5t-148.5 100t-100 148.5t-36.5 181t36.5 181t100 148.5t148.5 100t181 36.5t181 -36.5t148.5 -100t100 -148.5t36.5 -181q0 -97 -37 -182t-100.5 -148t-148 -99.5t-180.5 -36.5zM500 -54q90 0 169 34t138 93t93 138t34 169t-34 169t-93 138
t-138 93t-169 34q-91 0 -170 -34.5t-137.5 -93.5t-92.5 -138t-34 -168q0 -90 34 -169t93 -138t138 -93t169 -34zM513 127h-85q4 71 14 130t28.5 112t47.5 103t71 103h-270v70h364v-50q-50 -58 -81.5 -110t-49.5 -106t-26.5 -115t-12.5 -137z" />
    <glyph glyph-name="uni2467" unicode="&#x2467;" horiz-adv-x="1000" 
d="M500 -86q-96 0 -181 36.5t-148.5 100t-100 148.5t-36.5 181t36.5 181t100 148.5t148.5 100t181 36.5t181 -36.5t148.5 -100t100 -148.5t36.5 -181q0 -97 -37 -182t-100.5 -148t-148 -99.5t-180.5 -36.5zM500 -54q90 0 169 34t138 93t93 138t34 169t-34 169t-93 138
t-138 93t-169 34q-91 0 -170 -34.5t-137.5 -93.5t-92.5 -138t-34 -168q0 -90 34 -169t93 -138t138 -93t169 -34zM500 115q-42 0 -77 10.5t-60.5 29.5t-40 45t-14.5 56q0 26 9.5 47t24.5 38t34.5 30.5t39.5 23.5v4q-33 20 -57.5 49.5t-24.5 71.5q0 32 13 57t35.5 43t53 27.5
t65.5 9.5q79 0 123.5 -39t44.5 -99q0 -21 -7 -40t-18.5 -34.5t-25.5 -28.5t-28 -22v-3q19 -11 37 -23t32.5 -28t23 -36t8.5 -47q0 -30 -14 -56t-39 -45t-60 -30t-78 -11zM538 413q28 22 44 47.5t16 51.5q0 37 -25.5 61.5t-73.5 24.5q-40 0 -65.5 -21t-25.5 -57
q0 -22 10.5 -38t28.5 -28.5t41.5 -22t49.5 -18.5zM503 175q51 0 81 22.5t30 61.5q0 24 -12 40.5t-32 29.5t-47.5 23.5t-58.5 21.5q-33 -19 -57.5 -45.5t-24.5 -61.5q0 -40 35 -66t86 -26z" />
    <glyph glyph-name="uni2468" unicode="&#x2468;" horiz-adv-x="1000" 
d="M500 846q96 0 181 -36.5t148.5 -100t100 -148.5t36.5 -181q0 -97 -37 -182t-100.5 -148t-148 -99.5t-180.5 -36.5t-181 36.5t-148.5 100t-100 148.5t-36.5 181t36.5 181t100 148.5t148.5 100t181 36.5zM500 -54q90 0 169 34t138 93t93 138t34 169t-34 169t-93 138
t-138 93t-169 34q-91 0 -170 -34.5t-137.5 -93.5t-92.5 -138t-34 -168q0 -90 34 -169t93 -138t138 -93t169 -34zM334 171l45 50q17 -17 43 -28t55 -11t55 11t45.5 35.5t31.5 64t14 96.5q-26 -29 -62 -46t-73 -17q-73 0 -119 40t-46 122q0 38 14 69.5t37.5 53.5t55 34
t67.5 12q44 0 81 -15.5t64.5 -46.5t43 -78.5t15.5 -112.5q0 -78 -18.5 -132.5t-49 -89.5t-70.5 -51t-84 -16q-49 0 -85 16t-60 40zM504 385q27 0 58 15t59 50q-16 144 -124 144q-39 0 -67 -28.5t-28 -76.5q0 -104 102 -104z" />
    <glyph glyph-name="uni2469" unicode="&#x2469;" horiz-adv-x="1000" 
d="M500 -86q-96 0 -181 36.5t-148.5 100t-100 148.5t-36.5 181t36.5 181t100 148.5t148.5 100t181 36.5t181 -36.5t148.5 -100t100 -148.5t36.5 -181q0 -97 -37 -182t-100.5 -148t-148 -99.5t-180.5 -36.5zM500 -54q90 0 169 34t138 93t93 138t34 169t-34 169t-93 138
t-138 93t-169 34q-91 0 -170 -34.5t-137.5 -93.5t-92.5 -138t-34 -168q0 -90 34 -169t93 -138t138 -93t169 -34zM627 115q-37 0 -67 19t-51 54t-32.5 86t-11.5 114q0 132 43.5 200.5t118.5 68.5t118 -68.5t43 -200.5q0 -63 -11.5 -114t-32.5 -86t-50.5 -54t-66.5 -19z
M292 127v424h-85v53q34 7 58 17t45 24h60v-518h-78zM627 182q37 0 60 50t23 156t-23 154.5t-60 48.5t-60 -48.5t-23 -154.5t23 -156t60 -50z" />
    <glyph glyph-name="uni246A" unicode="&#x246a;" horiz-adv-x="1000" 
d="M500 -86q-96 0 -181 36.5t-148.5 100t-100 148.5t-36.5 181t36.5 181t100 148.5t148.5 100t181 36.5t181 -36.5t148.5 -100t100 -148.5t36.5 -181q0 -97 -37 -182t-100.5 -148t-148 -99.5t-180.5 -36.5zM500 -54q90 0 169 34t138 93t93 138t34 169t-34 169t-93 138
t-138 93t-169 34q-91 0 -170 -34.5t-137.5 -93.5t-92.5 -138t-34 -168q0 -90 34 -169t93 -138t138 -93t169 -34zM338 127v424h-85v53q34 7 58 17t46 24h59v-518h-78zM611 127v424h-85v53q33 7 57.5 17t45.5 24h59v-518h-77z" />
    <glyph glyph-name="uni246B" unicode="&#x246b;" horiz-adv-x="1000" 
d="M500 -86q-96 0 -181 36.5t-148.5 100t-100 148.5t-36.5 181t36.5 181t100 148.5t148.5 100t181 36.5t181 -36.5t148.5 -100t100 -148.5t36.5 -181q0 -97 -37 -182t-100.5 -148t-148 -99.5t-180.5 -36.5zM500 -54q90 0 169 34t138 93t93 138t34 169t-34 169t-93 138
t-138 93t-169 34q-91 0 -170 -34.5t-137.5 -93.5t-92.5 -138t-34 -168q0 -90 34 -169t93 -138t138 -93t169 -34zM474 127v48q47 55 84.5 100.5t63.5 84.5t40 72t14 64q0 45 -19 70t-57 25q-26 0 -48 -15.5t-39 -38.5l-44 43q30 38 64.5 57.5t76.5 19.5q66 0 103 -42.5
t37 -112.5q0 -36 -13.5 -72.5t-36.5 -74.5t-54 -78.5t-66 -83.5q18 2 39 3t41 1h108v-70h-294zM292 127v424h-85v53q33 7 57.5 17t44.5 24h60v-518h-77z" />
    <glyph glyph-name="uni246C" unicode="&#x246c;" horiz-adv-x="1000" 
d="M500 -86q-96 0 -181 36.5t-148.5 100t-100 148.5t-36.5 181t36.5 181t100 148.5t148.5 100t181 36.5t181 -36.5t148.5 -100t100 -148.5t36.5 -181q0 -97 -37 -182t-100.5 -148t-148 -99.5t-180.5 -36.5zM500 -54q90 0 169 34t138 93t93 138t34 169t-34 169t-93 138
t-138 93t-169 34q-91 0 -170 -34.5t-137.5 -93.5t-92.5 -138t-34 -168q0 -90 34 -169t93 -138t138 -93t169 -34zM610 115q-51 0 -89 20.5t-61 49.5l40 50q21 -23 47 -38.5t62 -15.5q35 0 58 24t23 64q0 22 -6.5 39.5t-22 30t-42 19.5t-65.5 7v61q67 0 94 25t27 64
q0 36 -19 56.5t-51 20.5q-48 0 -87 -45l-43 48q28 29 60.5 45.5t74.5 16.5q63 0 102.5 -35.5t39.5 -101.5q0 -45 -22 -74t-58 -46v-3q42 -13 69.5 -45.5t27.5 -86.5q0 -34 -12.5 -62t-34 -47.5t-50.5 -30t-62 -10.5zM294 127v424h-86v53q34 7 58 17t45 24h60v-518h-77z" />
    <glyph glyph-name="uni246D" unicode="&#x246d;" horiz-adv-x="1000" 
d="M500 846q96 0 181 -36.5t148.5 -100t100 -148.5t36.5 -181q0 -97 -37 -182t-100.5 -148t-148 -99.5t-180.5 -36.5t-181 36.5t-148.5 100t-100 148.5t-36.5 181t36.5 181t100 148.5t148.5 100t181 36.5zM500 -54q90 0 169 34t138 93t93 138t34 169t-34 169t-93 138
t-138 93t-169 34q-91 0 -170 -34.5t-137.5 -93.5t-92.5 -138t-34 -168q0 -90 34 -169t93 -138t138 -93t169 -34zM207 551v53q33 7 57.5 17t44.5 24h60v-518h-77v424h-85zM725 645v-317h58v-63h-58v-138h-72v138h-200v55l182 325h90zM527 328h126v132q0 22 0.5 51.5t2.5 52.5
h-4q-10 -21 -17 -35.5t-17 -35.5z" />
    <glyph glyph-name="uni246E" unicode="&#x246e;" horiz-adv-x="1000" 
d="M500 -86q-96 0 -181 36.5t-148.5 100t-100 148.5t-36.5 181t36.5 181t100 148.5t148.5 100t181 36.5t181 -36.5t148.5 -100t100 -148.5t36.5 -181q0 -97 -37 -182t-100.5 -148t-148 -99.5t-180.5 -36.5zM500 -54q90 0 169 34t138 93t93 138t34 169t-34 169t-93 138
t-138 93t-169 34q-91 0 -170 -34.5t-137.5 -93.5t-92.5 -138t-34 -168q0 -90 34 -169t93 -138t138 -93t169 -34zM292 127v424h-85v53q33 7 57.5 17t44.5 24h60v-518h-77zM614 115q-54 0 -90 21t-61 48l36 53q20 -21 46 -38.5t64 -17.5q37 0 62 29.5t25 80.5q0 49 -23 78
t-61 29q-23 0 -39.5 -9t-35.5 -25l-37 26l13 255h239v-70h-174l-8 -140q14 8 30 14.5t33 6.5q29 0 54.5 -10t45 -30t30.5 -50.5t11 -72.5t-13.5 -75.5t-35.5 -56t-51 -34.5t-60 -12z" />
    <glyph glyph-name="uni2474" unicode="&#x2474;" horiz-adv-x="1000" 
d="M202 -61l-45 -14q-67 102 -96 211.5t-29 243.5q0 133 29 243t96 212l45 -14q-63 -97 -87 -208.5t-24 -232.5q1 -123 24.5 -233.5t86.5 -207.5zM843 -75l-45 14q63 97 86.5 207.5t24.5 233.5q0 121 -24 232.5t-87 208.5l45 14q67 -102 96 -212t29 -243q0 -134 -29 -243.5
t-96 -211.5zM324 12v76h155v527h-124v59q48 8 82.5 21t63.5 31h69v-638h141v-76h-387z" />
    <glyph glyph-name="uni2475" unicode="&#x2475;" horiz-adv-x="1000" 
d="M202 -61l-45 -14q-67 102 -96 211.5t-29 243.5q0 133 29 243t96 212l45 -14q-63 -97 -87 -208.5t-24 -232.5q1 -123 24.5 -233.5t86.5 -207.5zM843 -75l-45 14q63 97 86.5 207.5t24.5 233.5q0 121 -24 232.5t-87 208.5l45 14q67 -102 96 -212t29 -243q0 -134 -29 -243.5
t-96 -211.5zM293 12v53q76 79 136 144.5t101 121t63 103t22 91.5q0 61 -31 100t-97 39q-45 0 -83 -23.5t-65 -60.5l-54 52q42 51 93 79t120 28q100 0 153.5 -56.5t53.5 -153.5q0 -51 -21 -102.5t-58.5 -106.5t-89 -113.5t-111.5 -122.5q29 2 59 4t57 2h197v-78h-445z" />
    <glyph glyph-name="uni2476" unicode="&#x2476;" horiz-adv-x="1000" 
d="M202 -61l-45 -14q-67 102 -96 211.5t-29 243.5q0 133 29 243t96 212l45 -14q-63 -97 -87 -208.5t-24 -232.5q1 -123 24.5 -233.5t86.5 -207.5zM843 -75l-45 14q63 97 86.5 207.5t24.5 233.5q0 121 -24 232.5t-87 208.5l45 14q67 -102 96 -212t29 -243q0 -134 -29 -243.5
t-96 -211.5zM495 -1q-81 0 -138.5 29.5t-89.5 71.5l47 58q29 -35 72.5 -58.5t100.5 -23.5q31 0 57 9t45.5 25.5t30.5 41t11 54.5q0 33 -11.5 59t-38 44t-68.5 28t-102 10v70q54 0 91.5 10.5t61 29t34 43t10.5 51.5q0 54 -32.5 83.5t-86.5 29.5q-42 0 -79 -19t-66 -52l-50 57
q38 40 88.5 64.5t110.5 24.5q46 0 84 -12t65.5 -35t42.5 -56.5t15 -76.5q0 -66 -34.5 -107t-97.5 -63v-4q69 -17 112.5 -62.5t43.5 -120.5q0 -48 -18 -85.5t-49 -63.5t-72.5 -40t-89.5 -14z" />
    <glyph glyph-name="uni2477" unicode="&#x2477;" horiz-adv-x="1000" 
d="M157 835l45 -14q-63 -97 -87 -208.5t-24 -232.5q1 -123 24.5 -233.5t86.5 -207.5l-45 -14q-67 102 -96 211.5t-29 243.5q0 133 29 243t96 212zM798 821l45 14q67 -102 96 -212t29 -243q0 -134 -29 -243.5t-96 -211.5l-45 14q63 97 86.5 207.5t24.5 233.5q0 121 -24 232.5
t-87 208.5zM642 726v-443h96v-73h-96v-198h-87v198h-308v61l292 455h103zM340 283h215v221q0 29 1 61t3 67h-4q-16 -28 -28.5 -53t-28.5 -52z" />
    <glyph glyph-name="uni2478" unicode="&#x2478;" horiz-adv-x="1000" 
d="M202 -61l-45 -14q-67 102 -96 211.5t-29 243.5q0 133 29 243t96 212l45 -14q-63 -97 -87 -208.5t-24 -232.5q1 -123 24.5 -233.5t86.5 -207.5zM843 -75l-45 14q63 97 86.5 207.5t24.5 233.5q0 121 -24 232.5t-87 208.5l45 14q67 -102 96 -212t29 -243q0 -134 -29 -243.5
t-96 -211.5zM485 -2q-41 0 -74.5 8t-61 21.5t-49.5 31.5t-40 37l46 59q29 -32 69.5 -56t100.5 -24q32 0 60 11.5t49 32.5t33 51.5t12 67.5q0 75 -40 116.5t-106 41.5q-36 0 -61.5 -11t-55.5 -33l-48 30l23 344h347v-79h-267l-20 -213q26 16 50.5 23t59.5 7q43 0 81.5 -13
t67 -40.5t45.5 -69.5t17 -100t-20 -103.5t-53 -76.5t-76 -47t-89 -16z" />
    <glyph glyph-name="uni2479" unicode="&#x2479;" horiz-adv-x="1000" 
d="M157 835l45 -14q-63 -97 -87 -208.5t-24 -232.5q1 -123 24.5 -233.5t86.5 -207.5l-45 -14q-67 102 -96 211.5t-29 243.5q0 133 29 243t96 212zM798 821l45 14q67 -102 96 -212t29 -243q0 -134 -29 -243.5t-96 -211.5l-45 14q63 97 86.5 207.5t24.5 233.5q0 121 -24 232.5
t-87 208.5zM717 664l-52 -57q-21 27 -53.5 41t-67.5 14q-34 0 -66 -15.5t-56 -51t-39 -93.5t-16 -144q32 43 77 66.5t88 23.5q88 0 142 -55.5t54 -165.5q0 -51 -16.5 -93t-45 -72t-66.5 -46.5t-81 -16.5q-50 0 -93.5 21.5t-75.5 64.5t-50.5 107t-18.5 149q0 108 21.5 184
t57 123.5t82 69t97.5 21.5q60 0 104 -21t74 -54zM518 72q54 0 89 42.5t35 112.5q0 75 -33 113t-93 38q-33 0 -72.5 -19.5t-74.5 -73.5q9 -106 47.5 -159.5t101.5 -53.5z" />
    <glyph glyph-name="uni247A" unicode="&#x247a;" horiz-adv-x="1000" 
d="M202 -61l-45 -14q-67 102 -96 211.5t-29 243.5q0 133 29 243t96 212l45 -14q-63 -97 -87 -208.5t-24 -232.5q1 -123 24.5 -233.5t86.5 -207.5zM843 -75l-45 14q63 97 86.5 207.5t24.5 233.5q0 121 -24 232.5t-87 208.5l45 14q67 -102 96 -212t29 -243q0 -134 -29 -243.5
t-96 -211.5zM507 12h-93q4 101 17 185t37 159t59 146t83 147h-329v77h429v-56q-57 -82 -94 -155.5t-60 -150t-34 -162t-15 -190.5z" />
    <glyph glyph-name="uni247B" unicode="&#x247b;" horiz-adv-x="1000" 
d="M202 -61l-45 -14q-67 102 -96 211.5t-29 243.5q0 133 29 243t96 212l45 -14q-63 -97 -87 -208.5t-24 -232.5q1 -123 24.5 -233.5t86.5 -207.5zM843 -75l-45 14q63 97 86.5 207.5t24.5 233.5q0 121 -24 232.5t-87 208.5l45 14q67 -102 96 -212t29 -243q0 -134 -29 -243.5
t-96 -211.5zM503 -1q-51 0 -93.5 14.5t-73 40.5t-47.5 62t-17 79q0 37 11.5 66.5t30 53t42 41.5t48.5 32v4q-45 32 -73 71.5t-28 96.5q0 41 15 74t42 56t63.5 36t79.5 13q47 0 84 -13.5t63 -38t40 -58t14 -74.5q0 -27 -8.5 -51.5t-23 -47t-32.5 -42.5t-37 -37v-4
q27 -16 50.5 -33t40 -38.5t26 -49.5t9.5 -66q0 -40 -15.5 -74t-44.5 -59t-71 -39.5t-95 -14.5zM549 401q35 37 55 72t20 77q0 51 -32.5 86.5t-90.5 35.5q-48 0 -81 -30t-33 -82q0 -30 12 -53t33.5 -41.5t51 -34t65.5 -30.5zM505 67q64 0 100 33t36 88q0 35 -14 60
t-39.5 44.5t-60 35t-75.5 32.5q-40 -30 -68.5 -66t-28.5 -91q0 -30 11 -55t31 -43t47.5 -28t60.5 -10z" />
    <glyph glyph-name="uni247C" unicode="&#x247c;" horiz-adv-x="1000" 
d="M157 835l45 -14q-63 -97 -87 -208.5t-24 -232.5q1 -123 24.5 -233.5t86.5 -207.5l-45 -14q-67 102 -96 211.5t-29 243.5q0 133 29 243t96 212zM798 821l45 14q67 -102 96 -212t29 -243q0 -134 -29 -243.5t-96 -211.5l-45 14q63 97 86.5 207.5t24.5 233.5q0 121 -24 232.5
t-87 208.5zM283 75l52 57q21 -28 53.5 -42t67.5 -14t66.5 15.5t55.5 51.5t38.5 94.5t16.5 143.5q-32 -43 -77 -66.5t-88 -23.5q-88 0 -142 55.5t-54 164.5q0 51 16.5 93t45 72t66.5 46.5t80 16.5q50 0 93.5 -21.5t76 -64t51 -106.5t18.5 -150q0 -108 -21 -183.5t-57 -123.5
t-82.5 -69.5t-97.5 -21.5q-60 0 -104 21t-74 55zM484 360q33 0 72.5 19.5t74.5 73.5q-9 106 -47.5 160t-101.5 54q-54 0 -88.5 -42t-34.5 -114q0 -75 32.5 -113t92.5 -38z" />
    <glyph glyph-name="uni247D" unicode="&#x247d;" horiz-adv-x="1000" 
d="M843 -75l-45 14q63 97 86.5 207.5t24.5 233.5q0 121 -24 232.5t-87 208.5l45 14q67 -102 96 -212t29 -243q0 -134 -29 -243.5t-96 -211.5zM202 -61l-45 -14q-67 102 -96 211.5t-29 243.5q0 133 29 243t96 212l45 -14q-63 -97 -87 -208.5t-24 -232.5q1 -123 24.5 -233.5
t86.5 -207.5zM642 -1q-39 0 -72 21.5t-56.5 66.5t-37 116t-13.5 170t13.5 168.5t37 113.5t56.5 64t72 20t71.5 -20t56.5 -64t37 -113.5t13 -168.5t-13 -170t-37 -116t-56.5 -66.5t-71.5 -21.5zM293 12v611h-105v51q42 8 73 21.5t58 30.5h46v-714h-72zM642 69q24 0 43 16.5
t33 52.5t21.5 94t7.5 141t-7.5 140t-21.5 92t-33 50t-43 15q-23 0 -42.5 -15t-33.5 -50t-21.5 -92t-7.5 -140t7.5 -141t21.5 -94t33.5 -52.5t42.5 -16.5z" />
    <glyph glyph-name="uni247E" unicode="&#x247e;" horiz-adv-x="1000" 
d="M843 -75l-45 14q63 97 86.5 207.5t24.5 233.5q0 121 -24 232.5t-87 208.5l45 14q67 -102 96 -212t29 -243q0 -134 -29 -243.5t-96 -211.5zM202 -61l-45 -14q-67 102 -96 211.5t-29 243.5q0 133 29 243t96 212l45 -14q-63 -97 -87 -208.5t-24 -232.5q1 -123 24.5 -233.5
t86.5 -207.5zM645 12v611h-104v51q42 8 73 21.5t58 30.5h46v-714h-73zM341 12v611h-105v51q43 8 74 21.5t58 30.5h45v-714h-72z" />
    <glyph glyph-name="uni247F" unicode="&#x247f;" horiz-adv-x="1000" 
d="M843 -75l-45 14q63 97 86.5 207.5t24.5 233.5q0 121 -24 232.5t-87 208.5l45 14q67 -102 96 -212t29 -243q0 -134 -29 -243.5t-96 -211.5zM202 -61l-45 -14q-67 102 -96 211.5t-29 243.5q0 133 29 243t96 212l45 -14q-63 -97 -87 -208.5t-24 -232.5q1 -123 24.5 -233.5
t86.5 -207.5zM465 12v53q129 161 191.5 275t62.5 199q0 61 -24 97t-76 36q-33 0 -62.5 -22t-52.5 -54l-46 43q36 43 74 71.5t92 28.5q78 0 121.5 -53.5t43.5 -144.5q0 -100 -60 -213t-166 -252q27 2 55 4t53 2h141v-70h-347zM293 12v611h-105v51q42 8 73 21.5t58 30.5h46
v-714h-72z" />
    <glyph glyph-name="uni2480" unicode="&#x2480;" horiz-adv-x="1000" 
d="M843 -75l-45 14q63 97 86.5 207.5t24.5 233.5q0 121 -24 232.5t-87 208.5l45 14q67 -102 96 -212t29 -243q0 -134 -29 -243.5t-96 -211.5zM202 -61l-45 -14q-67 102 -96 211.5t-29 243.5q0 133 29 243t96 212l45 -14q-63 -97 -87 -208.5t-24 -232.5q1 -123 24.5 -233.5
t86.5 -207.5zM684 389v-4q27 -8 51.5 -23.5t42.5 -38.5t28.5 -53t10.5 -68q0 -48 -15 -85.5t-40.5 -63.5t-60 -40t-73.5 -14q-66 0 -110.5 27t-71.5 61l42 52q24 -29 56.5 -49.5t80.5 -20.5q49 0 84 34.5t35 97.5q0 69 -43 109t-140 40v65q44 0 75 11t51 30.5t29 45t9 55.5
q0 54 -27.5 84.5t-72.5 30.5q-32 0 -59.5 -16t-49.5 -43l-46 50q32 34 70 55t86 21q78 0 125 -46t47 -134q0 -66 -31.5 -108t-82.5 -62zM293 12v611h-105v51q42 8 73 21.5t58 30.5h46v-714h-72z" />
    <glyph glyph-name="uni2481" unicode="&#x2481;" horiz-adv-x="1000" 
d="M157 835l45 -14q-63 -97 -87 -208.5t-24 -232.5q1 -123 24.5 -233.5t86.5 -207.5l-45 -14q-67 102 -96 211.5t-29 243.5q0 133 29 243t96 212zM798 821l45 14q67 -102 96 -212t29 -243q0 -134 -29 -243.5t-96 -211.5l-45 14q63 97 86.5 207.5t24.5 233.5q0 121 -24 232.5
t-87 208.5zM188 623v51q42 8 73 21.5t58 30.5h46v-714h-72v611h-105zM819 218h-75v-206h-68v206h-239v53l232 455h75v-443h75v-65zM509 283h167v207q0 29 1 70.5t3 71.5h-4q-11 -29 -21.5 -54t-23.5 -54z" />
    <glyph glyph-name="uni2482" unicode="&#x2482;" horiz-adv-x="1000" 
d="M843 -75l-45 14q63 97 86.5 207.5t24.5 233.5q0 121 -24 232.5t-87 208.5l45 14q67 -102 96 -212t29 -243q0 -134 -29 -243.5t-96 -211.5zM202 -61l-45 -14q-67 102 -96 211.5t-29 243.5q0 133 29 243t96 212l45 -14q-63 -97 -87 -208.5t-24 -232.5q1 -123 24.5 -233.5
t86.5 -207.5zM563 655l-17 -225q21 14 40.5 22t46.5 8q34 0 64.5 -13t53.5 -40t36.5 -68t13.5 -98q0 -58 -15.5 -103.5t-41.5 -76.5t-59.5 -47t-69.5 -16q-33 0 -59.5 7.5t-48 19.5t-39 27.5t-31.5 31.5l42 52q23 -27 52 -48t74 -21q52 0 87.5 46t35.5 125q0 75 -31 118.5
t-80 43.5q-27 0 -46.5 -11.5t-41.5 -31.5l-47 27l21 342h273v-71h-213zM293 12v611h-105v51q42 8 73 21.5t58 30.5h46v-714h-72z" />
    <glyph glyph-name="uni249C" unicode="&#x249c;" horiz-adv-x="1000" 
d="M202 -61l-45 -14q-67 102 -96 211.5t-29 243.5q0 133 29 243t96 212l45 -14q-63 -97 -87 -208.5t-24 -232.5q1 -123 24.5 -233.5t86.5 -207.5zM843 -75l-45 14q63 97 86.5 207.5t24.5 233.5q0 121 -24 232.5t-87 208.5l45 14q67 -102 96 -212t29 -243q0 -134 -29 -243.5
t-96 -211.5zM439 92q-33 0 -61.5 10.5t-49.5 30.5t-33 48.5t-12 65.5q0 88 78 135.5t248 66.5q0 26 -5 50.5t-17 43.5t-33 30.5t-53 11.5q-46 0 -86.5 -18.5t-72.5 -40.5l-36 65q37 25 91 47.5t120 22.5q96 0 140.5 -60.5t44.5 -163.5v-331h-76l-8 64h-4q-38 -32 -81 -55
t-94 -23zM466 168q38 0 71.5 18t71.5 53v148q-66 -8 -110.5 -20t-72 -28.5t-39.5 -37.5t-12 -47q0 -46 26 -66t65 -20z" />
    <glyph glyph-name="uni249D" unicode="&#x249d;" horiz-adv-x="1000" 
d="M202 -61l-45 -14q-67 102 -96 211.5t-29 243.5q0 133 29 243t96 212l45 -14q-63 -97 -87 -208.5t-24 -232.5q1 -123 24.5 -233.5t86.5 -207.5zM843 -75l-45 14q63 97 86.5 207.5t24.5 233.5q0 121 -24 232.5t-87 208.5l45 14q67 -102 96 -212t29 -243q0 -134 -29 -243.5
t-96 -211.5zM528 0q-35 0 -74 17.5t-74 49.5h-2l-9 -53h-75v794h94v-216l-3 -98q36 32 77 53.5t86 21.5q51 0 90 -19.5t66 -55.5t40.5 -86.5t13.5 -113.5q0 -70 -19 -124.5t-50.5 -92t-73 -57.5t-87.5 -20zM513 79q32 0 59 14.5t47 42t31 67t11 89.5q0 90 -31.5 144
t-104.5 54q-64 0 -137 -73v-282q34 -31 66.5 -43.5t58.5 -12.5z" />
    <glyph glyph-name="uni249E" unicode="&#x249e;" horiz-adv-x="1000" 
d="M202 -61l-45 -14q-67 102 -96 211.5t-29 243.5q0 133 29 243t96 212l45 -14q-63 -97 -87 -208.5t-24 -232.5q1 -123 24.5 -233.5t86.5 -207.5zM843 -75l-45 14q63 97 86.5 207.5t24.5 233.5q0 121 -24 232.5t-87 208.5l45 14q67 -102 96 -212t29 -243q0 -134 -29 -243.5
t-96 -211.5zM536 92q-54 0 -100.5 19t-80.5 56t-53.5 90t-19.5 120q0 68 21.5 120.5t57.5 89t83 55.5t99 19q54 0 93 -19.5t66 -45.5l-47 -60q-24 21 -49.5 34.5t-57.5 13.5q-37 0 -68 -15t-53.5 -42.5t-35.5 -65.5t-13 -84t12.5 -84.5t34.5 -65.5t52.5 -42t67.5 -15
q38 0 70 16t57 39l41 -62q-37 -33 -82.5 -52t-94.5 -19z" />
    <glyph glyph-name="uni249F" unicode="&#x249f;" horiz-adv-x="1000" 
d="M202 -61l-45 -14q-67 102 -96 211.5t-29 243.5q0 133 29 243t96 212l45 -14q-63 -97 -87 -208.5t-24 -232.5q1 -123 24.5 -233.5t86.5 -207.5zM843 -75l-45 14q63 97 86.5 207.5t24.5 233.5q0 121 -24 232.5t-87 208.5l45 14q67 -102 96 -212t29 -243q0 -134 -29 -243.5
t-96 -211.5zM460 0q-49 0 -89 19t-68.5 55.5t-44 89.5t-15.5 120q0 66 19 119t50.5 89.5t72.5 56.5t86 20t78.5 -16t67.5 -45l-4 91v209h95v-794h-78l-9 63h-2q-30 -32 -70.5 -54.5t-88.5 -22.5zM481 79q68 0 132 73v283q-33 30 -63 42.5t-62 12.5q-31 0 -58 -14.5
t-46.5 -41.5t-31 -64.5t-11.5 -84.5q0 -100 35.5 -153t104.5 -53z" />
    <glyph glyph-name="uni24A0" unicode="&#x24a0;" horiz-adv-x="1000" 
d="M202 -61l-45 -14q-67 102 -96 211.5t-29 243.5q0 133 29 243t96 212l45 -14q-63 -97 -87 -208.5t-24 -232.5q1 -123 24.5 -233.5t86.5 -207.5zM843 -75l-45 14q63 97 86.5 207.5t24.5 233.5q0 121 -24 232.5t-87 208.5l45 14q67 -102 96 -212t29 -243q0 -134 -29 -243.5
t-96 -211.5zM535 92q-52 0 -98.5 19.5t-81 56t-54.5 89.5t-20 120q0 66 20 118.5t53 89.5t76 56.5t89 19.5q50 0 89 -18t66 -51t41 -80t14 -105q0 -14 -0.5 -27.5t-2.5 -23.5h-352q5 -88 51 -138.5t121 -50.5q38 0 68.5 11.5t59.5 31.5l34 -61q-35 -24 -77 -40.5t-96 -16.5z
M372 418h275q0 85 -33 127t-94 42q-27 0 -52 -11.5t-45 -33t-33.5 -53t-17.5 -71.5z" />
    <glyph glyph-name="uni24A1" unicode="&#x24a1;" horiz-adv-x="1000" 
d="M157 835l45 -14q-63 -97 -87 -208.5t-24 -232.5q1 -123 24.5 -233.5t86.5 -207.5l-45 -14q-67 102 -96 211.5t-29 243.5q0 133 29 243t96 212zM798 821l45 14q67 -102 96 -212t29 -243q0 -134 -29 -243.5t-96 -211.5l-45 14q63 97 86.5 207.5t24.5 233.5q0 121 -24 232.5
t-87 208.5zM398 556v84q0 84 38 132.5t122 48.5q25 0 48.5 -5.5t42.5 -13.5l-20 -71q-37 14 -61 14q-76 0 -76 -105v-84h115v-76h-115v-466h-94v466h-74v71z" />
    <glyph glyph-name="uni24A2" unicode="&#x24a2;" horiz-adv-x="1000" 
d="M202 -61l-45 -14q-67 102 -96 211.5t-29 243.5q0 133 29 243t96 212l45 -14q-63 -97 -87 -208.5t-24 -232.5q1 -123 24.5 -233.5t86.5 -207.5zM843 -75l-45 14q63 97 86.5 207.5t24.5 233.5q0 121 -24 232.5t-87 208.5l45 14q67 -102 96 -212t29 -243q0 -134 -29 -243.5
t-96 -211.5zM493 -31q-45 0 -82.5 9t-64 26t-41.5 43t-15 59q0 32 18.5 62t51.5 52v4q-20 14 -34 34.5t-14 50.5q0 32 19.5 56.5t39.5 39.5v4q-26 21 -48 57t-22 84q0 44 15 78.5t41 58.5t60.5 37t72.5 13q40 0 65 -13h180v-72h-103q17 -17 29.5 -44.5t12.5 -59.5
q0 -43 -14 -77t-39 -58t-58.5 -36.5t-72.5 -12.5q-12 0 -30.5 4t-35.5 12q-13 -11 -23 -23.5t-10 -32.5q0 -23 17.5 -38t65.5 -15h81q91 0 135.5 -29.5t44.5 -93.5q0 -36 -17 -68.5t-48.5 -57t-76 -39t-100.5 -14.5zM490 427v-1q45 0 73.5 33.5t28.5 90.5t-28.5 88.5
t-73.5 31.5q-42 0 -71.5 -31.5t-29.5 -88.5t29.5 -90t71.5 -33zM506 33q32 0 57 8.5t43 22.5t27.5 31.5t9.5 36.5q0 35 -25.5 48t-73.5 13h-68q-11 0 -27 1.5t-32 6.5q-24 -18 -34 -40t-10 -43q0 -39 35 -62t98 -23z" />
    <glyph glyph-name="uni24A3" unicode="&#x24a3;" horiz-adv-x="1000" 
d="M202 -61l-45 -14q-67 102 -96 211.5t-29 243.5q0 133 29 243t96 212l45 -14q-63 -97 -87 -208.5t-24 -232.5q1 -123 24.5 -233.5t86.5 -207.5zM843 -75l-45 14q63 97 86.5 207.5t24.5 233.5q0 121 -24 232.5t-87 208.5l45 14q67 -102 96 -212t29 -243q0 -134 -29 -243.5
t-96 -211.5zM293 14v794h94v-216l-4 -112q39 37 80.5 63t97.5 26q85 0 123 -53t38 -159v-343h-93v331q0 75 -23 109.5t-75 34.5q-42 0 -73 -21.5t-71 -61.5v-392h-94z" />
    <glyph glyph-name="uni24A4" unicode="&#x24a4;" horiz-adv-x="1000" 
d="M202 -61l-45 -14q-67 102 -96 211.5t-29 243.5q0 133 29 243t96 212l45 -14q-63 -97 -87 -208.5t-24 -232.5q1 -123 24.5 -233.5t86.5 -207.5zM843 -75l-45 14q63 97 86.5 207.5t24.5 233.5q0 121 -24 232.5t-87 208.5l45 14q67 -102 96 -212t29 -243q0 -134 -29 -243.5
t-96 -211.5zM501 666q-28 0 -46.5 17.5t-18.5 43.5q0 27 18.5 43.5t46.5 16.5q26 0 45 -16.5t19 -43.5q0 -26 -19 -43.5t-45 -17.5zM452 14v542h95v-542h-95z" />
    <glyph glyph-name="uni24A5" unicode="&#x24a5;" horiz-adv-x="1000" 
d="M520 747q-28 0 -46 17t-18 43q0 28 18 44.5t46 16.5q27 0 45.5 -16.5t18.5 -44.5q0 -26 -18.5 -43t-45.5 -17zM202 -61l-45 -14q-67 102 -96 211.5t-29 243.5q0 133 29 243t96 212l45 -14q-63 -97 -87 -208.5t-24 -232.5q1 -123 24.5 -233.5t86.5 -207.5zM843 -75l-45 14
q63 97 86.5 207.5t24.5 233.5q0 121 -24 232.5t-87 208.5l45 14q67 -102 96 -212t29 -243q0 -134 -29 -243.5t-96 -211.5zM416 -148q-25 0 -45.5 4.5t-34.5 9.5l18 72q11 -4 24.5 -6.5t27.5 -2.5q42 0 54.5 28.5t12.5 77.5v601h93v-601q0 -84 -34 -133.5t-116 -49.5z" />
    <glyph glyph-name="uni24A6" unicode="&#x24a6;" horiz-adv-x="1000" 
d="M202 -61l-45 -14q-67 102 -96 211.5t-29 243.5q0 133 29 243t96 212l45 -14q-63 -97 -87 -208.5t-24 -232.5q1 -123 24.5 -233.5t86.5 -207.5zM843 -75l-45 14q63 97 86.5 207.5t24.5 233.5q0 121 -24 232.5t-87 208.5l45 14q67 -102 96 -212t29 -243q0 -134 -29 -243.5
t-96 -211.5zM301 14v794h92v-535h4l217 283h104l-172 -218l196 -324h-103l-147 259l-99 -117v-142h-92z" />
    <glyph glyph-name="uni24A7" unicode="&#x24a7;" horiz-adv-x="1000" 
d="M202 -61l-45 -14q-67 102 -96 211.5t-29 243.5q0 133 29 243t96 212l45 -14q-63 -97 -87 -208.5t-24 -232.5q1 -123 24.5 -233.5t86.5 -207.5zM843 -75l-45 14q63 97 86.5 207.5t24.5 233.5q0 121 -24 232.5t-87 208.5l45 14q67 -102 96 -212t29 -243q0 -134 -29 -243.5
t-96 -211.5zM547 0q-54 0 -76.5 32.5t-22.5 92.5v683h95v-690q0 -22 7.5 -31t17.5 -9h8t12 2l13 -71q-11 -3 -23 -6t-31 -3z" />
    <glyph glyph-name="uni24A8" unicode="&#x24a8;" horiz-adv-x="1000" 
d="M202 -61l-45 -14q-67 102 -96 211.5t-29 243.5q0 133 29 243t96 212l45 -14q-63 -97 -87 -208.5t-24 -232.5q1 -123 24.5 -233.5t86.5 -207.5zM843 -75l-45 14q63 97 86.5 207.5t24.5 233.5q0 121 -24 232.5t-87 208.5l45 14q67 -102 96 -212t29 -243q0 -134 -29 -243.5
t-96 -211.5zM218 106v542h68l8 -58h3q26 30 57 50.5t68 20.5q45 0 69.5 -22t37.5 -60q31 37 63 59.5t74 22.5q122 0 122 -186v-369h-83v357q0 63 -15 90.5t-47 27.5q-26 0 -49 -15.5t-49 -47.5v-412h-81v357q0 63 -16 90.5t-48 27.5q-28 0 -49.5 -15.5t-47.5 -47.5v-412h-85
z" />
    <glyph glyph-name="uni24A9" unicode="&#x24a9;" horiz-adv-x="1000" 
d="M202 -61l-45 -14q-67 102 -96 211.5t-29 243.5q0 133 29 243t96 212l45 -14q-63 -97 -87 -208.5t-24 -232.5q1 -123 24.5 -233.5t86.5 -207.5zM843 -75l-45 14q63 97 86.5 207.5t24.5 233.5q0 121 -24 232.5t-87 208.5l45 14q67 -102 96 -212t29 -243q0 -134 -29 -243.5
t-96 -211.5zM289 106v542h77l9 -76h3q38 38 80 63.5t99 25.5q85 0 123.5 -53.5t38.5 -156.5v-345h-94v333q0 75 -23 108.5t-75 33.5q-42 0 -73 -20.5t-70 -60.5v-394h-95z" />
    <glyph glyph-name="uni24AA" unicode="&#x24aa;" horiz-adv-x="1000" 
d="M202 -61l-45 -14q-67 102 -96 211.5t-29 243.5q0 133 29 243t96 212l45 -14q-63 -97 -87 -208.5t-24 -232.5q1 -123 24.5 -233.5t86.5 -207.5zM843 -75l-45 14q63 97 86.5 207.5t24.5 233.5q0 121 -24 232.5t-87 208.5l45 14q67 -102 96 -212t29 -243q0 -134 -29 -243.5
t-96 -211.5zM500 92q-49 0 -94 19t-79.5 56t-55 90t-20.5 120q0 68 20.5 120.5t55 89t79.5 55.5t94 19t94 -19t79 -55.5t54.5 -89t20.5 -120.5q0 -67 -20.5 -120t-54.5 -90t-79 -56t-94 -19zM500 170q34 0 62 15t48 42t31 65.5t11 84.5t-11 84t-31 65.5t-48 42.5t-62 15
t-62 -15t-48.5 -42.5t-31.5 -65.5t-11 -84t11 -84.5t31.5 -65.5t48.5 -42t62 -15z" />
    <glyph glyph-name="uni24AB" unicode="&#x24ab;" horiz-adv-x="1000" 
d="M202 -61l-45 -14q-67 102 -96 211.5t-29 243.5q0 133 29 243t96 212l45 -14q-63 -97 -87 -208.5t-24 -232.5q1 -123 24.5 -233.5t86.5 -207.5zM843 -75l-45 14q63 97 86.5 207.5t24.5 233.5q0 121 -24 232.5t-87 208.5l45 14q67 -102 96 -212t29 -243q0 -134 -29 -243.5
t-96 -211.5zM291 -7v731h77l9 -62h2q37 31 80 53t89 22q53 0 92.5 -19.5t66.5 -55.5t40.5 -86.5t13.5 -113.5q0 -70 -19 -124.5t-51.5 -92t-74.5 -57t-88 -19.5q-35 0 -72 16t-74 46l3 -94v-144h-94zM513 247q32 0 59.5 14.5t47.5 42t31.5 67t11.5 89.5q0 45 -7.5 81.5
t-24 62.5t-42.5 40.5t-64 14.5q-33 0 -67 -19t-73 -54v-283q35 -30 68 -43t60 -13z" />
    <glyph glyph-name="uni24AC" unicode="&#x24ac;" horiz-adv-x="1000" 
d="M202 -61l-45 -14q-67 102 -96 211.5t-29 243.5q0 133 29 243t96 212l45 -14q-63 -97 -87 -208.5t-24 -232.5q1 -123 24.5 -233.5t86.5 -207.5zM843 -75l-45 14q63 97 86.5 207.5t24.5 233.5q0 121 -24 232.5t-87 208.5l45 14q67 -102 96 -212t29 -243q0 -134 -29 -243.5
t-96 -211.5zM615 -7v153l5 96q-32 -30 -73 -51.5t-87 -21.5q-49 0 -90 19t-70 55t-45 89t-16 121q0 66 19 118.5t51 89.5t74 56.5t88 19.5t81 -16t71 -48h3l8 51h76v-731h-95zM481 247q36 0 68.5 18t65.5 56v283q-34 29 -65 42t-63 13q-31 0 -58.5 -15t-48 -42t-32 -65
t-11.5 -84q0 -100 37 -153t107 -53z" />
    <glyph glyph-name="uni24AD" unicode="&#x24ad;" horiz-adv-x="1000" 
d="M202 -61l-45 -14q-67 102 -96 211.5t-29 243.5q0 133 29 243t96 212l45 -14q-63 -97 -87 -208.5t-24 -232.5q1 -123 24.5 -233.5t86.5 -207.5zM843 -75l-45 14q63 97 86.5 207.5t24.5 233.5q0 121 -24 232.5t-87 208.5l45 14q67 -102 96 -212t29 -243q0 -134 -29 -243.5
t-96 -211.5zM372 106v542h78l8 -98h4q28 52 68 81.5t86 29.5q18 0 31 -2t27 -9l-19 -82q-13 5 -24 7t-28 2q-34 0 -71.5 -27.5t-64.5 -96.5v-347h-95z" />
    <glyph glyph-name="uni24AE" unicode="&#x24ae;" horiz-adv-x="1000" 
d="M202 -61l-45 -14q-67 102 -96 211.5t-29 243.5q0 133 29 243t96 212l45 -14q-63 -97 -87 -208.5t-24 -232.5q1 -123 24.5 -233.5t86.5 -207.5zM843 -75l-45 14q63 97 86.5 207.5t24.5 233.5q0 121 -24 232.5t-87 208.5l45 14q67 -102 96 -212t29 -243q0 -134 -29 -243.5
t-96 -211.5zM500 92q-58 0 -111 22t-91 55l45 61q36 -29 72.5 -46.5t87.5 -17.5q54 0 79.5 24t25.5 58q0 21 -10.5 36.5t-28 27.5t-39.5 21.5t-45 17.5q-29 10 -58 23t-52 31t-37.5 43t-14.5 59q0 33 13 61t37 48.5t59 32.5t79 12q51 0 94.5 -17.5t74.5 -42.5l-45 -60
q-28 20 -57.5 34t-64.5 14q-51 0 -75 -23.5t-24 -53.5q0 -19 10 -33t26.5 -24.5t38.5 -19t45 -16.5q29 -11 58.5 -23.5t53 -31.5t38.5 -45.5t15 -65.5q0 -33 -13 -62.5t-38.5 -51t-62.5 -34.5t-85 -13z" />
    <glyph glyph-name="uni24AF" unicode="&#x24af;" horiz-adv-x="1000" 
d="M202 -61l-45 -14q-67 102 -96 211.5t-29 243.5q0 133 29 243t96 212l45 -14q-63 -97 -87 -208.5t-24 -232.5q1 -123 24.5 -233.5t86.5 -207.5zM843 -75l-45 14q63 97 86.5 207.5t24.5 233.5q0 121 -24 232.5t-87 208.5l45 14q67 -102 96 -212t29 -243q0 -134 -29 -243.5
t-96 -211.5zM573 49q-43 0 -73 13t-48.5 37t-26.5 57.5t-8 74.5v297h-80v71l85 5l11 152h78v-152h147v-76h-147v-299q0 -51 18.5 -77.5t64.5 -26.5q14 0 31.5 4.5t30.5 10.5l18 -71q-23 -8 -49 -14t-52 -6z" />
    <glyph glyph-name="uni24B0" unicode="&#x24b0;" horiz-adv-x="1000" 
d="M202 -61l-45 -14q-67 102 -96 211.5t-29 243.5q0 133 29 243t96 212l45 -14q-63 -97 -87 -208.5t-24 -232.5q1 -123 24.5 -233.5t86.5 -207.5zM843 -75l-45 14q63 97 86.5 207.5t24.5 233.5q0 121 -24 232.5t-87 208.5l45 14q67 -102 96 -212t29 -243q0 -134 -29 -243.5
t-96 -211.5zM447 92q-85 0 -124.5 53.5t-39.5 156.5v346h94v-333q0 -75 23.5 -108t75.5 -33q40 0 71 20.5t69 68.5v385h94v-542h-77l-9 83h-3q-37 -45 -78.5 -71t-95.5 -26z" />
    <glyph glyph-name="uni24B1" unicode="&#x24b1;" horiz-adv-x="1000" 
d="M202 -61l-45 -14q-67 102 -96 211.5t-29 243.5q0 133 29 243t96 212l45 -14q-63 -97 -87 -208.5t-24 -232.5q1 -123 24.5 -233.5t86.5 -207.5zM843 -75l-45 14q63 97 86.5 207.5t24.5 233.5q0 121 -24 232.5t-87 208.5l45 14q67 -102 96 -212t29 -243q0 -134 -29 -243.5
t-96 -211.5zM447 106l-195 542h97l101 -306q13 -40 25.5 -81t25.5 -79h4q12 38 25 79t24 81l102 306h92l-191 -542h-110z" />
    <glyph glyph-name="uni24B2" unicode="&#x24b2;" horiz-adv-x="1000" 
d="M202 -61l-45 -14q-67 102 -96 211.5t-29 243.5q0 133 29 243t96 212l45 -14q-63 -97 -87 -208.5t-24 -232.5q1 -123 24.5 -233.5t86.5 -207.5zM843 -75l-45 14q63 97 86.5 207.5t24.5 233.5q0 121 -24 232.5t-87 208.5l45 14q67 -102 96 -212t29 -243q0 -134 -29 -243.5
t-96 -211.5zM291 106l-125 542h90l65 -311q8 -39 14 -76.5t14 -75.5h4q9 38 15.5 75.5t15.5 76.5l73 311h92l72 -311q9 -38 16 -76t16 -76h4q8 38 15 75.5t15 76.5l63 311h84l-121 -542h-113l-67 289q-9 39 -16 77t-15 80h-5q-8 -42 -14.5 -81t-16.5 -77l-64 -288h-111z" />
    <glyph glyph-name="uni24B3" unicode="&#x24b3;" horiz-adv-x="1000" 
d="M202 -61l-45 -14q-67 102 -96 211.5t-29 243.5q0 133 29 243t96 212l45 -14q-63 -97 -87 -208.5t-24 -232.5q1 -123 24.5 -233.5t86.5 -207.5zM843 -75l-45 14q63 97 86.5 207.5t24.5 233.5q0 121 -24 232.5t-87 208.5l45 14q67 -102 96 -212t29 -243q0 -134 -29 -243.5
t-96 -211.5zM266 106l177 283l-164 259h102l72 -118q12 -22 25.5 -44.5t27.5 -45.5h4q13 23 24.5 45.5t24.5 44.5l65 118h99l-164 -269l176 -273h-102l-79 125q-14 24 -28.5 49t-29.5 48h-5q-14 -23 -27 -47.5t-27 -49.5l-73 -125h-98z" />
    <glyph glyph-name="uni24B4" unicode="&#x24b4;" horiz-adv-x="1000" 
d="M202 -61l-45 -14q-67 102 -96 211.5t-29 243.5q0 133 29 243t96 212l45 -14q-63 -97 -87 -208.5t-24 -232.5q1 -123 24.5 -233.5t86.5 -207.5zM843 -75l-45 14q63 97 86.5 207.5t24.5 233.5q0 121 -24 232.5t-87 208.5l45 14q67 -102 96 -212t29 -243q0 -134 -29 -243.5
t-96 -211.5zM353 -11q-34 0 -70 11l18 75q10 -3 23 -5.5t24 -2.5q45 0 72 20.5t38 57.5l10 36l-216 543h97l108 -297q14 -36 26.5 -76t26.5 -78h4q12 37 23.5 77t22.5 77l94 297h92l-202 -582q-12 -34 -28 -62t-38.5 -48t-53 -31.5t-71.5 -11.5z" />
    <glyph glyph-name="uni24B5" unicode="&#x24b5;" horiz-adv-x="1000" 
d="M202 -61l-45 -14q-67 102 -96 211.5t-29 243.5q0 133 29 243t96 212l45 -14q-63 -97 -87 -208.5t-24 -232.5q1 -123 24.5 -233.5t86.5 -207.5zM843 -75l-45 14q63 97 86.5 207.5t24.5 233.5q0 121 -24 232.5t-87 208.5l45 14q67 -102 96 -212t29 -243q0 -134 -29 -243.5
t-96 -211.5zM298 106v50l283 416h-251v76h370v-50l-284 -416h293v-76h-411z" />
    <glyph glyph-name="uni24D0" unicode="&#x24d0;" horiz-adv-x="1000" 
d="M500 -86q-96 0 -181 36.5t-148.5 100t-100 148.5t-36.5 181t36.5 181t100 148.5t148.5 100t181 36.5t181 -36.5t148.5 -100t100 -148.5t36.5 -181q0 -97 -37 -182t-100.5 -148t-148 -99.5t-180.5 -36.5zM500 -54q90 0 169 34t138 93t93 138t34 169t-34 169t-93 138
t-138 93t-169 34q-91 0 -170 -34.5t-137.5 -93.5t-92.5 -138t-34 -168q0 -90 34 -169t93 -138t138 -93t169 -34zM460 185q-49 0 -79 29t-30 77q0 60 52.5 91t167.5 42q-1 35 -14.5 58t-52.5 23q-29 0 -59.5 -12t-53.5 -26l-25 49q27 17 65.5 32t83.5 15q66 0 97 -39t31 -111
v-219h-57l-8 42h-5q-22 -20 -50 -35.5t-63 -15.5zM482 242q42 0 89 44v93q-84 -8 -117.5 -30t-33.5 -52q0 -29 16.5 -42t45.5 -13z" />
    <glyph glyph-name="uni24D1" unicode="&#x24d1;" horiz-adv-x="1000" 
d="M500 -86q-96 0 -181 36.5t-148.5 100t-100 148.5t-36.5 181t36.5 181t100 148.5t148.5 100t181 36.5t181 -36.5t148.5 -100t100 -148.5t36.5 -181q0 -97 -37 -182t-100.5 -148t-148 -99.5t-180.5 -36.5zM500 -54q90 0 169 34t138 93t93 138t34 169t-34 169t-93 138
t-138 93t-169 34q-91 0 -170 -34.5t-137.5 -93.5t-92.5 -138t-34 -168q0 -90 34 -169t93 -138t138 -93t169 -34zM535 141q-24 0 -50.5 11.5t-49.5 33.5h-5l-8 -36h-53v523h70v-140l-3 -64q25 21 52 35.5t59 14.5q70 0 107 -48.5t37 -133.5q0 -47 -12.5 -83.5t-34 -61.5
t-49.5 -38t-60 -13zM525 200q40 0 67 34.5t27 100.5q0 60 -21.5 92.5t-67.5 32.5q-45 0 -91 -46v-180q22 -18 44.5 -26t41.5 -8z" />
    <glyph glyph-name="uni24D2" unicode="&#x24d2;" horiz-adv-x="1000" 
d="M500 -86q-96 0 -181 36.5t-148.5 100t-100 148.5t-36.5 181t36.5 181t100 148.5t148.5 100t181 36.5t181 -36.5t148.5 -100t100 -148.5t36.5 -181q0 -97 -37 -182t-100.5 -148t-148 -99.5t-180.5 -36.5zM500 -54q90 0 169 34t138 93t93 138t34 169t-34 169t-93 138
t-138 93t-169 34q-91 0 -170 -34.5t-137.5 -93.5t-92.5 -138t-34 -168q0 -90 34 -169t93 -138t138 -93t169 -34zM518 185q-37 0 -69 12.5t-55 37t-36 60t-13 80.5q0 44 14.5 79t38.5 59t56 37t67 13q39 0 66 -12.5t44 -26.5l-34 -46q-17 14 -33 20.5t-40 6.5
q-46 0 -76 -36.5t-30 -93.5q0 -60 29.5 -95.5t77.5 -35.5q28 0 47.5 8.5t34.5 21.5l29 -46q-19 -16 -47.5 -29.5t-70.5 -13.5z" />
    <glyph glyph-name="uni24D3" unicode="&#x24d3;" horiz-adv-x="1000" 
d="M500 -86q-96 0 -181 36.5t-148.5 100t-100 148.5t-36.5 181t36.5 181t100 148.5t148.5 100t181 36.5t181 -36.5t148.5 -100t100 -148.5t36.5 -181q0 -97 -37 -182t-100.5 -148t-148 -99.5t-180.5 -36.5zM500 -54q90 0 169 34t138 93t93 138t34 169t-34 169t-93 138
t-138 93t-169 34q-91 0 -170 -34.5t-137.5 -93.5t-92.5 -138t-34 -168q0 -90 34 -169t93 -138t138 -93t169 -34zM478 141q-72 0 -112.5 51t-40.5 145q0 42 13 75.5t35 57.5t50 36.5t58 12.5t54 -11t47 -30l-4 63v132h70v-523h-57l-7 39h-3q-22 -19 -47 -33.5t-56 -14.5z
M494 200q22 0 42 11.5t42 33.5v180q-23 20 -44 28t-41 8q-39 0 -66.5 -33.5t-27.5 -90.5q0 -66 23 -101.5t72 -35.5z" />
    <glyph glyph-name="uni24D4" unicode="&#x24d4;" horiz-adv-x="1000" 
d="M500 -86q-96 0 -181 36.5t-148.5 100t-100 148.5t-36.5 181t36.5 181t100 148.5t148.5 100t181 36.5t181 -36.5t148.5 -100t100 -148.5t36.5 -181q0 -97 -37 -182t-100.5 -148t-148 -99.5t-180.5 -36.5zM500 -54q90 0 169 34t138 93t93 138t34 169t-34 169t-93 138
t-138 93t-169 34q-91 0 -170 -34.5t-137.5 -93.5t-92.5 -138t-34 -168q0 -90 34 -169t93 -138t138 -93t169 -34zM520 185q-36 0 -68.5 12.5t-56.5 37t-38 60t-14 80.5q0 44 13.5 78.5t36.5 59t53.5 37.5t64.5 13q42 0 70.5 -16t45.5 -40t24.5 -53.5t7.5 -56.5
q0 -11 -1 -18.5t-3 -20.5h-242q3 -55 33.5 -85.5t81.5 -30.5q26 0 49 8t42 20l27 -45q-26 -16 -57 -28t-69 -12zM413 403h184q0 19 -4.5 37.5t-14.5 33t-26 23.5t-40 9q-42 0 -67.5 -26t-31.5 -77z" />
    <glyph glyph-name="uni24D5" unicode="&#x24d5;" horiz-adv-x="1000" 
d="M500 846q96 0 181 -36.5t148.5 -100t100 -148.5t36.5 -181q0 -97 -37 -182t-100.5 -148t-148 -99.5t-180.5 -36.5t-181 36.5t-148.5 100t-100 148.5t-36.5 181t36.5 181t100 148.5t148.5 100t181 36.5zM500 -54q90 0 169 34t138 93t93 138t34 169t-34 169t-93 138
t-138 93t-169 34q-91 0 -170 -34.5t-137.5 -93.5t-92.5 -138t-34 -168q0 -90 34 -169t93 -138t138 -93t169 -34zM441 510v45q0 56 25.5 93.5t85.5 37.5q20 0 35 -3t30 -9l-15 -53q-8 3 -18 5.5t-23 2.5q-26 0 -38 -18.5t-12 -50.5v-50h76v-56h-76v-304h-70v304h-51v53z" />
    <glyph glyph-name="uni24D6" unicode="&#x24d6;" horiz-adv-x="1000" 
d="M500 -86q-96 0 -181 36.5t-148.5 100t-100 148.5t-36.5 181t36.5 181t100 148.5t148.5 100t181 36.5t181 -36.5t148.5 -100t100 -148.5t36.5 -181q0 -97 -37 -182t-100.5 -148t-148 -99.5t-180.5 -36.5zM500 -54q90 0 169 34t138 93t93 138t34 169t-34 169t-93 138
t-138 93t-169 34q-91 0 -170 -34.5t-137.5 -93.5t-92.5 -138t-34 -168q0 -90 34 -169t93 -138t138 -93t169 -34zM492 88q-67 0 -108 24t-41 72q0 49 51 77v4q-14 9 -23 23.5t-9 36.5q0 21 12 37.5t28 27.5v5q-20 13 -33.5 37.5t-13.5 56.5q0 31 11 55t30 40.5t44.5 25.5
t53.5 9q26 0 57 -11h124v-54h-70q12 -10 19 -28t7 -38q0 -30 -11 -53t-29.5 -39t-43.5 -24.5t-53 -8.5q-12 0 -25.5 2t-27.5 9q-8 -8 -14.5 -16.5t-6.5 -21.5q0 -17 13.5 -26t48.5 -9h70q66 0 97 -20t31 -68q0 -25 -13 -48t-37.5 -40t-59 -27t-78.5 -10zM494 410
q31 0 52.5 21.5t21.5 57.5q0 38 -21.5 58.5t-52.5 20.5q-32 0 -52.5 -20.5t-20.5 -58.5q0 -36 20.5 -57.5t52.5 -21.5zM503 137q49 0 79 20t30 46q0 23 -17.5 31t-52.5 8h-58q-9 0 -22.5 0.5t-24.5 4.5q-34 -24 -34 -53q0 -28 26 -42.5t74 -14.5z" />
    <glyph glyph-name="uni24D7" unicode="&#x24d7;" horiz-adv-x="1000" 
d="M500 -86q-96 0 -181 36.5t-148.5 100t-100 148.5t-36.5 181t36.5 181t100 148.5t148.5 100t181 36.5t181 -36.5t148.5 -100t100 -148.5t36.5 -181q0 -97 -37 -182t-100.5 -148t-148 -99.5t-180.5 -36.5zM500 -54q90 0 169 34t138 93t93 138t34 169t-34 169t-93 138
t-138 93t-169 34q-91 0 -170 -34.5t-137.5 -93.5t-92.5 -138t-34 -168q0 -90 34 -169t93 -138t138 -93t169 -34zM358 150v523h69v-139l-3 -74q23 23 53.5 41t67.5 18q62 0 87.5 -39.5t25.5 -102.5v-227h-70v217q0 42 -13 67t-55 25q-21 0 -43 -13t-50 -40v-256h-69z" />
    <glyph glyph-name="uni24D8" unicode="&#x24d8;" horiz-adv-x="1000" 
d="M500 -86q-96 0 -181 36.5t-148.5 100t-100 148.5t-36.5 181t36.5 181t100 148.5t148.5 100t181 36.5t181 -36.5t148.5 -100t100 -148.5t36.5 -181q0 -97 -37 -182t-100.5 -148t-148 -99.5t-180.5 -36.5zM500 -54q90 0 169 34t138 93t93 138t34 169t-34 169t-93 138
t-138 93t-169 34q-91 0 -170 -34.5t-137.5 -93.5t-92.5 -138t-34 -168q0 -90 34 -169t93 -138t138 -93t169 -34zM501 579q-20 0 -33 12t-13 31q0 20 13 32.5t33 12.5q22 0 35 -12.5t13 -32.5q0 -19 -13 -31t-35 -12zM465 150v360h71v-360h-71z" />
    <glyph glyph-name="uni24D9" unicode="&#x24d9;" horiz-adv-x="1000" 
d="M500 -86q-96 0 -181 36.5t-148.5 100t-100 148.5t-36.5 181t36.5 181t100 148.5t148.5 100t181 36.5t181 -36.5t148.5 -100t100 -148.5t36.5 -181q0 -97 -37 -182t-100.5 -148t-148 -99.5t-180.5 -36.5zM500 -54q90 0 169 34t138 93t93 138t34 169t-34 169t-93 138
t-138 93t-169 34q-91 0 -170 -34.5t-137.5 -93.5t-92.5 -138t-34 -168q0 -90 34 -169t93 -138t138 -93t169 -34zM511 619q-20 0 -33 12t-13 31q0 20 13 32.5t33 12.5q22 0 35.5 -12.5t13.5 -32.5q0 -19 -13.5 -31t-35.5 -12zM441 30q-18 0 -30 2t-24 7l13 55q8 -3 15 -4.5
t18 -1.5q26 0 34 17t8 49v396h70v-392q0 -60 -23.5 -94t-80.5 -34z" />
    <glyph glyph-name="uni24DA" unicode="&#x24da;" horiz-adv-x="1000" 
d="M500 -86q-96 0 -181 36.5t-148.5 100t-100 148.5t-36.5 181t36.5 181t100 148.5t148.5 100t181 36.5t181 -36.5t148.5 -100t100 -148.5t36.5 -181q0 -97 -37 -182t-100.5 -148t-148 -99.5t-180.5 -36.5zM500 -54q90 0 169 34t138 93t93 138t34 169t-34 169t-93 138
t-138 93t-169 34q-91 0 -170 -34.5t-137.5 -93.5t-92.5 -138t-34 -168q0 -90 34 -169t93 -138t138 -93t169 -34zM373 150v523h69v-341h5l144 178h80l-125 -147l139 -213h-77l-104 165l-62 -74v-91h-69z" />
    <glyph glyph-name="uni24DB" unicode="&#x24db;" horiz-adv-x="1000" 
d="M500 -86q-96 0 -181 36.5t-148.5 100t-100 148.5t-36.5 181t36.5 181t100 148.5t148.5 100t181 36.5t181 -36.5t148.5 -100t100 -148.5t36.5 -181q0 -97 -37 -182t-100.5 -148t-148 -99.5t-180.5 -36.5zM500 -54q90 0 169 34t138 93t93 138t34 169t-34 169t-93 138
t-138 93t-169 34q-91 0 -170 -34.5t-137.5 -93.5t-92.5 -138t-34 -168q0 -90 34 -169t93 -138t138 -93t169 -34zM530 141q-42 0 -58 24t-16 69v439h70v-445q0 -16 5.5 -22t13.5 -6h7t8 2l10 -54q-8 -2 -17 -4.5t-23 -2.5z" />
    <glyph glyph-name="uni24DC" unicode="&#x24dc;" horiz-adv-x="1000" 
d="M500 -86q-96 0 -181 36.5t-148.5 100t-100 148.5t-36.5 181t36.5 181t100 148.5t148.5 100t181 36.5t181 -36.5t148.5 -100t100 -148.5t36.5 -181q0 -97 -37 -182t-100.5 -148t-148 -99.5t-180.5 -36.5zM500 -54q90 0 169 34t138 93t93 138t34 169t-34 169t-93 138
t-138 93t-169 34q-91 0 -170 -34.5t-137.5 -93.5t-92.5 -138t-34 -168q0 -90 34 -169t93 -138t138 -93t169 -34zM246 194v360h57l7 -51h2q23 25 50 42.5t64 17.5q36 0 62 -17t38 -51q26 27 55.5 47.5t65.5 20.5q60 0 86 -39.5t26 -102.5v-227h-70v217q0 42 -13.5 67
t-52.5 25q-19 0 -39 -12.5t-46 -39.5v-257h-71v217q0 42 -13.5 67t-51.5 25q-20 0 -40 -12.5t-46 -39.5v-257h-70z" />
    <glyph glyph-name="uni24DD" unicode="&#x24dd;" horiz-adv-x="1000" 
d="M500 -86q-96 0 -181 36.5t-148.5 100t-100 148.5t-36.5 181t36.5 181t100 148.5t148.5 100t181 36.5t181 -36.5t148.5 -100t100 -148.5t36.5 -181q0 -97 -37 -182t-100.5 -148t-148 -99.5t-180.5 -36.5zM500 -54q90 0 169 34t138 93t93 138t34 169t-34 169t-93 138
t-138 93t-169 34q-91 0 -170 -34.5t-137.5 -93.5t-92.5 -138t-34 -168q0 -90 34 -169t93 -138t138 -93t169 -34zM352 194v360h57l7 -51h2q25 25 55.5 42.5t66.5 17.5q62 0 87.5 -39.5t25.5 -102.5v-227h-70v217q0 42 -12.5 67t-54.5 25q-22 0 -44 -13t-49 -40v-256h-71z" />
    <glyph glyph-name="uni24DE" unicode="&#x24de;" horiz-adv-x="1000" 
d="M500 -86q-96 0 -181 36.5t-148.5 100t-100 148.5t-36.5 181t36.5 181t100 148.5t148.5 100t181 36.5t181 -36.5t148.5 -100t100 -148.5t36.5 -181q0 -97 -37 -182t-100.5 -148t-148 -99.5t-180.5 -36.5zM500 -54q90 0 169 34t138 93t93 138t34 169t-34 169t-93 138
t-138 93t-169 34q-91 0 -170 -34.5t-137.5 -93.5t-92.5 -138t-34 -168q0 -90 34 -169t93 -138t138 -93t169 -34zM499 185q-34 0 -65 13t-54 37.5t-37 59.5t-14 79q0 45 14 80t37 59t54 37t65 13q35 0 66 -13t54 -37t37 -59t14 -80q0 -44 -14 -79t-37 -59.5t-54 -37.5
t-66 -13zM499 244q46 0 72 36t26 94q0 60 -26 95.5t-72 35.5q-45 0 -71 -35.5t-26 -95.5q0 -58 26 -94t71 -36z" />
    <glyph glyph-name="uni24DF" unicode="&#x24df;" horiz-adv-x="1000" 
d="M500 -86q-96 0 -181 36.5t-148.5 100t-100 148.5t-36.5 181t36.5 181t100 148.5t148.5 100t181 36.5t181 -36.5t148.5 -100t100 -148.5t36.5 -181q0 -97 -37 -182t-100.5 -148t-148 -99.5t-180.5 -36.5zM500 -54q90 0 169 34t138 93t93 138t34 169t-34 169t-93 138
t-138 93t-169 34q-91 0 -170 -34.5t-137.5 -93.5t-92.5 -138t-34 -168q0 -90 34 -169t93 -138t138 -93t169 -34zM360 106v504h55l8 -41h4q21 20 49.5 35t60.5 15q72 0 108.5 -48.5t36.5 -133.5q0 -47 -12.5 -83.5t-34 -61.5t-49.5 -38t-59 -13q-24 0 -51.5 11t-49.5 31
l3 -69v-108h-69zM515 300q42 0 68 34.5t26 100.5q0 60 -21 92.5t-67 32.5t-92 -46v-180q23 -18 45 -26t41 -8z" />
    <glyph glyph-name="uni24E0" unicode="&#x24e0;" horiz-adv-x="1000" 
d="M500 -86q-96 0 -181 36.5t-148.5 100t-100 148.5t-36.5 181t36.5 181t100 148.5t148.5 100t181 36.5t181 -36.5t148.5 -100t100 -148.5t36.5 -181q0 -97 -37 -182t-100.5 -148t-148 -99.5t-180.5 -36.5zM500 -54q90 0 169 34t138 93t93 138t34 169t-34 169t-93 138
t-138 93t-169 34q-91 0 -170 -34.5t-137.5 -93.5t-92.5 -138t-34 -168q0 -90 34 -169t93 -138t138 -93t169 -34zM579 106v115l4 65q-20 -20 -46.5 -32.5t-55.5 -12.5q-72 0 -113 49.5t-41 140.5q0 44 13 79t35 59t50.5 37t58.5 13q56 0 101 -45h3l7 36h54v-504h-70zM495 301
q44 0 84 40v183q-21 20 -43 28t-42 8q-18 0 -35.5 -9t-30.5 -25.5t-21 -40.5t-8 -54q0 -61 23.5 -95.5t72.5 -34.5z" />
    <glyph glyph-name="uni24E1" unicode="&#x24e1;" horiz-adv-x="1000" 
d="M500 -86q-96 0 -181 36.5t-148.5 100t-100 148.5t-36.5 181t36.5 181t100 148.5t148.5 100t181 36.5t181 -36.5t148.5 -100t100 -148.5t36.5 -181q0 -97 -37 -182t-100.5 -148t-148 -99.5t-180.5 -36.5zM500 -54q90 0 169 34t138 93t93 138t34 169t-34 169t-93 138
t-138 93t-169 34q-91 0 -170 -34.5t-137.5 -93.5t-92.5 -138t-34 -168q0 -90 34 -169t93 -138t138 -93t169 -34zM413 194v360h56l7 -63h4q41 72 103 72q28 0 41 -7l-13 -64q-7 2 -17 4t-19 2q-24 0 -48.5 -16.5t-42.5 -61.5v-226h-71z" />
    <glyph glyph-name="uni24E2" unicode="&#x24e2;" horiz-adv-x="1000" 
d="M500 -86q-96 0 -181 36.5t-148.5 100t-100 148.5t-36.5 181t36.5 181t100 148.5t148.5 100t181 36.5t181 -36.5t148.5 -100t100 -148.5t36.5 -181q0 -97 -37 -182t-100.5 -148t-148 -99.5t-180.5 -36.5zM500 -54q90 0 169 34t138 93t93 138t34 169t-34 169t-93 138
t-138 93t-169 34q-91 0 -170 -34.5t-137.5 -93.5t-92.5 -138t-34 -168q0 -90 34 -169t93 -138t138 -93t169 -34zM502 185q-39 0 -75.5 14.5t-63.5 34.5l34 47q25 -18 51 -29.5t55 -11.5q32 0 48.5 14.5t16.5 36.5q0 24 -25 37t-55 25q-19 7 -38 16t-34.5 21.5t-25 29.5
t-9.5 40q0 42 33 72.5t91 30.5q39 0 68 -12t52 -29l-35 -45q-20 14 -39 22.5t-43 8.5q-30 0 -44.5 -14t-14.5 -31q0 -24 24 -36t56 -24l38 -16q28 -12 48 -33t20 -58q0 -48 -35 -79.5t-98 -31.5z" />
    <glyph glyph-name="uni24E3" unicode="&#x24e3;" horiz-adv-x="1000" 
d="M500 -86q-96 0 -181 36.5t-148.5 100t-100 148.5t-36.5 181t36.5 181t100 148.5t148.5 100t181 36.5t181 -36.5t148.5 -100t100 -148.5t36.5 -181q0 -97 -37 -182t-100.5 -148t-148 -99.5t-180.5 -36.5zM500 -54q90 0 169 34t138 93t93 138t34 169t-34 169t-93 138
t-138 93t-169 34q-91 0 -170 -34.5t-137.5 -93.5t-92.5 -138t-34 -168q0 -90 34 -169t93 -138t138 -93t169 -34zM541 174q-60 0 -83.5 34.5t-23.5 91.5v185h-54v54l55 3l9 100h59v-100h98v-57h-98v-186q0 -68 56 -68q13 0 40 8l14 -52q-14 -5 -33 -9t-39 -4z" />
    <glyph glyph-name="uni24E4" unicode="&#x24e4;" horiz-adv-x="1000" 
d="M500 -86q-96 0 -181 36.5t-148.5 100t-100 148.5t-36.5 181t36.5 181t100 148.5t148.5 100t181 36.5t181 -36.5t148.5 -100t100 -148.5t36.5 -181q0 -97 -37 -182t-100.5 -148t-148 -99.5t-180.5 -36.5zM500 -54q90 0 169 34t138 93t93 138t34 169t-34 169t-93 138
t-138 93t-169 34q-91 0 -170 -34.5t-137.5 -93.5t-92.5 -138t-34 -168q0 -90 34 -169t93 -138t138 -93t169 -34zM463 185q-63 0 -88.5 39.5t-25.5 101.5v228h71v-217q0 -45 12.5 -67.5t54.5 -22.5q22 0 44.5 12t49.5 39v256h70v-360h-57l-8 50h-3q-23 -23 -53 -41t-67 -18z
" />
    <glyph glyph-name="uni24E5" unicode="&#x24e5;" horiz-adv-x="1000" 
d="M500 -86q-96 0 -181 36.5t-148.5 100t-100 148.5t-36.5 181t36.5 181t100 148.5t148.5 100t181 36.5t181 -36.5t148.5 -100t100 -148.5t36.5 -181q0 -97 -37 -182t-100.5 -148t-148 -99.5t-180.5 -36.5zM500 -54q90 0 169 34t138 93t93 138t34 169t-34 169t-93 138
t-138 93t-169 34q-91 0 -170 -34.5t-137.5 -93.5t-92.5 -138t-34 -168q0 -90 34 -169t93 -138t138 -93t169 -34zM459 194l-129 360h70l65 -196l34 -108h4l99 304h70l-130 -360h-83z" />
    <glyph glyph-name="uni24E6" unicode="&#x24e6;" horiz-adv-x="1000" 
d="M500 -86q-96 0 -181 36.5t-148.5 100t-100 148.5t-36.5 181t36.5 181t100 148.5t148.5 100t181 36.5t181 -36.5t148.5 -100t100 -148.5t36.5 -181q0 -97 -37 -182t-100.5 -148t-148 -99.5t-180.5 -36.5zM500 -54q90 0 169 34t138 93t93 138t34 169t-34 169t-93 138
t-138 93t-169 34q-91 0 -170 -34.5t-137.5 -93.5t-92.5 -138t-34 -168q0 -90 34 -169t93 -138t138 -93t169 -34zM345 194l-99 360h73l48 -199l21 -103h5l23 103l53 199h64l55 -199l26 -103h3l23 103l47 199h68l-97 -360h-85l-48 182l-23 102h-3l-22 -102l-48 -182h-84z" />
    <glyph glyph-name="uni24E7" unicode="&#x24e7;" horiz-adv-x="1000" 
d="M500 -86q-96 0 -181 36.5t-148.5 100t-100 148.5t-36.5 181t36.5 181t100 148.5t148.5 100t181 36.5t181 -36.5t148.5 -100t100 -148.5t36.5 -181q0 -97 -37 -182t-100.5 -148t-148 -99.5t-180.5 -36.5zM500 -54q90 0 169 34t138 93t93 138t34 169t-34 169t-93 138
t-138 93t-169 34q-91 0 -170 -34.5t-137.5 -93.5t-92.5 -138t-34 -168q0 -90 34 -169t93 -138t138 -93t169 -34zM337 194l120 188l-111 172h78l81 -131h4l30 57l41 74h74l-109 -179l117 -181h-77l-87 138h-4l-38 -61l-44 -77h-75z" />
    <glyph glyph-name="uni24E8" unicode="&#x24e8;" horiz-adv-x="1000" 
d="M500 -86q-96 0 -181 36.5t-148.5 100t-100 148.5t-36.5 181t36.5 181t100 148.5t148.5 100t181 36.5t181 -36.5t148.5 -100t100 -148.5t36.5 -181q0 -97 -37 -182t-100.5 -148t-148 -99.5t-180.5 -36.5zM500 -54q90 0 169 34t138 93t93 138t34 169t-34 169t-93 138
t-138 93t-169 34q-91 0 -170 -34.5t-137.5 -93.5t-92.5 -138t-34 -168q0 -90 34 -169t93 -138t138 -93t169 -34zM406 102q-32 0 -46 7l14 56q17 -6 27 -6q29 0 49 20t30 52l7 22l-145 357h71l70 -188q8 -25 17 -50.5t18 -52.5h4q8 26 15.5 51.5t15.5 51.5l58 188h69
l-132 -379q-21 -57 -53 -93t-89 -36z" />
    <glyph glyph-name="uni24E9" unicode="&#x24e9;" horiz-adv-x="1000" 
d="M500 -86q-96 0 -181 36.5t-148.5 100t-100 148.5t-36.5 181t36.5 181t100 148.5t148.5 100t181 36.5t181 -36.5t148.5 -100t100 -148.5t36.5 -181q0 -97 -37 -182t-100.5 -148t-148 -99.5t-180.5 -36.5zM500 -54q90 0 169 34t138 93t93 138t34 169t-34 169t-93 138
t-138 93t-169 34q-91 0 -170 -34.5t-137.5 -93.5t-92.5 -138t-34 -168q0 -90 34 -169t93 -138t138 -93t169 -34zM362 194v39l186 264h-164v57h254v-40l-186 -263h191v-57h-281z" />
    <glyph glyph-name="shade" unicode="&#x2592;" horiz-adv-x="1000" 
d="M1000 630l-250 250h50l200 -200v-50zM1000 380l-500 500h50l450 -450v-50zM1000 130l-750 750h50l700 -700v-50zM1000 -120l-1000 1000h50l950 -950v-50zM750 -120l-750 750v50l800 -800h-50zM500 -120l-500 500v50l550 -550h-50zM250 -120l-250 250v50l300 -300h-50z
M0 -120v50l50 -50h-50z" />
    <glyph glyph-name="filledbox" unicode="&#x25a0;" horiz-adv-x="1000" 
d="M100 780h800v-800h-800v800z" />
    <glyph glyph-name="uni25A1" unicode="&#x25a1;" horiz-adv-x="1000" 
d="M100 780h800v-800h-800v800zM137 743v-726h726v726h-726z" />
    <glyph glyph-name="uni25A3" unicode="&#x25a3;" horiz-adv-x="1000" 
d="M100 780h800v-800h-800v800zM137 743v-726h726v726h-726zM334 214v332h332v-332h-332z" />
    <glyph glyph-name="uni25A4" unicode="&#x25a4;" horiz-adv-x="1000" 
d="M100 780h800v-800h-800v800zM863 743h-726v-153h726v153zM137 399h726v154h-726v-154zM863 361h-726v-154h726v154zM137 17h726v153h-726v-153z" />
    <glyph glyph-name="uni25A5" unicode="&#x25a5;" horiz-adv-x="1000" 
d="M100 780h800v-800h-800v800zM863 17v726h-153v-726h153zM137 743v-726h153v726h-153zM481 17v726h-154v-726h154zM519 743v-726h154v726h-154z" />
    <glyph glyph-name="uni25A6" unicode="&#x25a6;" horiz-adv-x="1000" 
d="M100 780h800v-800h-800v800zM290 743h-153v-153h153v153zM481 590v153h-154v-153h154zM519 590h154v153h-154v-153zM863 590v153h-153v-153h153zM710 399h153v154h-153v-154zM290 399v154h-153v-154h153zM481 553h-154v-154h154v154zM673 553h-154v-154h154v154zM710 361
v-154h153v154h-153zM519 207h154v154h-154v-154zM327 361v-154h154v154h-154zM290 361h-153v-154h153v154zM710 17h153v153h-153v-153zM137 170v-153h153v153h-153zM519 170v-153h154v153h-154zM481 170h-154v-153h154v153z" />
    <glyph glyph-name="uni25A7" unicode="&#x25a7;" horiz-adv-x="1000" 
d="M100 780h800v-800h-800v800zM863 612v131h-131zM863 371l-372 372h-138l510 -510v138zM863 424v135l-184 184h-135zM163 743l700 -701v140l-561 561h-139zM137 577l560 -560h140l-700 700v-140zM137 388l370 -371h139l-509 509v-138zM137 336v-136l182 -183h137zM137 148
v-131h131z" />
    <glyph glyph-name="uni25A8" unicode="&#x25a8;" horiz-adv-x="1000" 
d="M100 780h800v-800h-800v800zM270 743h-133v-133zM701 743l-564 -563v-140l703 703h-139zM137 422l321 321h-136l-185 -185v-136zM510 743l-373 -373v-138l511 511h-138zM306 17l557 558v140l-698 -698h141zM494 17l369 369v138l-506 -507h137zM863 333l-315 -316h135
l180 181v135zM736 17h127v128z" />
    <glyph glyph-name="uni25A9" unicode="&#x25a9;" horiz-adv-x="1000" 
d="M100 780h800v-800h-800v800zM732 743l54 -54l54 54h-108zM596 691l52 52h-104zM406 691l52 52h-105zM216 689l54 54h-107zM501 596l69 69l-69 69l-69 -69zM310 595l70 70l-68 68l-70 -70zM692 595l68 68l-70 69l-68 -67zM191 664l-54 53v-107zM812 664l51 -52v103z
M475 570l-69 69l-70 -70l69 -69zM285 570l-68 68l-70 -70l68 -68zM597 500l69 69l-70 69l-69 -69zM788 499l67 68l-70 70l-67 -67zM241 474l69 -69l70 70l-69 69zM432 474l69 -70l70 70l-70 70zM692 404l69 69l-70 70l-69 -69zM189 474l-52 52v-104zM813 474l50 -50v100z
M527 379l70 -71l70 70l-70 71zM284 379l-69 69l-69 -69l69 -69zM336 378l70 -69l70 70l-70 69zM718 378l69 -68l69 69l-69 68zM310 353l-69 -69l70 -70l69 69zM501 353l-70 -70l70 -70l70 70zM692 353l-70 -70l69 -69l70 70zM189 284l-52 52v-104zM813 283l50 -50v100z
M336 188l71 -70l69 69l-70 71zM215 258l-68 -68l70 -70l68 68zM527 187l69 -68l70 70l-69 68zM718 187l67 -67l70 70l-67 67zM311 163l-69 -69l71 -70l68 68zM501 162l-69 -70l69 -68l69 69zM692 162l-70 -70l68 -68l70 70zM191 94l-54 54v-108zM812 93l51 -51v103zM217 69
l-52 -52h103zM786 68l-50 -51h101zM406 67l-49 -50h99zM597 66l-49 -49h98z" />
    <glyph glyph-name="triagup" unicode="&#x25b2;" horiz-adv-x="1000" 
d="M500 826l470 -814h-940z" />
    <glyph glyph-name="uni25B3" unicode="&#x25b3;" horiz-adv-x="1000" 
d="M500 826l470 -814h-940zM500 752l-406 -703h812z" />
    <glyph glyph-name="uni25B6" unicode="&#x25b6;" horiz-adv-x="1000" 
d="M936 377l-814 -470v940z" />
    <glyph glyph-name="uni25B7" unicode="&#x25b7;" horiz-adv-x="1000" 
d="M936 377l-814 -470v940zM862 377l-703 406v-812z" />
    <glyph glyph-name="triagdn" unicode="&#x25bc;" horiz-adv-x="1000" 
d="M30 748h940l-470 -814z" />
    <glyph glyph-name="uni25BD" unicode="&#x25bd;" horiz-adv-x="1000" 
d="M30 748h940l-470 -814zM906 711h-812l406 -703z" />
    <glyph glyph-name="uni25C0" unicode="&#x25c0;" horiz-adv-x="1000" 
d="M878 847v-940l-814 470z" />
    <glyph glyph-name="uni25C1" unicode="&#x25c1;" horiz-adv-x="1000" 
d="M878 847v-940l-814 470zM841 -29v812l-703 -406z" />
    <glyph glyph-name="uni25C6" unicode="&#x25c6;" horiz-adv-x="1000" 
d="M500 868l488 -488l-488 -488l-488 488z" />
    <glyph glyph-name="uni25C7" unicode="&#x25c7;" horiz-adv-x="1000" 
d="M500 868l488 -488l-488 -488l-488 488zM500 815l-435 -435l435 -435l435 435z" />
    <glyph glyph-name="uni25C8" unicode="&#x25c8;" horiz-adv-x="1000" 
d="M500 868l488 -488l-488 -488l-488 488zM500 815l-435 -435l435 -435l435 435zM162 380l338 338l338 -338l-338 -338z" />
    <glyph glyph-name="circle" unicode="&#x25cb;" horiz-adv-x="1000" 
d="M500 -70q-93 0 -175 35.5t-143 96.5t-96.5 143t-35.5 175t35.5 175t96.5 143t143 96.5t175 35.5t175 -35.5t143 -96.5t96.5 -143t35.5 -175t-35.5 -175t-96.5 -143t-143 -96.5t-175 -35.5zM87 380q0 -85 32.5 -160.5t88.5 -131.5t131.5 -88.5t160.5 -32.5q86 0 161 32.5
t131 88.5t88.5 131.5t32.5 160.5q0 86 -32.5 161t-88.5 131t-131 88.5t-161 32.5q-85 0 -160.5 -32.5t-131.5 -88.5t-88.5 -131t-32.5 -161z" />
    <glyph glyph-name="uni25CE" unicode="&#x25ce;" horiz-adv-x="1000" 
d="M50 380q0 93 35.5 175t96.5 143t143 96.5t175 35.5t175 -35.5t143 -96.5t96.5 -143t35.5 -175t-35.5 -175t-96.5 -143t-143 -96.5t-175 -35.5t-175 35.5t-143 96.5t-96.5 143t-35.5 175zM913 380q0 86 -32.5 161t-88.5 131t-131 88.5t-161 32.5q-85 0 -160.5 -32.5
t-131.5 -88.5t-88.5 -131t-32.5 -161q0 -85 32.5 -160.5t88.5 -131.5t131.5 -88.5t160.5 -32.5q86 0 161 32.5t131 88.5t88.5 131.5t32.5 160.5zM204 380q0 62 23 115.5t63.5 94t94.5 63.5t115 23q62 0 115.5 -23t94 -63.5t63.5 -94t23 -115.5q0 -61 -23 -115t-63.5 -94.5
t-94 -63.5t-115.5 -23q-61 0 -115 23t-94.5 63.5t-63.5 94.5t-23 115zM765 380q0 55 -21 103t-57 84t-84 57t-103 21t-103 -21t-84 -57t-57 -84t-21 -103t21 -103t57 -84t84 -57t103 -21t103 21t84 57t57 84t21 103z" />
    <glyph glyph-name="uni25CF" unicode="&#x25cf;" horiz-adv-x="1000" 
d="M500 -70q-93 0 -175 35.5t-143 96.5t-96.5 143t-35.5 175t35.5 175t96.5 143t143 96.5t175 35.5t175 -35.5t143 -96.5t96.5 -143t35.5 -175t-35.5 -175t-96.5 -143t-143 -96.5t-175 -35.5z" />
    <glyph glyph-name="uni25D0" unicode="&#x25d0;" horiz-adv-x="1000" 
d="M940 380q0 -91 -34.5 -171t-94.5 -140t-140 -94.5t-171 -34.5t-171 34.5t-140 94.5t-94.5 140t-34.5 171t34.5 171t94.5 140t140 94.5t171 34.5t171 -34.5t140 -94.5t94.5 -140t34.5 -171zM500 790v-820q86 0 160.5 32t130 87.5t87.5 130.5t32 160q0 86 -32 160.5
t-87.5 130t-130 87.5t-160.5 32z" />
    <glyph glyph-name="uni25D1" unicode="&#x25d1;" horiz-adv-x="1000" 
d="M940 380q0 -91 -34.5 -171t-94.5 -140t-140 -94.5t-171 -34.5t-171 34.5t-140 94.5t-94.5 140t-34.5 171t34.5 171t94.5 140t140 94.5t171 34.5t171 -34.5t140 -94.5t94.5 -140t34.5 -171zM500 -30v820q-85 0 -160 -32t-130.5 -87.5t-87.5 -130t-32 -160.5q0 -85 32 -160
t87.5 -130.5t130.5 -87.5t160 -32z" />
    <glyph glyph-name="uni2605" unicode="&#x2605;" horiz-adv-x="1000" 
d="M612 485h350v-4l-283 -205l111 -338l-3 -1l-287 208l-287 -208l-3 1l111 338l-283 205v4h350l110 336h4z" />
    <glyph glyph-name="uni2606" unicode="&#x2606;" horiz-adv-x="1000" 
d="M388 485l108 336h8l108 -336h350l1 -9l-284 -200l113 -335l-7 -6l-285 210l-285 -210l-7 6l113 335l-284 200l1 9h350zM415 448h-188l-99 5v-2l87 -55l150 -106l-56 -166l-41 -106l2 -1l90 71l140 103l140 -103l90 -71l2 1l-41 106l-56 166l150 106l87 55v2l-100 -5h-187
l-58 179l-26 97h-2l-27 -97z" />
    <glyph glyph-name="uni260E" unicode="&#x260e;" horiz-adv-x="1000" 
d="M329 570h-107l41 -106q4 -7 4 -18q0 -2 -1 -9t-16 -10l-182 -31q-15 0 -21.5 6t-6.5 22q0 17 1.5 41.5t7.5 50t16.5 48.5t28.5 37q32 24 69.5 42.5t85.5 31.5t109.5 19.5t141.5 6.5t141.5 -6.5t109.5 -19.5t85.5 -31.5t69.5 -42.5q18 -14 28.5 -37t16.5 -48.5t7.5 -50
t1.5 -41.5q0 -16 -6.5 -22t-21.5 -6l-182 31q-15 3 -16 10t-1 9q0 11 4 18l41 106h-107v-64q0 -52 31 -96t88 -98q52 -51 72 -111.5t20 -126.5q0 -24 -10 -35.5t-36 -11.5h-672q-26 0 -36 11.5t-10 35.5q0 66 20 126.5t72 111.5q57 54 88 98t31 96v64zM585 570h-170v-96h170
v96zM332 250q0 -35 13 -65.5t36 -53.5t53.5 -36t65.5 -13t65.5 13t53.5 36t36 53.5t13 65.5t-13 65.5t-36 53.5t-53.5 36t-65.5 13t-65.5 -13t-53.5 -36t-36 -53.5t-13 -65.5z" />
    <glyph glyph-name="uni260F" unicode="&#x260f;" horiz-adv-x="1000" 
d="M315 556h-73l34 -87v1q3 -7 3.5 -13t0.5 -9q0 -8 -4.5 -19t-23.5 -16l-182 -31q-20 0 -32 10.5t-12 31.5q0 17 2 42.5t8.5 53t18 52.5t30.5 40q32 25 71 44.5t88.5 32.5t112.5 19.5t143 6.5t143 -6.5t112.5 -19.5t88.5 -32.5t71 -44.5q20 -15 31.5 -40t17.5 -52.5
t8 -53.5t2 -42q0 -21 -12 -31.5t-32 -10.5l-183 31q-19 5 -23 16t-4 19q0 3 0.5 9t3.5 13v-1l34 87h-73v-50q0 -49 29.5 -89.5t85.5 -94.5q54 -54 75 -116.5t21 -131.5q0 -28 -14.5 -44.5t-45.5 -16.5h-672q-31 0 -45.5 16.5t-14.5 44.5q0 69 21 131.5t75 116.5
q56 54 85.5 94.5t29.5 89.5v50zM250 459l-48 125h141v-78q0 -57 -33 -103.5t-90 -100.5q-51 -48 -69.5 -105t-18.5 -123q0 -19 6.5 -26t25.5 -7h672q19 0 25.5 7t6.5 26q0 66 -18.5 123t-69.5 105q-56 54 -89.5 101t-33.5 103v78h141l-48 -125v-1q-3 -7 -3 -11t5 -6l182 -31
q8 0 10 2.5t2 11.5q0 16 -1.5 39.5t-7 47.5t-15 45.5t-25.5 33.5q-31 24 -67 42t-83.5 30t-107.5 18.5t-139 6.5t-139 -6.5t-107.5 -18.5t-83.5 -30t-67 -42q-16 -12 -25.5 -33.5t-15 -45.5t-7 -47.5t-1.5 -39.5q0 -9 2 -11.5t10 -2.5l181 31q6 2 6 6t-3 11v1zM401 460v124
h198v-124h-198zM571 556h-142v-68h142v68zM682 250q0 -37 -14.5 -70t-39.5 -58t-58 -39.5t-70 -14.5t-70 14.5t-58 39.5t-39.5 58t-14.5 70t14.5 70t39.5 58t58 39.5t70 14.5t70 -14.5t58 -39.5t39.5 -58t14.5 -70zM346 250q0 -32 12 -60t33 -49t49 -33t60 -12t60 12t49 33
t33 49t12 60t-12 60t-33 49t-49 33t-60 12t-60 -12t-49 -33t-33 -49t-12 -60z" />
    <glyph glyph-name="uni261C" unicode="&#x261c;" horiz-adv-x="1000" 
d="M950 183l-79 9q-5 0 -10.5 -0.5t-10.5 -2.5q-72 -33 -150.5 -54t-156.5 -21q-12 0 -26 1t-27.5 2.5t-24 3.5t-16.5 4h-8l-9 -1q-43 0 -74 21t-34 67q0 3 -2 3q-2 2 -4 2l-4 2h-2q-39 24 -42 80q0 6 -4 7q-24 12 -33 31q-9 17 -9 33q0 5 2 19t17 29l3 2q2 2 2 3q0 3 -4 3
q-18 0 -37 -0.5t-36 -0.5h-47q-6 0 -11 1q-50 4 -67.5 22.5t-17.5 40.5q0 18 8 30t20.5 19.5t27.5 12t29 7.5q18 3 50.5 7t72 7.5t83 7.5t84 6.5t75 4.5t56.5 2q61 0 145.5 -23t187.5 -66q1 -1 9 -1l74 9q15 0 15 -14v-301q0 2 -0.5 0t-1.5 -7q-4 -7 -13 -7zM928 482l-54 -7
h-6.5t-6.5 2q-44 19 -88 35t-83 27t-71.5 17.5t-54.5 6.5q-38 0 -61.5 -6.5t-49.5 -23.5l-17 -12q-7 -6 -21 -16.5t-28 -23t-25 -25.5t-11 -24q0 -4 1 -5q7 -14 19.5 -15.5t17.5 -1.5q12 0 37 6.5t52.5 15t51.5 17t33 12.5q1 1 6 1q1 0 4.5 -0.5t5.5 -4.5q8 -11 28 -26.5
t52 -32.5t66 -26t64 -9q5 0 11 -3t6 -8q0 -9 -11 -14t-25.5 -7.5t-28.5 -3t-20 -0.5q-24 0 -54 3q-58 0 -58 -57q0 -27 -6.5 -46.5t-18.5 -34t-30 -25.5t-41 -22q-2 0 -2 -1t1 -1l1 -1q8 -1 17 -1h19q78 0 153.5 23t147.5 55q3 2 6.5 2h6.5l63 -8q12 0 12 10v251q0 8 -10 8z
M269 454q19 0 42 4t36 20q15 16 36 32t36 30v1q2 10 2 9q0 7 -1 8q0 3 -3 3q-41 -3 -85.5 -6.5t-86 -7.5t-75 -8t-52.5 -8q-24 -5 -36.5 -10.5t-18.5 -11.5t-7 -11t-1 -9q0 -12 10.5 -22.5t49.5 -13.5q11 -1 29.5 -1t40 0.5t43.5 1t41 0.5zM301 324q20 -4 38.5 -4t26.5 2
q13 2 38 6.5t50.5 13t44.5 21t19 30.5q0 8 -1 9q-2 8 -10 8q-4 0 -5 -1q-14 -4 -33 -9t-36 -10q-18 -4 -28 -5t-15 -1q-23 0 -38.5 8t-26.5 31q-2 5 -5.5 5.5t-4.5 0.5q-5 0 -6 -1q-7 -3 -17 -8t-19 -11.5t-15.5 -14.5t-6.5 -18q0 -26 13.5 -36.5t36.5 -15.5zM392 232
q15 0 43 7t55 19.5t47.5 29t20.5 35.5q0 15 -9 25q-4 3 -7.5 3.5t-4.5 0.5q-4 0 -9 -3q-14 -7 -29.5 -15t-29.5 -14q-28 -12 -61.5 -19t-71.5 -7h-16q-4 0 -8 0.5t-9 1.5q-5 0 -5 -5q4 -21 12 -32.5t20 -17.5t27.5 -7.5t34.5 -1.5zM427 151q16 0 41 6.5t48.5 18t40.5 27
t17 33.5q0 7 -4 16.5t-12 9.5q-1 0 -6 -0.5t-14 -6.5q-16 -11 -35.5 -20t-39.5 -16t-38.5 -10.5t-32.5 -3.5q-9 0 -18.5 0.5t-17.5 1.5q-4 0 -4 -3q6 -28 27 -40.5t48 -12.5z" />
    <glyph glyph-name="uni261E" unicode="&#x261e;" horiz-adv-x="1000" 
d="M464 593q22 0 56.5 -2t75 -4.5t84 -6.5t83 -7.5t72 -7.5t50.5 -7q14 -3 29 -7.5t27.5 -12t20.5 -19.5t8 -30q0 -22 -17.5 -40.5t-67.5 -22.5q-5 -1 -11 -1h-46h-28l-18 1h-28q-4 0 -4 -3q0 -1 2 -3l3 -2q15 -15 17 -29t2 -19q0 -16 -9 -33q-9 -19 -33 -31q-4 -1 -4 -7
q-3 -56 -42 -80h-2l-4 -2q-2 0 -4 -2q-2 0 -2 -3q-3 -48 -34 -68t-74 -20l-9 1h-8q-6 -2 -16.5 -4t-24 -3.5t-27.5 -2.5t-26 -1q-78 0 -156.5 21t-150.5 54q-10 3 -21 3l-79 -9q-9 0 -13 7q-1 5 -1.5 7t-0.5 0v301q0 14 15 14l74 -9q8 0 9 1q103 43 187.5 66t145.5 23z
M148 219q72 -32 147.5 -55t153.5 -23h19q9 0 18 2l1 1q0 1 -2 1q-23 11 -41 22t-30 25.5t-18.5 34t-6.5 46.5q0 57 -58 57q-30 -3 -54 -3q-6 0 -20 0.5t-28.5 3t-25.5 7.5t-11 14q0 5 6 8t11 3q30 0 64 9t66 26t52 32.5t28 26.5q2 4 5.5 4.5t4.5 0.5q5 0 6 -1q9 -4 33 -12.5
t51.5 -17t52.5 -15t37 -6.5q5 0 17.5 1.5t19.5 15.5q1 1 1 5t-2.5 11t-16.5 22t-32 29.5t-33 26.5l-18 12q-26 17 -49.5 23.5t-61.5 6.5q-22 0 -54.5 -6.5t-71.5 -17.5t-83 -27t-88 -35q-3 -2 -6.5 -2h-6.5l-54 7q-10 0 -10 -8v-251q0 -10 12 -10l63 8h6.5t6.5 -2zM729 454
q19 0 41 -0.5t43.5 -1t40 -0.5t29.5 1q39 3 49.5 13.5t10.5 22.5q0 4 -1 9t-7 11t-18.5 11.5t-36.5 10.5q-19 4 -52.5 8t-75 8t-86 7.5t-85.5 6.5q-3 0 -3 -3q-1 -1 -1 -8q0 1 2 -9v-1q15 -14 36 -30t36 -32q13 -16 36 -20t42 -4zM697 324q23 5 36.5 15.5t13.5 36.5
q0 10 -6.5 18t-15.5 14.5t-19 11.5t-17 8q-1 1 -6 1q-1 0 -4.5 -0.5t-5.5 -5.5q-11 -23 -26.5 -31t-38.5 -8q-5 0 -15 1t-28 5q-17 5 -36 10t-33 9q-1 1 -5 1q-8 0 -10 -8q-1 -1 -1 -9q0 -18 19 -30.5t44.5 -21t50.5 -13t38 -6.5q8 -2 26.5 -2t38.5 4zM606 232
q19 0 34.5 1.5t27.5 7.5t20 17.5t12 32.5q0 5 -5 5q-5 -1 -9 -1.5t-8 -0.5h-16q-38 0 -71.5 7t-61.5 19q-14 6 -29.5 14t-29.5 15q-4 3 -9 3q-1 0 -4.5 -0.5t-7.5 -3.5q-9 -10 -9 -25q0 -19 20.5 -35.5t47.5 -29t55 -19.5t43 -7zM571 151q27 0 48 12.5t27 40.5q0 3 -4 3
q-8 -1 -17.5 -1.5t-18.5 -0.5q-14 0 -32.5 3.5t-38.5 10.5t-39.5 16t-35.5 20q-9 6 -14 6.5t-6 0.5q-8 0 -12 -9.5t-4 -16.5q0 -2 0.5 -8.5t11.5 -17.5q25 -25 62.5 -42t72.5 -17z" />
    <glyph glyph-name="female" unicode="&#x2640;" horiz-adv-x="1000" 
d="M284 604q0 45 17 84.5t46 69t68.5 46t84.5 16.5t84.5 -16.5t68.5 -46t46 -69t17 -84.5q0 -40 -14 -75.5t-38 -64t-57.5 -47.5t-72.5 -25v-108h286v-68h-286v-276h-68v276h-286v68h286v108q-39 6 -72.5 25t-57.5 47.5t-38 64t-14 75.5zM647 604q0 31 -11.5 57.5
t-31.5 46.5t-47 31.5t-57 11.5t-57 -11.5t-47 -31.5t-31.5 -46.5t-11.5 -57.5q0 -30 11.5 -57t31.5 -46.5t47 -31t57 -11.5t57 11.5t47 31t31.5 46.5t11.5 57z" />
    <glyph glyph-name="male" unicode="&#x2642;" horiz-adv-x="1000" 
d="M548 212q0 -45 -17 -84t-46.5 -68.5t-68.5 -46.5t-84 -17t-84 17t-68.5 46.5t-46.5 68.5t-17 84t17 84t46.5 68.5t68.5 46.5t84 17q68 0 124 -41l288 287h-257v69h376v-376h-69v260l-289 -288q20 -26 31.5 -59t11.5 -68zM185 212q0 -30 11.5 -57t31.5 -47t47 -31.5
t57 -11.5t57 11.5t47 31.5t31.5 47t11.5 57t-11.5 57t-31.5 47t-47 31.5t-57 11.5t-57 -11.5t-47 -31.5t-31.5 -47t-11.5 -57z" />
    <glyph glyph-name="spade" unicode="&#x2660;" horiz-adv-x="1000" 
d="M727 599q27 -26 60.5 -58.5t62 -71.5t48 -85t19.5 -100q0 -44 -14.5 -83.5t-40.5 -69.5t-63 -47.5t-82 -17.5q-57 0 -101.5 27t-63.5 70l-7 17q-3 5 -9 5q-5 0 -5.5 -8t-0.5 -10q3 -39 11 -69.5t20.5 -55t29.5 -44t38 -37.5q6 -6 6 -11q0 -2 -1.5 -5.5t-4.5 -3.5h-258
q-3 0 -5 3.5t-2 5.5q0 5 7 11q21 18 38 37.5t29.5 44t20.5 55t11 69.5q0 2 -0.5 10t-5.5 8q-6 0 -8 -5l-8 -17q-19 -43 -63.5 -70t-101.5 -27q-45 0 -81.5 17.5t-63 47.5t-41 69.5t-14.5 83.5q0 54 19.5 100t48 85t62 71.5t60.5 58.5q33 32 67 67.5t64.5 69.5t55 64.5
t38.5 51.5l2 2l2 -2q13 -21 37.5 -51.5t55 -64.5t65 -69.5t67.5 -67.5z" />
    <glyph glyph-name="uni2661" unicode="&#x2661;" horiz-adv-x="1000" 
d="M503 649q17 42 41 70.5t52 46t58.5 25t59.5 7.5q44 0 82 -18.5t66.5 -51t45 -77t16.5 -95.5q0 -55 -19.5 -103.5t-49 -89t-63.5 -74.5t-63 -61q-34 -33 -68.5 -70.5t-64.5 -73.5t-54.5 -68.5t-38.5 -54.5l-2 -2l-2 2q-14 22 -38.5 54.5t-54.5 68.5t-64.5 73.5t-68.5 70.5
q-29 27 -63 61t-63.5 75t-49 89t-19.5 103q0 51 16.5 95.5t45 77t67 51t81.5 18.5q29 0 59 -7.5t58 -25t52 -46t42 -70.5q1 -1 1 -2l1 -1q1 0 2 3zM887 556q0 44 -14 81.5t-37.5 65.5t-55 43.5t-66.5 15.5q-66 0 -110 -35.5t-76 -110.5q-11 -26 -27 -26t-27 26
q-32 75 -76 110.5t-110 35.5q-35 0 -66.5 -15.5t-55 -43.5t-37.5 -65.5t-14 -81.5q0 -48 19 -91.5t46.5 -82t59.5 -71t59 -57.5q33 -30 63 -62t56 -62.5t46.5 -57.5t34.5 -48l2 -2l2 2q13 21 34 48.5t47 58t56.5 62t63.5 61.5l58 58q23 23 45.5 51t40 59t28.5 65t11 69z" />
    <glyph glyph-name="club" unicode="&#x2663;" horiz-adv-x="1000" 
d="M464 185q-6 0 -7.5 -5.5t-8.5 -16.5q-28 -45 -75.5 -74.5t-107.5 -29.5q-42 0 -79 15t-64 42t-42.5 64t-15.5 82q0 43 15 80t42 64.5t64 43.5t81 16q23 0 46 -7t40 -16q1 -1 3 -1q3 0 4 3q1 1 1 3t-1 3q-31 31 -48 66.5t-17 80.5q0 43 16 80.5t44 66t65.5 45t80.5 16.5
t80.5 -16.5t65.5 -44.5t44 -65.5t16 -80.5q0 -45 -18 -82.5t-44 -62.5q-2 -1 -3 -3t-1 -3q0 -2 1 -3q2 -3 4 -3t3 1q17 9 40.5 16t44.5 7q45 0 82 -16t64 -43.5t42 -64.5t15 -80q0 -45 -15.5 -82t-42.5 -64t-64 -42t-79 -15q-57 0 -104.5 28t-78.5 76q-7 11 -8.5 16.5
t-7.5 5.5q-5 0 -5.5 -8t-0.5 -10q3 -39 11 -69.5t20.5 -55t29.5 -44t38 -37.5q7 -6 7 -11q0 -2 -2 -5.5t-5 -3.5h-257q-4 0 -5.5 3.5t-1.5 5.5q0 5 6 11q21 18 38 37.5t29.5 44t20.5 55t11 69.5q0 2 -0.5 10t-5.5 8z" />
    <glyph glyph-name="uni2664" unicode="&#x2664;" horiz-adv-x="1000" 
d="M642 -61h-284q-3 0 -4.5 4t-1.5 6q0 5 6 11q38 35 59.5 73t29.5 93q2 12 2.5 18.5t0.5 9.5q0 4 -1 4l-4 -7v-1q0 -1 -1 -2l-5 -6q0 -2 -2 -4q-24 -35 -66 -55t-90 -20q-45 0 -82 18t-63.5 48t-41 70t-14.5 84q0 54 19.5 100.5t48.5 86t62.5 72.5t60.5 59q34 32 68.5 67.5
t65 70t55 65t38.5 52.5l2 2l2 -2q13 -22 37.5 -52.5t55 -65t65.5 -70t69 -67.5q27 -26 60.5 -59t62.5 -72.5t48.5 -86t19.5 -100.5q0 -44 -14.5 -84t-41 -70t-63.5 -48t-82 -18q-48 0 -90 20t-66 55l-1 1q0 2 -1 3l-5 6q0 2 -2 4l-3 6q-1 0 -1 -4q0 -3 0.5 -9.5t2.5 -18.5
q8 -55 29.5 -93t59.5 -73q7 -6 7 -11q0 -2 -2 -6t-5 -4zM429 -24h142l1 1q-15 23 -26 43t-18 41t-10 44.5t-3 51.5q0 23 5 40.5t19 17.5q11 0 19 -10.5t22 -29.5q25 -35 59 -55t80 -20q38 0 68 14.5t51 40t32.5 59t11.5 70.5q0 48 -18.5 90.5t-45.5 78.5t-57.5 66t-55.5 53
q-30 29 -61 60.5t-58 61t-49 56t-35 45.5l-2 2l-2 -2q-12 -19 -34 -45.5t-49.5 -56t-58.5 -61t-61 -60.5q-25 -23 -56 -53t-58 -66t-45.5 -78.5t-18.5 -90.5q0 -37 11.5 -70.5t33 -59t52 -40t67.5 -14.5q46 0 80 20t59 55q14 19 22 29.5t19 10.5q14 0 19 -17.5t5 -40.5
q0 -60 -13.5 -97.5t-32.5 -65.5q-4 -7 -8 -13q-2 -2 -3 -4q0 -1 1 -1z" />
    <glyph glyph-name="heart" unicode="&#x2665;" horiz-adv-x="1000" 
d="M505 636q22 83 79 121.5t128 38.5q43 0 81 -18.5t66.5 -51t45 -76.5t16.5 -95q0 -55 -20 -103t-49 -88.5t-63 -74t-62 -60.5q-34 -33 -68 -70.5t-64 -73.5t-54.5 -68t-38.5 -54l-2 -2l-2 2q-14 22 -38.5 54t-54.5 68t-64 73.5t-68 70.5q-28 27 -62 60.5t-63 74t-49 88.5
t-20 103q0 51 16.5 95t45 76.5t66.5 51t81 18.5q35 0 67.5 -9.5t60 -29t48 -49.5t31.5 -72q1 -7 5 -7t5 7z" />
    <glyph glyph-name="uni2667" unicode="&#x2667;" horiz-adv-x="1000" 
d="M61 263q0 44 15 81.5t41.5 65.5t64 44t82.5 16q23 0 46.5 -6t36.5 -13q1 -1 2 -1q-27 29 -42 71t-15 80q0 43 16.5 80.5t44.5 66t66 45t81 16.5t81 -16.5t66 -45t44.5 -66t16.5 -80.5q0 -40 -14.5 -80.5t-43.5 -69.5l1 -1q1 0 2 1q13 7 36.5 13t46.5 6q45 0 82.5 -16
t64 -44t41.5 -65.5t15 -81.5q0 -45 -15.5 -83t-43 -65t-64.5 -42.5t-79 -15.5q-55 0 -100.5 23.5t-73.5 60.5q-3 4 -4.5 8t-3.5 6q-1 3 -3 5q-1 0 -1 -11.5t2 -22.5q7 -57 30.5 -94t58.5 -72q6 -6 6 -11q0 -2 -1.5 -6t-4.5 -4h-284q-3 0 -5 4t-2 6q0 5 7 11q35 35 58.5 72
t30.5 94q2 11 2 22.5t-1 11.5q-2 -2 -3 -5q-2 -2 -4 -6l-4 -8q-29 -38 -74 -61t-100 -23q-42 0 -79 15.5t-64.5 42.5t-43 65t-15.5 83zM345 416q-16 6 -36 11.5t-46 5.5q-36 0 -66.5 -13t-52.5 -36t-34 -54t-12 -67t13 -67t35.5 -53.5t52.5 -35.5t64 -13q100 0 161 90
q8 12 15.5 22t18.5 10q14 0 20.5 -16.5t6.5 -42.5q0 -58 -13 -95.5t-35 -69.5l-9 -12q-1 -1 -1 -3l1 -1h144q2 0 2 1t-2 3l-9 12q-22 32 -35 69.5t-13 95.5q0 26 6.5 42.5t20.5 16.5q11 0 19.5 -12t22.5 -30q27 -37 64.5 -58.5t88.5 -21.5q34 0 64 13t52.5 35.5t35.5 53.5
t13 67t-12 67t-34 54t-52.5 36t-66.5 13q-26 0 -46 -6t-36 -12q-25 -5 -27 -5q-11 0 -18.5 5.5t-7.5 16.5q0 6 5 16t18 26q17 20 31 52t14 75q0 35 -13.5 66t-36.5 54t-54 37t-66 14t-66 -14t-54 -37t-36.5 -54t-13.5 -66q0 -43 14 -75t31 -52q13 -16 18 -26t5 -16
q0 -22 -24 -22q-12 0 -29 6z" />
    <glyph glyph-name="uni2668" unicode="&#x2668;" horiz-adv-x="1000" 
d="M463 457q-21 40 -32 79t-11 68q0 57 21.5 105.5t78.5 87.5l31 -16q-35 -32 -52 -68t-17 -70q0 -33 11.5 -70.5t33.5 -79.5q21 -40 32 -79t11 -69q0 -57 -21.5 -105t-78.5 -87l-31 16q35 32 52 68t17 70q0 33 -11.5 70.5t-33.5 79.5zM290 459q-21 35 -31 70t-10 61
q0 48 18.5 90.5t73.5 78.5l29 -17q-34 -29 -48 -59t-14 -59q0 -28 12.5 -62.5t32.5 -70.5q21 -35 31 -69.5t10 -60.5q0 -51 -18.5 -92.5t-73.5 -77.5l-29 17q35 29 48.5 59.5t13.5 58.5t-12 63t-33 70zM640 459q-20 35 -30.5 70t-10.5 61q0 47 18.5 90t74.5 79l28 -17
q-34 -28 -48 -58.5t-14 -59.5q0 -28 12.5 -62.5t32.5 -70.5q21 -35 31 -69.5t10 -60.5q0 -50 -18 -92t-74 -78l-28 17q34 29 47.5 59.5t13.5 58.5t-12 63t-33 70zM923 232q0 -52 -32 -97.5t-88.5 -78.5t-134 -52t-168.5 -19t-168.5 19t-134 52t-88.5 78.5t-32 97.5
q0 63 40.5 105.5t107.5 58.5l19 -26q-46 -14 -73 -42.5t-27 -73.5q0 -39 27 -73t75 -58.5t113 -38.5t141 -14t141 14t113 38.5t75 58.5t27 73q0 45 -27 73.5t-73 42.5l19 26q67 -16 107.5 -58.5t40.5 -105.5z" />
    <glyph glyph-name="uni2669" unicode="&#x2669;" horiz-adv-x="1000" 
d="M518 840h40v-750q0 -39 -15 -70.5t-40.5 -53.5t-58.5 -34t-69 -12q-17 0 -34 4.5t-30 14t-21 23.5t-8 32q0 27 15.5 51.5t40 44t55.5 31t62 11.5q17 0 34.5 -3.5t28.5 -9.5v721z" />
    <glyph glyph-name="musicalnote" unicode="&#x266a;" horiz-adv-x="1000" 
d="M486 840h25q0 -36 9.5 -67.5t25.5 -58.5t37 -50.5t44 -43.5t46 -44.5t41.5 -53t30 -60.5t11.5 -67q0 -63 -24 -124.5t-60 -119.5h-26q8 17 19 41t21 51.5t16.5 57.5t6.5 60q0 44 -14 82t-38.5 68t-58 51t-72.5 30v-502q0 -39 -15 -70.5t-40.5 -53.5t-58.5 -34t-69 -12
q-17 0 -34 4.5t-30 14t-21 23.5t-8 32q0 27 15.5 51.5t40 44t55.5 31t62 11.5q17 0 34.5 -3.5t28.5 -9.5v721z" />
    <glyph glyph-name="uni266C" unicode="&#x266c;" horiz-adv-x="1000" 
d="M260 727l585 128v-652q0 -39 -15 -70.5t-40.5 -53.5t-58.5 -34t-69 -12q-17 0 -34 4.5t-30 14t-21 23.5t-8 32q0 27 15.5 51.5t40 44t55.5 31t62 11.5q17 0 34.5 -3.5t28.5 -9.5v342l-505 -110v-389q0 -39 -15 -70.5t-40.5 -53.5t-58.5 -34t-69 -12q-17 0 -34 4.5t-30 14
t-21 23.5t-8 32q0 27 15.5 51.5t40 44t55.5 31t62 11.5q17 0 34.5 -3.5t28.5 -9.5v623zM805 674v72l-505 -110v-72z" />
    <glyph glyph-name="uni266D" unicode="&#x266d;" horiz-adv-x="1000" 
d="M601 474q33 0 59 -10t44 -27t27.5 -40t9.5 -49q0 -51 -19.5 -89.5t-51 -70.5t-72 -59.5t-83 -55.5t-84 -59t-74.5 -70h-9v872h39v-484q17 30 40.5 56t51 45t58.5 30t64 11zM387 278v-261q41 45 86 80t82.5 69.5t62 73.5t24.5 91q0 46 -23 66.5t-57 20.5q-39 0 -86 -33.5
t-89 -106.5z" />
    <glyph glyph-name="uni3000" unicode="&#x3000;" horiz-adv-x="1000" 
 />
    <glyph glyph-name="uni3001" unicode="&#x3001;" horiz-adv-x="1000" 
d="M341 2l-68 -58q-48 60 -107.5 119.5t-113.5 103.5l65 57q27 -22 56.5 -49t59 -56.5t57.5 -59.5t51 -57z" />
    <glyph glyph-name="uni3002" unicode="&#x3002;" horiz-adv-x="1000" 
d="M194 244q32 0 60 -12t48.5 -32.5t32.5 -48t12 -59.5q0 -31 -12 -59t-32.5 -49t-48.5 -33t-60 -12q-31 0 -58.5 12t-48.5 33t-33 49t-12 59q0 32 12 59.5t33 48t48.5 32.5t58.5 12zM194 -10q43 0 72 29.5t29 72.5q0 21 -8 39t-21.5 32t-32 22t-39.5 8t-39 -8t-32 -22
t-22 -32t-8 -39t8 -40t22 -32.5t32 -21.5t39 -8z" />
    <glyph glyph-name="uni3003" unicode="&#x3003;" horiz-adv-x="1000" 
d="M389 622l94 -40l-206 -454l-49 20zM678 622l94 -40l-206 -454l-49 20z" />
    <glyph glyph-name="uni3008" unicode="&#x3008;" horiz-adv-x="480" 
d="M140 380l280 -437l-63 -29l-297 466l297 466l63 -29z" />
    <glyph glyph-name="uni3009" unicode="&#x3009;" horiz-adv-x="480" 
d="M123 -86l-63 29l280 437l-280 437l63 29l297 -466z" />
    <glyph glyph-name="uni300A" unicode="&#x300a;" horiz-adv-x="480" 
d="M84 380l215 -448l-54 -18l-222 466l222 466l54 -18zM242 380l215 -448l-54 -18l-222 466l222 466l54 -18z" />
    <glyph glyph-name="uni300B" unicode="&#x300b;" horiz-adv-x="480" 
d="M235 -86l-54 18l215 448l-215 448l54 18l222 -466zM77 -86l-54 18l215 448l-215 448l54 18l222 -466z" />
    <glyph glyph-name="uni300C" unicode="&#x300c;" horiz-adv-x="480" 
d="M134 199v647h316v-69h-242v-578h-74z" />
    <glyph glyph-name="uni300D" unicode="&#x300d;" horiz-adv-x="480" 
d="M346 561v-647h-316v69h242v578h74z" />
    <glyph glyph-name="uni300E" unicode="&#x300e;" horiz-adv-x="480" 
d="M450 684h-196v-501h-171v663h367v-162zM406 796h-272v-567h70v505h202v62z" />
    <glyph glyph-name="uni300F" unicode="&#x300f;" horiz-adv-x="480" 
d="M31 76h196v501h171v-663h-367v162zM75 -36h272v567h-70v-505h-202v-62z" />
    <glyph glyph-name="uni3010" unicode="&#x3010;" horiz-adv-x="1000" 
d="M666 846h300v-5q-41 -35 -77 -83t-63 -106.5t-42.5 -127t-15.5 -144.5t15.5 -144.5t42.5 -127.5t63 -107t77 -82v-5h-300v932z" />
    <glyph glyph-name="uni3011" unicode="&#x3011;" horiz-adv-x="1000" 
d="M334 846v-932h-300v5q41 34 77 82t63 107t42.5 127.5t15.5 144.5t-15.5 144.5t-42.5 127t-63 106.5t-77 83v5h300z" />
    <glyph glyph-name="uni3013" unicode="&#x3013;" horiz-adv-x="1000" 
d="M900 780v-300h-800v300h800zM900 280v-300h-800v300h800z" />
    <glyph glyph-name="uni3014" unicode="&#x3014;" horiz-adv-x="1000" 
d="M928 -98l-215 140v676l215 140l33 -52l-178 -114v-624l178 -114z" />
    <glyph glyph-name="uni3015" unicode="&#x3015;" horiz-adv-x="1000" 
d="M288 42l-216 -140l-33 52l178 114v624l-178 114l33 52l216 -140v-676z" />
    <glyph glyph-name="uni3131" unicode="&#x3131;" 
d="M182 614h557v-467h-81v401h-476v66z" />
    <glyph glyph-name="uni3132" unicode="&#x3132;" 
d="M503 614h305v-467h-81v401h-224v66zM141 613h311v-467h-81v401h-230v66z" />
    <glyph glyph-name="uni3133" unicode="&#x3133;" 
d="M675 622v-167q0 -38 9.5 -76.5t29.5 -73t50 -62.5t72 -45l-43 -59q-60 26 -99 71.5t-59 102.5q-20 -57 -59 -102.5t-99 -71.5l-43 59q42 17 72.5 45t50.5 62.5t29.5 73t9.5 76.5v167h79zM135 546v67h284v-467h-81v400h-203z" />
    <glyph glyph-name="uni3134" unicode="&#x3134;" 
d="M268 217h487v-67h-569v461h82v-394z" />
    <glyph glyph-name="uni3135" unicode="&#x3135;" 
d="M645 552v-78q0 -41 9 -82t28.5 -77.5t49.5 -66.5t72 -49l-46 -61q-58 29 -95.5 75t-57.5 106q-20 -60 -55.5 -105.5t-92.5 -74.5l-27 34l1 -4q-60 -17 -114.5 -21t-114.5 -4h-42v479h82v-413q45 2 89 7t89 19l5 -30q38 20 64.5 50t43.5 65.5t25 74.5t8 78v78h-130v66h342
v-66h-133z" />
    <glyph glyph-name="uni3136" unicode="&#x3136;" 
d="M646 542h131v-67h-353v67h142v90h80v-90zM240 603v-390q45 1 90 6t90 19l11 -67q-60 -17 -115 -21t-115 -4h-42v457h81zM603 441q32 0 59 -11.5t47.5 -32.5t32 -49.5t11.5 -63.5q0 -34 -11.5 -63t-32 -49.5t-47.5 -32t-59 -11.5q-33 0 -60.5 11.5t-48 32t-32 49.5
t-11.5 63q0 35 11.5 63.5t32 49.5t48 32.5t60.5 11.5zM603 191q35 0 57.5 25.5t22.5 67.5t-22.5 67.5t-57.5 25.5q-37 0 -60 -25.5t-23 -67.5t23 -67.5t60 -25.5z" />
    <glyph glyph-name="uni3137" unicode="&#x3137;" 
d="M270 212h474v-67h-556v471h548v-67h-466v-337z" />
    <glyph glyph-name="uni3138" unicode="&#x3138;" 
d="M240 544v-330q51 1 100.5 5.5t104.5 17.5l8 -68q-67 -16 -126 -19.5t-122 -3.5h-46v465h285v-67h-204zM564 212h206v-67h-286v466h283v-67h-203v-332z" />
    <glyph glyph-name="uni3139" unicode="&#x3139;" 
d="M258 200h498v-68h-576v279h482v144h-484v66h562v-275h-482v-146z" />
    <glyph glyph-name="uni313A" unicode="&#x313a;" 
d="M234 346v-142q64 1 126.5 5.5t132.5 18.5l9 -66q-82 -16 -152 -20.5t-145 -4.5h-52v275h214v136h-216v67h297v-269h-214zM480 615h297v-474h-81v407h-216v67z" />
    <glyph glyph-name="uni313B" unicode="&#x313b;" 
d="M484 614h304v-475h-304v475zM232 345v-140q54 1 107.5 4.5t117.5 14.5l8 -67q-77 -13 -139 -16t-127 -3h-48v274h209v135h-211v66h292v-268h-209zM715 205v343h-157v-343h157z" />
    <glyph glyph-name="uni313C" unicode="&#x313c;" 
d="M712 615h78v-477h-306v477h77v-164h151v164zM232 345v-141q57 1 111.5 5t117.5 17l9 -66q-75 -15 -139 -19t-131 -4h-49v275h209v135h-211v66h292v-268h-209zM712 205v178h-151v-178h151z" />
    <glyph glyph-name="uni313D" unicode="&#x313d;" 
d="M682 622v-168q0 -38 9 -76.5t28.5 -72t49.5 -61.5t71 -45l-45 -60q-58 26 -95.5 70t-57.5 101q-20 -57 -57.5 -101t-95.5 -70l-22 30q-72 -17 -135.5 -21.5t-132.5 -4.5h-49v274h209v135h-211v66h292v-268h-209v-140q57 1 111.5 6t114.5 19l4 -29q37 19 63.5 46.5
t44 60.5t26 69t8.5 72v168h79z" />
    <glyph glyph-name="uni313E" unicode="&#x313e;" 
d="M574 206h223v-67h-304v475h297v-67h-216v-134h206v-67h-206v-140zM233 345v-139q57 1 111.5 6t114.5 20l8 -67q-70 -17 -133.5 -21.5t-132.5 -4.5h-49v273h209v135h-211v66h292v-268h-209z" />
    <glyph glyph-name="uni313F" unicode="&#x313f;" 
d="M233 350v-140q55 1 108.5 6t111.5 19l10 -67q-72 -17 -133.5 -21t-130.5 -4h-47v274h198v135h-200v66h281v-268h-198zM749 210h56v-67h-334v67h54v341h-51v67h326v-67h-51v-341zM598 551v-341h78v341h-78z" />
    <glyph glyph-name="uni3140" unicode="&#x3140;" 
d="M670 539h129v-67h-345v67h136v97h80v-97zM235 349v-144q54 1 104.5 5t107.5 18l10 -67q-69 -15 -129.5 -19t-126.5 -4h-47v275h185v136h-187v64h268v-264h-185zM627 438q32 0 59 -11.5t47.5 -31.5t32 -48.5t11.5 -62.5t-11.5 -62.5t-32 -48.5t-47.5 -31.5t-59 -11.5
q-33 0 -60.5 11.5t-48 31.5t-32 48.5t-11.5 62.5t11.5 62.5t32 48.5t48 31.5t60.5 11.5zM627 194q35 0 58 25t23 65t-23 65t-58 25q-37 0 -60 -25t-23 -65t23 -65t60 -25z" />
    <glyph glyph-name="uni3141" unicode="&#x3141;" 
d="M184 614h560v-467h-560v467zM663 548h-397v-335h397v335z" />
    <glyph glyph-name="uni3142" unicode="&#x3142;" 
d="M186 620h81v-164h393v164h82v-482h-556v482zM267 383v-174h393v174h-393z" />
    <glyph glyph-name="uni3143" unicode="&#x3143;" 
d="M162 618h76v-163h137v163h75v-475h-288v475zM488 618h76v-163h136v163h76v-474h-288v474zM238 388v-177h137v177h-137zM564 388v-177h136v177h-136z" />
    <glyph glyph-name="uni3144" unicode="&#x3144;" 
d="M687 622v-167q0 -38 9.5 -76.5t29.5 -72.5t50.5 -62t72.5 -45l-44 -60q-60 26 -99 71.5t-59 102.5q-20 -57 -59 -102.5t-99 -71.5l-39 53v-46h-288v475h76v-163h137v163h75v-420q41 18 70.5 45.5t49 61.5t29 71.5t9.5 75.5v167h79zM375 214v177h-137v-177h137z" />
    <glyph glyph-name="uni3145" unicode="&#x3145;" 
d="M506 628v-145q0 -56 21 -103.5t58 -84t87.5 -62.5t109.5 -40l-40 -66q-94 26 -167 79t-110 134q-37 -81 -109 -134t-169 -79l-40 66q60 14 110.5 40t87.5 62.5t58 84t21 103.5v145h82z" />
    <glyph glyph-name="uni3146" unicode="&#x3146;" 
d="M672 612v-116q0 -39 9 -79t28.5 -76.5t50 -67t73.5 -49.5l-46 -61q-60 29 -98.5 79t-58.5 110q-20 -63 -59.5 -117.5t-102.5 -85.5q-63 32 -103 88t-60 119q-20 -60 -57.5 -111.5t-97.5 -82.5l-48 60q44 21 74.5 53.5t50 70t28.5 77t9 73.5v116h82v-120q0 -30 7 -64.5
t22 -68.5t38 -66t55 -57q32 25 55 56.5t38 65t22 68t7 66.5v120h82z" />
    <glyph glyph-name="uni3147" unicode="&#x3147;" 
d="M460 624q59 0 110.5 -18.5t89.5 -51t59.5 -77.5t21.5 -99t-21.5 -99.5t-59.5 -78t-89.5 -51t-110.5 -18.5t-110 18.5t-89 51t-59.5 78t-21.5 99.5t21.5 99t59.5 77.5t89 51t110 18.5zM460 554q-42 0 -79 -13.5t-64 -37t-42.5 -55.5t-15.5 -70q0 -39 15.5 -71.5t42.5 -56
t64 -36.5t79 -13q43 0 80 13t64 36.5t42.5 56t15.5 71.5q0 38 -15.5 70t-42.5 55.5t-64 37t-80 13.5z" />
    <glyph glyph-name="uni3148" unicode="&#x3148;" 
d="M508 554v-61q0 -56 19.5 -103.5t54 -85.5t82.5 -65t105 -42l-40 -65q-91 28 -159.5 83.5t-101.5 137.5q-34 -82 -103 -137.5t-160 -83.5l-39 65q57 15 105 42t82.5 65t54 85.5t19.5 103.5v61h-236v66h554v-66h-237z" />
    <glyph glyph-name="uni3149" unicode="&#x3149;" 
d="M676 559v-54q0 -43 8.5 -87t27.5 -84t49.5 -73t74.5 -54l-50 -64q-54 28 -90 72t-57 101q-21 -66 -61.5 -112.5t-109.5 -72.5q-69 26 -110.5 73.5t-62.5 113.5q-21 -57 -57.5 -102t-93.5 -73l-50 64q45 21 76 53.5t51 72.5t29 84t9 88v54h-124v67h314v-67h-109v-54
q0 -99 29 -173.5t99 -112.5q69 38 98 112t29 174v54h-109v67h313v-67h-123z" />
    <glyph glyph-name="uni314A" unicode="&#x314a;" 
d="M510 460v-26q0 -50 18.5 -93.5t52.5 -78t80.5 -59.5t103.5 -38l-39 -64q-94 24 -163 77t-101 134q-31 -81 -100.5 -134t-163.5 -77l-38 64q57 13 103.5 38t80.5 59.5t52.5 78t18.5 93.5v26h-232v67h238v131h82v-131h237v-67h-230z" />
    <glyph glyph-name="uni314B" unicode="&#x314b;" 
d="M191 622h553v-492h-82v210l-479 -30l-11 74l490 22v149h-471v67z" />
    <glyph glyph-name="uni314C" unicode="&#x314c;" 
d="M269 205h483v-66h-565v474h557v-67h-475v-133h468v-66h-468v-142z" />
    <glyph glyph-name="uni314D" unicode="&#x314d;" 
d="M638 208h130v-66h-606v66h130v344h-116v67h578v-67h-116v-344zM374 552v-344h183v344h-183z" />
    <glyph glyph-name="uni314E" unicode="&#x314e;" 
d="M506 552h256v-68h-594v68h256v121h82v-121zM465 421q48 0 88.5 -12t70 -33.5t46 -52t16.5 -66.5t-16.5 -66.5t-46 -52t-70 -33.5t-88.5 -12t-88 12t-69.5 33.5t-46 52t-16.5 66.5t16.5 66.5t46 52t69.5 33.5t88 12zM465 162q29 0 54 7t43.5 19.5t29 30t10.5 38.5
t-10.5 38.5t-29 30t-43.5 19.5t-54 7t-54 -7t-43 -19.5t-28.5 -30t-10.5 -38.5t10.5 -38.5t28.5 -30t43 -19.5t54 -7z" />
    <glyph glyph-name="uni314F" unicode="&#x314f;" 
d="M683 462v-69h-208v-453h-82v881h82v-359h208z" />
    <glyph glyph-name="uni3150" unicode="&#x3150;" 
d="M544 820h78v-880h-78v459h-154v-426h-78v833h78v-340h154v354z" />
    <glyph glyph-name="uni3151" unicode="&#x3151;" 
d="M650 492h-203v-176h203v-68h-203v-308h-82v880h82v-260h203v-68z" />
    <glyph glyph-name="uni3152" unicode="&#x3152;" 
d="M541 821h79v-881h-79v325h-151v-292h-77v835h77v-232h151v245zM390 333h151v175h-151v-175z" />
    <glyph glyph-name="uni3153" unicode="&#x3153;" 
d="M508 820h83v-880h-83v458h-209v69h209v353z" />
    <glyph glyph-name="uni3154" unicode="&#x3154;" 
d="M576 821h78v-881h-78v881zM398 469v338h77v-836h-77v430h-164v68h164z" />
    <glyph glyph-name="uni3155" unicode="&#x3155;" 
d="M511 820h82v-880h-82v332h-211v68h211v168h-211v68h211v244z" />
    <glyph glyph-name="uni3156" unicode="&#x3156;" 
d="M573 821h79v-881h-79v881zM398 582v226h77v-836h-77v305h-168v68h168v169h-167v68h167z" />
    <glyph glyph-name="uni3157" unicode="&#x3157;" 
d="M500 227h363v-67h-807v67h361v375h83v-375z" />
    <glyph glyph-name="uni3158" unicode="&#x3158;" 
d="M871 461v-68h-134v-453h-82v881h82v-360h134zM381 546v-306q60 3 118 7t112 11l7 -60q-68 -11 -140.5 -17.5t-143.5 -10.5t-138 -5t-125 -1l-11 69q54 0 115 0.5t125 2.5v310h81z" />
    <glyph glyph-name="uni3159" unicode="&#x3159;" 
d="M737 821h78v-881h-78v456h-101v-423h-78v836h78v-346h101v358zM337 549v-291q48 2 95 6t89 9l5 -60q-53 -9 -113 -15t-120 -9t-116 -4.5t-101 -1.5l-10 69q42 0 91 0.5t103 2.5v294h77z" />
    <glyph glyph-name="uni315A" unicode="&#x315a;" 
d="M707 820h82v-880h-82v880zM424 538v-285q60 3 117 7t111 12l6 -61q-68 -11 -140.5 -18t-143 -10.5t-137.5 -4.5t-124 -1l-12 69q54 0 115 0.5t127 2.5v289h81z" />
    <glyph glyph-name="uni315B" unicode="&#x315b;" 
d="M662 217h207v-68h-807v68h209v395h80v-395h230v395h81v-395z" />
    <glyph glyph-name="uni315C" unicode="&#x315c;" 
d="M868 606v-68h-363v-384h-82v384h-362v68h807z" />
    <glyph glyph-name="uni315D" unicode="&#x315d;" 
d="M737 820h83v-880h-83v260h-212v65h212v555zM667 455l6 -60q-69 -10 -139 -16t-140 -10v-361h-82v358q-60 -2 -115.5 -3t-106.5 -1l-11 68q65 0 138 1t149 3.5t152.5 7.5t148.5 13z" />
    <glyph glyph-name="uni315E" unicode="&#x315e;" 
d="M756 821h79v-881h-79v881zM587 267v533h78v-836h-78v238h-162v65h162zM538 451l6 -56q-46 -8 -96 -13.5t-102 -8.5v-366h-78v361q-51 -3 -98.5 -4.5t-87.5 -1.5l-9 65q48 0 107 1.5t121.5 4.5t123.5 7.5t113 10.5z" />
    <glyph glyph-name="uni315F" unicode="&#x315f;" 
d="M734 821h82v-881h-82v881zM688 449l6 -61q-126 -16 -257 -24v-355h-82v351q-66 -2 -128.5 -3t-119.5 -1l-11 69q66 0 139.5 1t150 3.5t153.5 7t149 12.5z" />
    <glyph glyph-name="uni3160" unicode="&#x3160;" 
d="M863 607v-67h-217v-387h-82v387h-213v-387h-82v387h-213v67h807z" />
    <glyph glyph-name="uni3161" unicode="&#x3161;" 
d="M56 414h807v-68h-807v68z" />
    <glyph glyph-name="uni3162" unicode="&#x3162;" 
d="M716 821h83v-882h-83v882zM91 233l-12 68q65 0 137.5 0.5t147.5 3.5t150.5 8t146.5 14l6 -60q-73 -11 -148.5 -17.5t-149.5 -10.5t-144.5 -5t-133.5 -1z" />
    <glyph glyph-name="uni3163" unicode="&#x3163;" 
d="M424 821h82v-882h-82v882z" />
    <glyph glyph-name="uni318D" unicode="&#x318d;" 
d="M455 381q0 24 18.5 44t44.5 20q28 0 46 -20t18 -44q0 -25 -18 -45t-46 -20q-26 0 -44 20t-19 45z" />
    <glyph glyph-name="uni318E" unicode="&#x318e;" 
d="M537 823h82v-886h-82v886zM319 387q0 25 18 44.5t45 19.5t45.5 -19.5t18.5 -44.5t-18.5 -44.5t-45.5 -19.5t-45 19.5t-18 44.5z" />
    <glyph glyph-name="uni3200" unicode="&#x3200;" horiz-adv-x="1000" 
d="M202 -61l-45 -14q-67 102 -96 211.5t-29 243.5q0 133 29 243t96 212l45 -14q-63 -97 -86.5 -208.5t-24.5 -232.5q0 -123 24 -233.5t87 -207.5zM843 -75l-45 14q62 97 86.5 211.5t24.5 229.5q0 121 -24 232.5t-87 208.5l45 14q67 -102 96 -212t29 -243q0 -134 -29 -243.5
t-96 -211.5zM233 599h503v-482h-79v417h-424v65z" />
    <glyph glyph-name="uni3201" unicode="&#x3201;" horiz-adv-x="1000" 
d="M157 835l45 -14q-63 -97 -86.5 -208.5t-24.5 -232.5q0 -123 24 -233.5t87 -207.5l-45 -14q-67 102 -96 211.5t-29 243.5q0 133 29 243t96 212zM798 821l45 14q67 -102 96 -212t29 -243q0 -134 -29 -243.5t-96 -211.5l-45 14q62 97 86.5 211.5t24.5 229.5q0 121 -24 232.5
t-87 208.5zM357 634v-410h410v-65h-489v475h79z" />
    <glyph glyph-name="uni3202" unicode="&#x3202;" horiz-adv-x="1000" 
d="M157 835l45 -14q-63 -97 -86.5 -208.5t-24.5 -232.5q0 -123 24 -233.5t87 -207.5l-45 -14q-67 102 -96 211.5t-29 243.5q0 133 29 243t96 212zM798 821l45 14q67 -102 96 -212t29 -243q0 -134 -29 -243.5t-96 -211.5l-45 14q62 97 86.5 211.5t24.5 229.5q0 121 -24 232.5
t-87 208.5zM344 562v-346h411v-65h-490v476h479v-65h-400z" />
    <glyph glyph-name="uni3203" unicode="&#x3203;" horiz-adv-x="1000" 
d="M157 835l45 -14q-63 -97 -86.5 -208.5t-24.5 -232.5q0 -123 24 -233.5t87 -207.5l-45 -14q-67 102 -96 211.5t-29 243.5q0 133 29 243t96 212zM798 821l45 14q67 -102 96 -212t29 -243q0 -134 -29 -243.5t-96 -211.5l-45 14q62 97 86.5 211.5t24.5 229.5q0 121 -24 232.5
t-87 208.5zM334 353v-165h422v-66h-497v293h405v161h-407v61h481v-284h-404z" />
    <glyph glyph-name="uni3204" unicode="&#x3204;" horiz-adv-x="1000" 
d="M202 -61l-45 -14q-67 102 -96 211.5t-29 243.5q0 133 29 243t96 212l45 -14q-63 -97 -86.5 -208.5t-24.5 -232.5q0 -123 24 -233.5t87 -207.5zM843 -75l-45 14q62 97 86.5 211.5t24.5 229.5q0 121 -24 232.5t-87 208.5l45 14q67 -102 96 -212t29 -243q0 -134 -29 -243.5
t-96 -211.5zM265 607h480v-456h-480v456zM667 542h-323v-326h323v326z" />
    <glyph glyph-name="uni3205" unicode="&#x3205;" horiz-adv-x="1000" 
d="M202 -61l-45 -14q-67 102 -96 211.5t-29 243.5q0 133 29 243t96 212l45 -14q-63 -97 -86.5 -208.5t-24.5 -232.5q0 -123 24 -233.5t87 -207.5zM843 -75l-45 14q62 97 86.5 211.5t24.5 229.5q0 121 -24 232.5t-87 208.5l45 14q67 -102 96 -212t29 -243q0 -134 -29 -243.5
t-96 -211.5zM262 636h78v-178h327v178h78v-505h-483v505zM340 388v-187h327v187h-327z" />
    <glyph glyph-name="uni3206" unicode="&#x3206;" horiz-adv-x="1000" 
d="M157 835l45 -14q-63 -97 -86.5 -208.5t-24.5 -232.5q0 -123 24 -233.5t87 -207.5l-45 -14q-67 102 -96 211.5t-29 243.5q0 133 29 243t96 212zM798 821l45 14q67 -102 96 -212t29 -243q0 -134 -29 -243.5t-96 -211.5l-45 14q62 97 86.5 211.5t24.5 229.5q0 121 -24 232.5
t-87 208.5zM546 648v-140q0 -50 17.5 -97t49.5 -86.5t77.5 -70t100.5 -47.5l-39 -64q-85 28 -147.5 83t-94.5 130q-32 -75 -95 -130.5t-148 -83.5l-40 64q56 17 101.5 47.5t78 70t50 86.5t17.5 98v140h72z" />
    <glyph glyph-name="uni3207" unicode="&#x3207;" horiz-adv-x="1000" 
d="M202 -61l-45 -14q-67 102 -96 211.5t-29 243.5q0 133 29 243t96 212l45 -14q-63 -97 -86.5 -208.5t-24.5 -232.5q0 -123 24 -233.5t87 -207.5zM843 -75l-45 14q62 97 86.5 211.5t24.5 229.5q0 121 -24 232.5t-87 208.5l45 14q67 -102 96 -212t29 -243q0 -134 -29 -243.5
t-96 -211.5zM503 616q55 0 102 -17t81 -48t53.5 -73.5t19.5 -93.5t-19.5 -94t-53.5 -74t-81 -48t-102 -17t-101.5 17t-81 48t-54 74t-19.5 94t19.5 93.5t54 73.5t81 48t101.5 17zM503 552q-40 0 -74 -12.5t-58.5 -35t-38.5 -53.5t-14 -67t14 -67t38.5 -53.5t58.5 -35
t74 -12.5t74 12.5t59 35t39 53.5t14 67t-14 67t-39 53.5t-59 35t-74 12.5z" />
    <glyph glyph-name="uni3208" unicode="&#x3208;" horiz-adv-x="1000" 
d="M157 835l45 -14q-63 -97 -86.5 -208.5t-24.5 -232.5q0 -123 24 -233.5t87 -207.5l-45 -14q-67 102 -96 211.5t-29 243.5q0 133 29 243t96 212zM798 821l45 14q67 -102 96 -212t29 -243q0 -134 -29 -243.5t-96 -211.5l-45 14q62 97 86.5 211.5t24.5 229.5q0 121 -24 232.5
t-87 208.5zM540 542v-52q0 -48 18.5 -91.5t52 -79.5t80 -63.5t101.5 -42.5l-37 -61q-88 26 -152.5 77.5t-98.5 123.5q-33 -72 -97.5 -124t-149.5 -77l-37 61q55 15 100.5 42.5t78.5 64t51 80t18 90.5v52h-216v65h506v-65h-218z" />
    <glyph glyph-name="uni3209" unicode="&#x3209;" horiz-adv-x="1000" 
d="M157 835l45 -14q-63 -97 -86.5 -208.5t-24.5 -232.5q0 -123 24 -233.5t87 -207.5l-45 -14q-67 102 -96 211.5t-29 243.5q0 133 29 243t96 212zM798 821l45 14q67 -102 96 -212t29 -243q0 -134 -29 -243.5t-96 -211.5l-45 14q62 97 86.5 211.5t24.5 229.5q0 121 -24 232.5
t-87 208.5zM544 475v-42q0 -41 16.5 -78.5t47 -68.5t73.5 -54.5t95 -36.5l-36 -60q-85 23 -145.5 70t-90.5 113q-30 -66 -91 -113.5t-149 -70.5l-35 61q54 13 97.5 36t74 54.5t47.5 69t17 78.5v42h-215v66h215v132h79v-132h212v-66h-212z" />
    <glyph glyph-name="uni320A" unicode="&#x320a;" horiz-adv-x="1000" 
d="M157 835l45 -14q-63 -97 -86.5 -208.5t-24.5 -232.5q0 -123 24 -233.5t87 -207.5l-45 -14q-67 102 -96 211.5t-29 243.5q0 133 29 243t96 212zM798 821l45 14q67 -102 96 -212t29 -243q0 -134 -29 -243.5t-96 -211.5l-45 14q62 97 86.5 211.5t24.5 229.5q0 121 -24 232.5
t-87 208.5zM258 551v65h486v-488h-79v221l-423 -26l-10 70l433 19v139h-407z" />
    <glyph glyph-name="uni320B" unicode="&#x320b;" horiz-adv-x="1000" 
d="M157 835l45 -14q-63 -97 -86.5 -208.5t-24.5 -232.5q0 -123 24 -233.5t87 -207.5l-45 -14q-67 102 -96 211.5t-29 243.5q0 133 29 243t96 212zM798 821l45 14q67 -102 96 -212t29 -243q0 -134 -29 -243.5t-96 -211.5l-45 14q62 97 86.5 211.5t24.5 229.5q0 121 -24 232.5
t-87 208.5zM340 351v-138h417v-65h-491v467h476v-65h-402v-134h401v-65h-401z" />
    <glyph glyph-name="uni320C" unicode="&#x320c;" horiz-adv-x="1000" 
d="M157 835l45 -14q-63 -97 -86.5 -208.5t-24.5 -232.5q0 -123 24 -233.5t87 -207.5l-45 -14q-67 102 -96 211.5t-29 243.5q0 133 29 243t96 212zM798 821l45 14q67 -102 96 -212t29 -243q0 -134 -29 -243.5t-96 -211.5l-45 14q62 97 86.5 211.5t24.5 229.5q0 121 -24 232.5
t-87 208.5zM672 532v-291h119v-65h-574v65h134v291h-110v64h528v-64h-97zM430 532v-291h163v291h-163z" />
    <glyph glyph-name="uni320D" unicode="&#x320d;" horiz-adv-x="1000" 
d="M157 835l45 -14q-63 -97 -86.5 -208.5t-24.5 -232.5q0 -123 24 -233.5t87 -207.5l-45 -14q-67 102 -96 211.5t-29 243.5q0 133 29 243t96 212zM798 821l45 14q67 -102 96 -212t29 -243q0 -134 -29 -243.5t-96 -211.5l-45 14q62 97 86.5 211.5t24.5 229.5q0 121 -24 232.5
t-87 208.5zM538 679v-120h238v-67h-552v67h236v120h78zM500 430q45 0 83.5 -13t66 -37t43.5 -57t16 -72t-16 -72t-43.5 -56.5t-66 -37t-83.5 -13.5t-83 13.5t-66 37t-44 56.5t-16 72t16 72t44 57t66 37t83 13zM500 137q29 0 53.5 8.5t42.5 24t28 36.5t10 45q0 25 -10 46
t-28 36.5t-42.5 24t-53.5 8.5q-58 0 -95.5 -32t-37.5 -83q0 -24 10 -45t27.5 -36.5t42 -24t53.5 -8.5z" />
    <glyph glyph-name="uni320E" unicode="&#x320e;" horiz-adv-x="1000" 
d="M157 835l41 -14q-63 -97 -86.5 -208.5t-24.5 -232.5q0 -123 24 -233.5t87 -207.5l-41 -14q-67 102 -96 211.5t-29 243.5q0 133 29 243t96 212zM802 821l41 14q67 -102 96 -212t29 -243q0 -134 -29 -243.5t-96 -211.5l-41 14q62 97 86.5 211.5t24.5 229.5q0 121 -24 232.5
t-87 208.5zM875 381h-133v-412h-82v817h82v-337h133v-68zM198 688h336q0 -86 -18.5 -166.5t-56.5 -154t-97.5 -138t-141.5 -118.5l-51 57q136 88 204.5 199t80.5 253h-256v68z" />
    <glyph glyph-name="uni320F" unicode="&#x320f;" horiz-adv-x="1000" 
d="M157 835l41 -14q-63 -97 -86.5 -208.5t-24.5 -232.5q0 -123 24 -233.5t87 -207.5l-41 -14q-67 102 -96 211.5t-29 243.5q0 133 29 243t96 212zM802 821l41 14q67 -102 96 -212t29 -243q0 -134 -29 -243.5t-96 -211.5l-41 14q62 97 86.5 211.5t24.5 229.5q0 121 -24 232.5
t-87 208.5zM880 388h-132v-419h-83v817h83v-330h132v-68zM269 704v-454q79 1 162 8t177 27l9 -71q-103 -21 -189.5 -28.5t-174.5 -7.5h-63v526h79z" />
    <glyph glyph-name="uni3210" unicode="&#x3210;" horiz-adv-x="1000" 
d="M157 835l41 -14q-63 -97 -86.5 -208.5t-24.5 -232.5q0 -123 24 -233.5t87 -207.5l-41 -14q-67 102 -96 211.5t-29 243.5q0 133 29 243t96 212zM802 821l41 14q67 -102 96 -212t29 -243q0 -134 -29 -243.5t-96 -211.5l-41 14q62 97 86.5 211.5t24.5 229.5q0 121 -24 232.5
t-87 208.5zM880 388h-123v-418h-82v817h82v-331h123v-68zM277 633v-404q47 0 89 1t81 4t78 8t80 13l9 -72q-45 -9 -86.5 -14.5t-84 -8t-87.5 -3.5t-97 -1h-62v546h354v-69h-274z" />
    <glyph glyph-name="uni3211" unicode="&#x3211;" horiz-adv-x="1000" 
d="M157 835l41 -14q-63 -97 -86.5 -208.5t-24.5 -232.5q0 -123 24 -233.5t87 -207.5l-41 -14q-67 102 -96 211.5t-29 243.5q0 133 29 243t96 212zM802 821l41 14q67 -102 96 -212t29 -243q0 -134 -29 -243.5t-96 -211.5l-41 14q62 97 86.5 211.5t24.5 229.5q0 121 -24 232.5
t-87 208.5zM868 387h-117v-418h-83v817h83v-331h117v-68zM283 408v-176q89 0 163.5 5t153.5 21l7 -71q-44 -8 -84.5 -13t-82 -8t-85.5 -4t-94 -1h-59v313h243v161h-245v66h326v-293h-243z" />
    <glyph glyph-name="uni3212" unicode="&#x3212;" horiz-adv-x="1000" 
d="M157 835l41 -14q-63 -97 -86.5 -208.5t-24.5 -232.5q0 -123 24 -233.5t87 -207.5l-41 -14q-67 102 -96 211.5t-29 243.5q0 133 29 243t96 212zM802 821l41 14q67 -102 96 -212t29 -243q0 -134 -29 -243.5t-96 -211.5l-41 14q62 97 86.5 211.5t24.5 229.5q0 121 -24 232.5
t-87 208.5zM875 384h-132v-415h-82v817h82v-334h132v-68zM188 175v521h336v-521h-336zM268 627v-384h175v384h-175z" />
    <glyph glyph-name="uni3213" unicode="&#x3213;" horiz-adv-x="1000" 
d="M157 835l41 -14q-63 -97 -86.5 -208.5t-24.5 -232.5q0 -123 24 -233.5t87 -207.5l-41 -14q-67 102 -96 211.5t-29 243.5q0 133 29 243t96 212zM802 821l41 14q67 -102 96 -212t29 -243q0 -134 -29 -243.5t-96 -211.5l-41 14q62 97 86.5 211.5t24.5 229.5q0 121 -24 232.5
t-87 208.5zM876 385h-124v-416h-82v817h82v-333h124v-68zM476 511v200h78v-559h-348v559h79v-200h191zM476 223v217h-191v-217h191z" />
    <glyph glyph-name="uni3214" unicode="&#x3214;" horiz-adv-x="1000" 
d="M157 835l41 -14q-63 -97 -86.5 -208.5t-24.5 -232.5q0 -123 24 -233.5t87 -207.5l-41 -14q-67 102 -96 211.5t-29 243.5q0 133 29 243t96 212zM802 821l41 14q67 -102 96 -212t29 -243q0 -134 -29 -243.5t-96 -211.5l-41 14q62 97 86.5 211.5t24.5 229.5q0 121 -24 232.5
t-87 208.5zM870 387h-125v-418h-82v817h82v-331h125v-68zM417 713v-150q0 -60 12 -116t36 -104.5t60 -86.5t83 -62l-53 -61q-67 38 -112 101t-68 148q-23 -85 -67.5 -148t-111.5 -101l-53 61q47 24 82.5 62t59.5 86.5t36 104.5t12 116v150h84z" />
    <glyph glyph-name="uni3215" unicode="&#x3215;" horiz-adv-x="1000" 
d="M157 835l41 -14q-63 -97 -86.5 -208.5t-24.5 -232.5q0 -123 24 -233.5t87 -207.5l-41 -14q-67 102 -96 211.5t-29 243.5q0 133 29 243t96 212zM802 821l41 14q67 -102 96 -212t29 -243q0 -134 -29 -243.5t-96 -211.5l-41 14q62 97 86.5 211.5t24.5 229.5q0 121 -24 232.5
t-87 208.5zM873 381h-120v-412h-82v817h82v-337h120v-68zM360 706q44 0 79 -19.5t59.5 -55.5t38 -87t13.5 -114t-13.5 -114t-38 -87t-59.5 -55t-79 -19q-43 0 -78 19t-60 55t-38 87t-13 114t13 114t38 87t60 55.5t78 19.5zM360 226q51 0 81.5 55t30.5 149t-30.5 149.5
t-81.5 55.5t-81.5 -55.5t-30.5 -149.5t30.5 -149t81.5 -55z" />
    <glyph glyph-name="uni3216" unicode="&#x3216;" horiz-adv-x="1000" 
d="M157 835l41 -14q-63 -97 -86.5 -208.5t-24.5 -232.5q0 -123 24 -233.5t87 -207.5l-41 -14q-67 102 -96 211.5t-29 243.5q0 133 29 243t96 212zM802 821l41 14q67 -102 96 -212t29 -243q0 -134 -29 -243.5t-96 -211.5l-41 14q62 97 86.5 211.5t24.5 229.5q0 121 -24 232.5
t-87 208.5zM875 384h-123v-415h-83v817h83v-334h123v-68zM424 629v-73q0 -59 11 -116.5t33 -107.5t56 -90.5t80 -65.5l-52 -59q-66 40 -107.5 106.5t-62.5 151.5q-20 -85 -62 -151.5t-108 -106.5l-51 59q46 25 79.5 65t55.5 90.5t33 108t11 116.5v73h-146v69h377v-69h-147z
" />
    <glyph glyph-name="uni3217" unicode="&#x3217;" horiz-adv-x="1000" 
d="M157 835l41 -14q-63 -97 -86.5 -208.5t-24.5 -232.5q0 -123 24 -233.5t87 -207.5l-41 -14q-67 102 -96 211.5t-29 243.5q0 133 29 243t96 212zM802 821l41 14q67 -102 96 -212t29 -243q0 -134 -29 -243.5t-96 -211.5l-41 14q62 97 86.5 211.5t24.5 229.5q0 121 -24 232.5
t-87 208.5zM875 375h-123v-406h-82v817h82v-343h123v-68zM419 531v-33q0 -51 12.5 -98.5t37 -88t60 -73t80.5 -52.5l-47 -61q-67 32 -113.5 87.5t-70.5 128.5q-23 -73 -69.5 -128.5t-113.5 -87.5l-47 61q45 20 80.5 52.5t60 73t37 88t12.5 98.5v33h-165v68h164v138h82v-138
h165v-68h-165z" />
    <glyph glyph-name="uni3218" unicode="&#x3218;" horiz-adv-x="1000" 
d="M157 835l41 -14q-63 -97 -86.5 -208.5t-24.5 -232.5q0 -123 24 -233.5t87 -207.5l-41 -14q-67 102 -96 211.5t-29 243.5q0 133 29 243t96 212zM802 821l41 14q67 -102 96 -212t29 -243q0 -134 -29 -243.5t-96 -211.5l-41 14q62 97 86.5 211.5t24.5 229.5q0 121 -24 232.5
t-87 208.5zM869 380h-125v-411h-82v817h82v-338h125v-68zM210 691h334q0 -85 -15 -167t-50.5 -157t-92.5 -142.5t-141 -124.5l-54 55q91 60 146.5 129t86.5 150l-226 -22l-13 69l260 18q8 30 12.5 61t6.5 63h-254v68z" />
    <glyph glyph-name="uni3219" unicode="&#x3219;" horiz-adv-x="1000" 
d="M157 835l41 -14q-63 -97 -86.5 -208.5t-24.5 -232.5q0 -123 24 -233.5t87 -207.5l-41 -14q-67 102 -96 211.5t-29 243.5q0 133 29 243t96 212zM802 821l41 14q67 -102 96 -212t29 -243q0 -134 -29 -243.5t-96 -211.5l-41 14q62 97 86.5 211.5t24.5 229.5q0 121 -24 232.5
t-87 208.5zM880 380h-127v-411h-83v817h83v-338h127v-68zM280 403v-173q46 0 86.5 1t79 3.5t76.5 7t78 12.5l8 -71q-44 -8 -85.5 -13t-83.5 -7.5t-86 -3.5t-95 -1h-60v538h353v-69h-271v-155h254v-69h-254z" />
    <glyph glyph-name="uni321A" unicode="&#x321a;" horiz-adv-x="1000" 
d="M157 835l41 -14q-63 -97 -86.5 -208.5t-24.5 -232.5q0 -123 24 -233.5t87 -207.5l-41 -14q-67 102 -96 211.5t-29 243.5q0 133 29 243t96 212zM802 821l41 14q67 -102 96 -212t29 -243q0 -134 -29 -243.5t-96 -211.5l-41 14q62 97 86.5 211.5t24.5 229.5q0 121 -24 232.5
t-87 208.5zM880 381h-115v-412h-82v817h82v-337h115v-68zM524 623v-390q28 2 54.5 4.5t51.5 5.5l4 -60q-57 -9 -120 -14.5t-126 -9t-121.5 -4.5t-106.5 -1l-9 68h74q13 0 27 1v400h-78v68h423v-68h-73zM329 623v-399q29 1 59 1.5t59 2.5v395h-118z" />
    <glyph glyph-name="uni321B" unicode="&#x321b;" horiz-adv-x="1000" 
d="M157 835l41 -14q-63 -97 -86.5 -208.5t-24.5 -232.5q0 -123 24 -233.5t87 -207.5l-41 -14q-67 102 -96 211.5t-29 243.5q0 133 29 243t96 212zM802 821l41 14q67 -102 96 -212t29 -243q0 -134 -29 -243.5t-96 -211.5l-41 14q62 97 86.5 211.5t24.5 229.5q0 121 -24 232.5
t-87 208.5zM875 383h-114v-414h-82v817h82v-337h114v-66zM420 756v-127h186v-68h-456v68h187v127h83zM377 496q42 0 77 -13t61 -37t40.5 -57t14.5 -73q0 -39 -14.5 -72t-40.5 -57t-61 -37.5t-77 -13.5q-41 0 -76.5 13.5t-61 37.5t-40 57t-14.5 72q0 40 14.5 73t40 57t61 37
t76.5 13zM377 200q51 0 84.5 32.5t33.5 83.5t-33.5 83.5t-84.5 32.5t-84.5 -32.5t-33.5 -83.5t33.5 -83.5t84.5 -32.5z" />
    <glyph glyph-name="uni321C" unicode="&#x321c;" horiz-adv-x="1000" 
d="M157 835l41 -14q-63 -97 -86.5 -208.5t-24.5 -232.5q0 -123 24 -233.5t87 -207.5l-41 -14q-67 102 -96 211.5t-29 243.5q0 133 29 243t96 212zM802 821l41 14q67 -102 96 -212t29 -243q0 -134 -29 -243.5t-96 -211.5l-41 14q62 97 86.5 211.5t24.5 229.5q0 121 -24 232.5
t-87 208.5zM210 400l-33 64q53 8 103 27t89.5 46t65 60t28.5 69h-235v69h555v-69h-234q3 -36 28.5 -69t65.5 -60t90 -45.5t102 -26.5l-33 -65q-47 8 -92 24t-84 38.5t-70 51.5t-50 62q-19 -33 -49.5 -62t-69.5 -51.5t-84 -38.5t-93 -24zM852 271h-305v-305h-82v305h-306v69
h693v-69z" />
    <glyph glyph-name="uni3260" unicode="&#x3260;" horiz-adv-x="1000" 
d="M966 380q0 -96 -36.5 -181t-100 -148.5t-148.5 -100t-181 -36.5t-181 36.5t-148.5 100t-100 148.5t-36.5 181t36.5 181t100 148.5t148.5 100t181 36.5t181 -36.5t148.5 -100t100 -148.5t36.5 -181zM500 814q-90 0 -169 -34t-138 -93t-93 -138t-34 -169t34 -169t93 -138
t138 -93t169 -34t169 34t138 93t93 138t34 169t-34 169t-93 138t-138 93t-169 34zM256 569h455v-438h-79v373h-376v65z" />
    <glyph glyph-name="uni3261" unicode="&#x3261;" horiz-adv-x="1000" 
d="M500 846q96 0 181 -36.5t148.5 -100t100 -148.5t36.5 -181t-36.5 -181t-100 -148.5t-148.5 -100t-181 -36.5t-181 36.5t-148.5 100t-100 148.5t-36.5 181t36.5 181t100 148.5t148.5 100t181 36.5zM500 -54q90 0 169 34t138 93t93 138t34 169t-34 169t-93 138t-138 93
t-169 34t-169 -34t-138 -93t-93 -138t-34 -169t34 -169t93 -138t138 -93t169 -34zM384 608v-360h364v-65h-443v425h79z" />
    <glyph glyph-name="uni3262" unicode="&#x3262;" horiz-adv-x="1000" 
d="M500 846q96 0 181 -36.5t148.5 -100t100 -148.5t36.5 -181t-36.5 -181t-100 -148.5t-148.5 -100t-181 -36.5t-181 36.5t-148.5 100t-100 148.5t-36.5 181t36.5 181t100 148.5t148.5 100t181 36.5zM500 -54q90 0 169 34t138 93t93 138t34 169t-34 169t-93 138t-138 93
t-169 34t-169 -34t-138 -93t-93 -138t-34 -169t34 -169t93 -138t138 -93t169 -34zM362 521v-304h364v-65h-444v434h434v-65h-354z" />
    <glyph glyph-name="uni3263" unicode="&#x3263;" horiz-adv-x="1000" 
d="M500 846q96 0 181 -36.5t148.5 -100t100 -148.5t36.5 -181t-36.5 -181t-100 -148.5t-148.5 -100t-181 -36.5t-181 36.5t-148.5 100t-100 148.5t-36.5 181t36.5 181t100 148.5t148.5 100t181 36.5zM500 -54q90 0 169 34t138 93t93 138t34 169t-34 169t-93 138t-138 93
t-169 34t-169 -34t-138 -93t-93 -138t-34 -169t34 -169t93 -138t138 -93t169 -34zM357 350v-142h383v-66h-458v270h362v144h-364v58h439v-264h-362z" />
    <glyph glyph-name="uni3264" unicode="&#x3264;" horiz-adv-x="1000" 
d="M966 380q0 -96 -36.5 -181t-100 -148.5t-148.5 -100t-181 -36.5t-181 36.5t-148.5 100t-100 148.5t-36.5 181t36.5 181t100 148.5t148.5 100t181 36.5t181 -36.5t148.5 -100t100 -148.5t36.5 -181zM500 814q-90 0 -169 -34t-138 -93t-93 -138t-34 -169t34 -169t93 -138
t138 -93t169 -34t169 34t138 93t93 138t34 169t-34 169t-93 138t-138 93t-169 34zM281 565h435v-411h-435v411zM638 501h-279v-283h279v283z" />
    <glyph glyph-name="uni3265" unicode="&#x3265;" horiz-adv-x="1000" 
d="M966 380q0 -96 -36.5 -181t-100 -148.5t-148.5 -100t-181 -36.5t-181 36.5t-148.5 100t-100 148.5t-36.5 181t36.5 181t100 148.5t148.5 100t181 36.5t181 -36.5t148.5 -100t100 -148.5t36.5 -181zM500 814q-90 0 -169 -34t-138 -93t-93 -138t-34 -169t34 -169t93 -138
t138 -93t169 -34t169 34t138 93t93 138t34 169t-34 169t-93 138t-138 93t-169 34zM278 593h78v-162h282v162h78v-458h-438v458zM356 368v-171h282v171h-282z" />
    <glyph glyph-name="uni3266" unicode="&#x3266;" horiz-adv-x="1000" 
d="M500 846q96 0 181 -36.5t148.5 -100t100 -148.5t36.5 -181t-36.5 -181t-100 -148.5t-148.5 -100t-181 -36.5t-181 36.5t-148.5 100t-100 148.5t-36.5 181t36.5 181t100 148.5t148.5 100t181 36.5zM500 -54q90 0 169 34t138 93t93 138t34 169t-34 169t-93 138t-138 93
t-169 34t-169 -34t-138 -93t-93 -138t-34 -169t34 -169t93 -138t138 -93t169 -34zM532 608v-127q0 -41 17 -81t47.5 -75t73.5 -62.5t95 -43.5l-39 -60q-78 26 -136.5 76t-90.5 116q-30 -66 -87.5 -116.5t-135.5 -76.5l-40 60q53 16 95 44t72 63t46 75.5t16 80.5v127h67z" />
    <glyph glyph-name="uni3267" unicode="&#x3267;" horiz-adv-x="1000" 
d="M966 380q0 -96 -36.5 -181t-100 -148.5t-148.5 -100t-181 -36.5t-181 36.5t-148.5 100t-100 148.5t-36.5 181t36.5 181t100 148.5t148.5 100t181 36.5t181 -36.5t148.5 -100t100 -148.5t36.5 -181zM500 814q-90 0 -169 -34t-138 -93t-93 -138t-34 -169t34 -169t93 -138
t138 -93t169 -34t169 34t138 93t93 138t34 169t-34 169t-93 138t-138 93t-169 34zM499 574q50 0 92.5 -15.5t73.5 -43.5t48.5 -66.5t17.5 -84.5t-17.5 -85t-48.5 -67t-73.5 -43.5t-92.5 -15.5t-92.5 15.5t-73.5 43.5t-48.5 67t-17.5 85t17.5 84.5t48.5 66.5t73.5 43.5
t92.5 15.5zM499 516q-36 0 -66.5 -11.5t-52.5 -32t-34.5 -48t-12.5 -60.5t12.5 -61t34.5 -48t52.5 -31.5t66.5 -11.5t66.5 11.5t52.5 31.5t34.5 48t12.5 61t-12.5 60.5t-34.5 48t-52.5 32t-66.5 11.5z" />
    <glyph glyph-name="uni3268" unicode="&#x3268;" horiz-adv-x="1000" 
d="M500 846q96 0 181 -36.5t148.5 -100t100 -148.5t36.5 -181t-36.5 -181t-100 -148.5t-148.5 -100t-181 -36.5t-181 36.5t-148.5 100t-100 148.5t-36.5 181t36.5 181t100 148.5t148.5 100t181 36.5zM500 -54q90 0 169 34t138 93t93 138t34 169t-34 169t-93 138t-138 93
t-169 34t-169 -34t-138 -93t-93 -138t-34 -169t34 -169t93 -138t138 -93t169 -34zM532 503v-29q0 -40 16 -77.5t45.5 -69t71 -55.5t93.5 -37l-36 -59q-78 23 -135.5 67.5t-87.5 104.5q-30 -60 -87.5 -104.5t-136.5 -67.5l-36 59q52 13 94 37t71.5 55.5t45.5 69t16 77.5v29
h-195v65h457v-65h-196z" />
    <glyph glyph-name="uni3269" unicode="&#x3269;" horiz-adv-x="1000" 
d="M500 846q96 0 181 -36.5t148.5 -100t100 -148.5t36.5 -181t-36.5 -181t-100 -148.5t-148.5 -100t-181 -36.5t-181 36.5t-148.5 100t-100 148.5t-36.5 181t36.5 181t100 148.5t148.5 100t181 36.5zM500 -54q90 0 169 34t138 93t93 138t34 169t-34 169t-93 138t-138 93
t-169 34t-169 -34t-138 -93t-93 -138t-34 -169t34 -169t93 -138t138 -93t169 -34zM540 446v-15q0 -35 14.5 -67.5t42 -60t67 -48.5t89.5 -33l-35 -60q-78 21 -132.5 62.5t-82.5 98.5q-28 -57 -82.5 -98.5t-132.5 -62.5l-35 60q50 12 89 33t66.5 48.5t42 60t14.5 67.5v15
h-191v65h191v122h75v-122h193v-65h-193z" />
    <glyph glyph-name="uni326A" unicode="&#x326a;" horiz-adv-x="1000" 
d="M500 846q96 0 181 -36.5t148.5 -100t100 -148.5t36.5 -181t-36.5 -181t-100 -148.5t-148.5 -100t-181 -36.5t-181 36.5t-148.5 100t-100 148.5t-36.5 181t36.5 181t100 148.5t148.5 100t181 36.5zM500 -54q90 0 169 34t138 93t93 138t34 169t-34 169t-93 138t-138 93
t-169 34t-169 -34t-138 -93t-93 -138t-34 -169t34 -169t93 -138t138 -93t169 -34zM277 511v62h441v-443h-73v200l-376 -25l-12 69l388 18v119h-368z" />
    <glyph glyph-name="uni326B" unicode="&#x326b;" horiz-adv-x="1000" 
d="M500 846q96 0 181 -36.5t148.5 -100t100 -148.5t36.5 -181t-36.5 -181t-100 -148.5t-148.5 -100t-181 -36.5t-181 36.5t-148.5 100t-100 148.5t-36.5 181t36.5 181t100 148.5t148.5 100t181 36.5zM500 -54q90 0 169 34t138 93t93 138t34 169t-34 169t-93 138t-138 93
t-169 34t-169 -34t-138 -93t-93 -138t-34 -169t34 -169t93 -138t138 -93t169 -34zM357 330v-113h370v-65h-449v423h440v-65h-361v-115h357v-65h-357z" />
    <glyph glyph-name="uni326C" unicode="&#x326c;" horiz-adv-x="1000" 
d="M500 846q96 0 181 -36.5t148.5 -100t100 -148.5t36.5 -181t-36.5 -181t-100 -148.5t-148.5 -100t-181 -36.5t-181 36.5t-148.5 100t-100 148.5t-36.5 181t36.5 181t100 148.5t148.5 100t181 36.5zM500 -54q90 0 169 34t138 93t93 138t34 169t-34 169t-93 138t-138 93
t-169 34t-169 -34t-138 -93t-93 -138t-34 -169t34 -169t93 -138t138 -93t169 -34zM652 491v-252h107v-65h-522v65h109v252h-87v65h478v-65h-85zM420 491v-252h159v252h-159z" />
    <glyph glyph-name="uni326D" unicode="&#x326d;" horiz-adv-x="1000" 
d="M500 846q96 0 181 -36.5t148.5 -100t100 -148.5t36.5 -181t-36.5 -181t-100 -148.5t-148.5 -100t-181 -36.5t-181 36.5t-148.5 100t-100 148.5t-36.5 181t36.5 181t100 148.5t148.5 100t181 36.5zM500 -54q90 0 169 34t138 93t93 138t34 169t-34 169t-93 138t-138 93
t-169 34t-169 -34t-138 -93t-93 -138t-34 -169t34 -169t93 -138t138 -93t169 -34zM537 632v-103h217v-63h-512v63h218v103h77zM499 416q40 0 74 -12t59 -34t39 -51.5t14 -65.5t-14 -65.5t-39 -51.5t-59 -34t-74 -12q-39 0 -73 12t-59 34t-39.5 51.5t-14.5 65.5t14.5 65.5
t39.5 51.5t59 34t73 12zM499 148q51 0 84 30t33 75t-33 75t-84 30t-83.5 -30t-32.5 -75t32.5 -75t83.5 -30z" />
    <glyph glyph-name="uni326E" unicode="&#x326e;" horiz-adv-x="1000" 
d="M500 846q96 0 181 -36.5t148.5 -100t100 -148.5t36.5 -181t-36.5 -181t-100 -148.5t-148.5 -100t-181 -36.5t-181 36.5t-148.5 100t-100 148.5t-36.5 181t36.5 181t100 148.5t148.5 100t181 36.5zM500 -54q90 0 169 34t138 93t93 138t34 169t-34 169t-93 138t-138 93
t-169 34t-169 -34t-138 -93t-93 -138t-34 -169t34 -169t93 -138t138 -93t169 -34zM713 449h126v-68h-126v-355h-81v715h81v-292zM204 645h302q0 -163 -71.5 -286.5t-224.5 -214.5l-49 57q118 70 185 164t79 212h-221v68z" />
    <glyph glyph-name="uni326F" unicode="&#x326f;" horiz-adv-x="1000" 
d="M500 846q96 0 181 -36.5t148.5 -100t100 -148.5t36.5 -181t-36.5 -181t-100 -148.5t-148.5 -100t-181 -36.5t-181 36.5t-148.5 100t-100 148.5t-36.5 181t36.5 181t100 148.5t148.5 100t181 36.5zM500 -54q90 0 169 34t138 93t93 138t34 169t-34 169t-93 138t-138 93
t-169 34t-169 -34t-138 -93t-93 -138t-34 -169t34 -169t93 -138t138 -93t169 -34zM723 449h121v-68h-121v-355h-81v715h81v-292zM265 638v-387q72 1 147.5 7.5t160.5 24.5l9 -71q-97 -20 -178.5 -26.5t-159.5 -6.5h-59v459h80z" />
    <glyph glyph-name="uni3270" unicode="&#x3270;" horiz-adv-x="1000" 
d="M500 846q96 0 181 -36.5t148.5 -100t100 -148.5t36.5 -181t-36.5 -181t-100 -148.5t-148.5 -100t-181 -36.5t-181 36.5t-148.5 100t-100 148.5t-36.5 181t36.5 181t100 148.5t148.5 100t181 36.5zM500 -54q90 0 169 34t138 93t93 138t34 169t-34 169t-93 138t-138 93
t-169 34t-169 -34t-138 -93t-93 -138t-34 -169t34 -169t93 -138t138 -93t169 -34zM720 431h119v-69h-119v-336h-82v715h82v-310zM269 577v-322q84 0 155.5 4t146.5 20l9 -71q-42 -8 -81 -13t-79 -8t-82 -4t-90 -1h-59v463h334v-68h-254z" />
    <glyph glyph-name="uni3271" unicode="&#x3271;" horiz-adv-x="1000" 
d="M500 846q96 0 181 -36.5t148.5 -100t100 -148.5t36.5 -181t-36.5 -181t-100 -148.5t-148.5 -100t-181 -36.5t-181 36.5t-148.5 100t-100 148.5t-36.5 181t36.5 181t100 148.5t148.5 100t181 36.5zM500 -54q90 0 169 34t138 93t93 138t34 169t-34 169t-93 138t-138 93
t-169 34t-169 -34t-138 -93t-93 -138t-34 -169t34 -169t93 -138t138 -93t169 -34zM717 449h122v-68h-122v-355h-81v715h81v-292zM263 393v-150q42 0 79 1t73 3.5t72 7.5t74 13l8 -70q-42 -8 -81 -13t-78.5 -7.5t-81.5 -3.5t-89 -1h-57v284h237v130h-239v65h320v-259h-237z
" />
    <glyph glyph-name="uni3272" unicode="&#x3272;" horiz-adv-x="1000" 
d="M500 846q96 0 181 -36.5t148.5 -100t100 -148.5t36.5 -181t-36.5 -181t-100 -148.5t-148.5 -100t-181 -36.5t-181 36.5t-148.5 100t-100 148.5t-36.5 181t36.5 181t100 148.5t148.5 100t181 36.5zM500 -54q90 0 169 34t138 93t93 138t34 169t-34 169t-93 138t-138 93
t-169 34t-169 -34t-138 -93t-93 -138t-34 -169t34 -169t93 -138t138 -93t169 -34zM717 449h125v-68h-125v-355h-81v715h81v-292zM188 192v462h324v-462h-324zM266 588v-331h168v331h-168z" />
    <glyph glyph-name="uni3273" unicode="&#x3273;" horiz-adv-x="1000" 
d="M500 846q96 0 181 -36.5t148.5 -100t100 -148.5t36.5 -181t-36.5 -181t-100 -148.5t-148.5 -100t-181 -36.5t-181 36.5t-148.5 100t-100 148.5t-36.5 181t36.5 181t100 148.5t148.5 100t181 36.5zM500 -54q90 0 169 34t138 93t93 138t34 169t-34 169t-93 138t-138 93
t-169 34t-169 -34t-138 -93t-93 -138t-34 -169t34 -169t93 -138t138 -93t169 -34zM720 449h119v-68h-119v-355h-82v715h82v-292zM441 498v171h76v-499h-327v499h76v-171h175zM441 241v186h-175v-186h175z" />
    <glyph glyph-name="uni3274" unicode="&#x3274;" horiz-adv-x="1000" 
d="M500 846q96 0 181 -36.5t148.5 -100t100 -148.5t36.5 -181t-36.5 -181t-100 -148.5t-148.5 -100t-181 -36.5t-181 36.5t-148.5 100t-100 148.5t-36.5 181t36.5 181t100 148.5t148.5 100t181 36.5zM500 -54q90 0 169 34t138 93t93 138t34 169t-34 169t-93 138t-138 93
t-169 34t-169 -34t-138 -93t-93 -138t-34 -169t34 -169t93 -138t138 -93t169 -34zM713 449h126v-68h-126v-355h-81v715h81v-292zM390 685v-79q0 -59 11.5 -115t34 -104t57 -87t80.5 -64l-52 -60q-66 37 -107.5 99.5t-63.5 143.5q-23 -81 -64.5 -143.5t-107.5 -99.5l-53 60
q47 25 81.5 63.5t57.5 86.5t34 104t11 116v79h81z" />
    <glyph glyph-name="uni3275" unicode="&#x3275;" horiz-adv-x="1000" 
d="M500 846q96 0 181 -36.5t148.5 -100t100 -148.5t36.5 -181t-36.5 -181t-100 -148.5t-148.5 -100t-181 -36.5t-181 36.5t-148.5 100t-100 148.5t-36.5 181t36.5 181t100 148.5t148.5 100t181 36.5zM500 -54q90 0 169 34t138 93t93 138t34 169t-34 169t-93 138t-138 93
t-169 34t-169 -34t-138 -93t-93 -138t-34 -169t34 -169t93 -138t138 -93t169 -34zM708 453h125v-68h-125v-359h-82v715h82v-288zM345 671q81 0 128 -67t47 -185q0 -58 -12 -104.5t-35 -79.5t-55 -50.5t-73 -17.5q-40 0 -72.5 17.5t-55 50.5t-35 79.5t-12.5 104.5
q0 118 47 185t128 67zM345 237q48 0 74 48.5t26 133.5t-26 133.5t-74 48.5t-73.5 -48.5t-25.5 -133.5t25.5 -133.5t73.5 -48.5z" />
    <glyph glyph-name="uni3276" unicode="&#x3276;" horiz-adv-x="1000" 
d="M500 846q96 0 181 -36.5t148.5 -100t100 -148.5t36.5 -181t-36.5 -181t-100 -148.5t-148.5 -100t-181 -36.5t-181 36.5t-148.5 100t-100 148.5t-36.5 181t36.5 181t100 148.5t148.5 100t181 36.5zM500 -54q90 0 169 34t138 93t93 138t34 169t-34 169t-93 138t-138 93
t-169 34t-169 -34t-138 -93t-93 -138t-34 -169t34 -169t93 -138t138 -93t169 -34zM716 449h123v-68h-123v-355h-81v715h81v-292zM407 582v-61q0 -42 11 -83.5t32.5 -78t54 -66t75.5 -47.5l-44 -58q-63 29 -105 79t-63 114q-22 -64 -64 -114t-105 -79l-44 59q43 18 75.5 47
t54 65.5t32.5 78t11 83.5v61h-143v68h366v-68h-144z" />
    <glyph glyph-name="uni3277" unicode="&#x3277;" horiz-adv-x="1000" 
d="M500 846q96 0 181 -36.5t148.5 -100t100 -148.5t36.5 -181t-36.5 -181t-100 -148.5t-148.5 -100t-181 -36.5t-181 36.5t-148.5 100t-100 148.5t-36.5 181t36.5 181t100 148.5t148.5 100t181 36.5zM500 -54q90 0 169 34t138 93t93 138t34 169t-34 169t-93 138t-138 93
t-169 34t-169 -34t-138 -93t-93 -138t-34 -169t34 -169t93 -138t138 -93t169 -34zM718 449h122v-68h-122v-355h-82v715h82v-292zM404 511v-32q0 -38 11 -75t33 -69.5t54 -58.5t74 -42l-44 -62q-63 26 -105 72t-64 104q-22 -58 -64 -104t-105 -72l-44 62q42 16 74.5 42
t54.5 58.5t33 69.5t11 75v32h-146v69h145v110h82v-110h138v-69h-138z" />
    <glyph glyph-name="uni3278" unicode="&#x3278;" horiz-adv-x="1000" 
d="M500 846q96 0 181 -36.5t148.5 -100t100 -148.5t36.5 -181t-36.5 -181t-100 -148.5t-148.5 -100t-181 -36.5t-181 36.5t-148.5 100t-100 148.5t-36.5 181t36.5 181t100 148.5t148.5 100t181 36.5zM500 -54q90 0 169 34t138 93t93 138t34 169t-34 169t-93 138t-138 93
t-169 34t-169 -34t-138 -93t-93 -138t-34 -169t34 -169t93 -138t138 -93t169 -34zM717 433h123v-68h-123v-339h-81v715h81v-308zM209 647h315q0 -81 -16 -154t-52 -138.5t-94 -121.5t-141 -102l-53 53q88 45 142.5 99.5t86.5 120.5l-222 -22l-13 69l261 18q8 26 13 53.5
t7 56.5h-234v68z" />
    <glyph glyph-name="uni3279" unicode="&#x3279;" horiz-adv-x="1000" 
d="M500 846q96 0 181 -36.5t148.5 -100t100 -148.5t36.5 -181t-36.5 -181t-100 -148.5t-148.5 -100t-181 -36.5t-181 36.5t-148.5 100t-100 148.5t-36.5 181t36.5 181t100 148.5t148.5 100t181 36.5zM500 -54q90 0 169 34t138 93t93 138t34 169t-34 169t-93 138t-138 93
t-169 34t-169 -34t-138 -93t-93 -138t-34 -169t34 -169t93 -138t138 -93t169 -34zM717 449h122v-68h-122v-355h-81v715h81v-292zM263 399v-143q86 0 157 4.5t149 18.5l8 -71q-43 -8 -83 -12.5t-80 -7t-82.5 -3.5t-91.5 -1h-58v482h336v-69h-255v-131h232v-67h-232z" />
    <glyph glyph-name="uni327A" unicode="&#x327a;" horiz-adv-x="1000" 
d="M500 846q96 0 181 -36.5t148.5 -100t100 -148.5t36.5 -181t-36.5 -181t-100 -148.5t-148.5 -100t-181 -36.5t-181 36.5t-148.5 100t-100 148.5t-36.5 181t36.5 181t100 148.5t148.5 100t181 36.5zM500 -54q90 0 169 34t138 93t93 138t34 169t-34 169t-93 138t-138 93
t-169 34t-169 -34t-138 -93t-93 -138t-34 -169t34 -169t93 -138t138 -93t169 -34zM726 449h117v-68h-117v-355h-82v715h82v-292zM491 577v-321q55 3 101 9l4 -59q-53 -9 -113 -14.5t-120 -8.5t-116 -4t-100 -1l-9 68h75q13 0 27 1v330h-74v68h398v-68h-73zM313 577v-329
l105 3v326h-105z" />
    <glyph glyph-name="uni327B" unicode="&#x327b;" horiz-adv-x="1000" 
d="M500 846q96 0 181 -36.5t148.5 -100t100 -148.5t36.5 -181t-36.5 -181t-100 -148.5t-148.5 -100t-181 -36.5t-181 36.5t-148.5 100t-100 148.5t-36.5 181t36.5 181t100 148.5t148.5 100t181 36.5zM500 -54q90 0 169 34t138 93t93 138t34 169t-34 169t-93 138t-138 93
t-169 34t-169 -34t-138 -93t-93 -138t-34 -169t34 -169t93 -138t138 -93t169 -34zM723 449h118v-68h-118v-355h-81v715h81v-292zM408 697v-106h168v-68h-422v68h172v106h82zM365 471q37 0 68.5 -11.5t54.5 -32t36 -49.5t13 -64q0 -34 -13 -63t-36 -50t-54.5 -32.5
t-68.5 -11.5t-68.5 11.5t-55 32.5t-36.5 50t-13 63q0 35 13 64t36.5 49.5t55 32t68.5 11.5zM365 219q45 0 72.5 26.5t27.5 68.5t-27.5 69t-72.5 27t-73 -27t-28 -69t28 -68.5t73 -26.5z" />
    <glyph glyph-name="uni327F" unicode="&#x327f;" horiz-adv-x="1000" 
d="M34 363v17q0 96 36.5 181t100 148.5t148.5 100t181 36.5q87 0 165.5 -30.5t140 -83.5t102 -125.5t52.5 -156.5h-32q-12 78 -50 144.5t-95 115t-129.5 76.5t-153.5 28q-88 0 -166 -33t-136.5 -89.5t-93.5 -132.5t-38 -162h168v-34h-200zM313 127v518h85v-245h2l218 245h93
l-173 -201l197 -317h-90l-158 260l-89 -95v-165h-85zM500 -86q-88 0 -166 30.5t-139.5 83.5t-102 126t-53.5 157h32q12 -78 50 -145t95 -115.5t130 -76.5t154 -28q87 0 164.5 32.5t136 89t94 133t38.5 163.5h-240v33h273v-17q0 -97 -37 -182t-100.5 -148t-148 -99.5
t-180.5 -36.5z" />
    <glyph glyph-name="uni33C2" unicode="&#x33c2;" horiz-adv-x="1000" 
d="M198 -13q-63 0 -102 37.5t-39 112.5q0 91 70 139t217 68q0 27 -5 52t-17 44t-30.5 30.5t-45.5 11.5q-38 0 -70.5 -16.5t-62.5 -38.5l-36 62q36 26 83 47t102 21q85 0 129 -57.5t44 -157.5v-342h-75l-8 67h-3q-32 -37 -70.5 -58.5t-80.5 -21.5zM539 0v544h64l7 -67h4
q14 36 36.5 57.5t60.5 21.5q32 0 50.5 -23t25.5 -63q13 38 36.5 62t58.5 24q43 0 67 -37t24 -109v-410h-79v396q0 82 -43 82q-21 0 -35 -19t-26 -56v-403h-67v396q0 39 -10 60.5t-31 21.5q-38 0 -64 -75v-403h-79zM225 61q31 0 60.5 18.5t58.5 50.5v154q-56 -9 -94 -21.5
t-61 -29.5t-33 -38.5t-10 -48.5q0 -48 23 -66.5t56 -18.5z" />
    <glyph glyph-name="uni33C7" unicode="&#x33c7;" horiz-adv-x="1000" 
d="M279 -12q-47 0 -89 22.5t-73 69t-49 118t-18 168.5q0 98 18.5 169.5t50 118.5t73.5 70t89 23q49 0 84.5 -24t59.5 -56l-55 -58q-17 26 -37 41.5t-49 15.5t-55.5 -17.5t-46.5 -53.5t-32 -92t-12 -134q0 -79 11.5 -135.5t31.5 -93t47.5 -54t58.5 -17.5q29 0 51.5 16.5
t44.5 48.5l54 -56q-64 -90 -158 -90zM645 -12q-37 0 -69.5 17.5t-57 53t-38.5 88.5t-14 124q0 72 14 125.5t38.5 89t57 53t69.5 17.5q36 0 68.5 -17.5t57 -53t38.5 -89t14 -125.5q0 -71 -14 -124t-38.5 -88.5t-57 -53t-68.5 -17.5zM645 64q38 0 65 49.5t27 157.5
q0 109 -27 159.5t-65 50.5q-40 0 -66.5 -50.5t-26.5 -159.5t25.5 -158t67.5 -49zM908 -12q-24 0 -41.5 18.5t-17.5 50.5q0 31 17.5 50.5t41.5 19.5q23 0 40.5 -19.5t17.5 -50.5q0 -32 -17.5 -50.5t-40.5 -18.5z" />
    <glyph glyph-name="uni33D8" unicode="&#x33d8;" horiz-adv-x="1000" 
d="M69 -211v755h75l9 -63h3q26 34 58 54.5t70 20.5q85 0 127.5 -70t42.5 -206q0 -72 -15 -127t-40.5 -92t-59.5 -56t-72 -19q-26 0 -54 13.5t-55 45.5l3 -94v-162h-92zM539 0v544h64l7 -67h4q14 36 36.5 57.5t60.5 21.5q32 0 50.5 -23t25.5 -63q13 38 36.5 62t58.5 24
q43 0 67 -37t24 -109v-410h-79v396q0 82 -43 82q-21 0 -35 -19t-26 -56v-403h-67v396q0 39 -10 60.5t-31 21.5q-38 0 -64 -75v-403h-79zM248 64q46 0 78.5 54.5t32.5 160.5q0 94 -22.5 147.5t-76.5 53.5q-23 0 -48 -17.5t-51 -57.5v-289q24 -32 46.5 -42t40.5 -10z" />
    <glyph glyph-name="uniAC00" unicode="&#xac00;" 
d="M887 459v-68h-144v-465h-82v897h82v-364h144zM101 727h410q0 -96 -23 -186t-72 -171t-126 -150.5t-186 -123.5l-45 64q176 88 266.5 212t104.5 287h-329v68z" />
    <glyph glyph-name="uniAC01" unicode="&#xac01;" 
d="M882 596v-68h-133v-231h-82v527h82v-228h133zM92 766h413q0 -85 -29 -157.5t-83 -130.5t-132 -101.5t-176 -70.5l-34 65q167 45 260.5 129t105.5 199h-325v67zM166 190v66h583v-330h-82v264h-501z" />
    <glyph glyph-name="uniAC04" unicode="&#xac04;" 
d="M749 550h133v-68h-133v-315h-82v655h82v-272zM91 753h418q0 -87 -29.5 -162t-84 -136.5t-132.5 -108t-175 -76.5l-33 65q79 25 143.5 60.5t112 80.5t76 98t34.5 112h-330v67zM272 234v-221h516v-67h-598v288h82z" />
    <glyph glyph-name="uniAC07" unicode="&#xac07;" 
d="M749 603h133v-68h-133v-221h-82v510h82v-221zM92 766h413q0 -85 -28.5 -158t-82.5 -132t-132.5 -102.5t-177.5 -70.5l-31 66q167 45 260 130t105 200h-326v67zM267 198v-194h503v-66h-584v327h568v-67h-487z" />
    <glyph glyph-name="uniAC08" unicode="&#xac08;" 
d="M749 622h133v-68h-133v-188h-82v457h82v-201zM93 779h415q0 -84 -29.5 -153.5t-84 -124.5t-133 -94t-176.5 -62l-31 68q170 37 262 115t102 184h-325v67zM262 104v-104h520v-65h-600v231h486v95h-489v65h570v-222h-487z" />
    <glyph glyph-name="uniAC09" unicode="&#xac09;" 
d="M882 617v-68h-133v-206h-82v479h82v-205h133zM96 776h412q0 -85 -29 -155t-83.5 -125t-133 -95t-177.5 -64l-30 67q172 39 262.5 117.5t100.5 187.5h-322v67zM225 94v-95q46 0 82.5 0.5t68 3t60 6t58.5 9.5l9 -62q-33 -7 -64 -11t-66.5 -6.5t-77.5 -3t-96 -0.5h-54v218
h211v86h-213v63h292v-208h-210zM473 236v66h276v-372h-81v306h-195z" />
    <glyph glyph-name="uniAC0A" unicode="&#xac0a;" 
d="M882 617v-69h-133v-203h-82v477h82v-205h133zM94 776h414q0 -84 -29 -154t-84 -124.5t-133 -93.5t-177 -62l-31 68q171 37 262 115t101 184h-323v67zM210 97v-95q35 0 64 0.5t55 2.5t50.5 5t51.5 8l8 -64q-31 -6 -59.5 -9.5t-59 -5t-65.5 -2t-78 -0.5h-47v221h203v83
h-205v62h285v-206h-203zM467 -66v369h282v-369h-282zM539 242v-246h138v246h-138z" />
    <glyph glyph-name="uniAC0B" unicode="&#xac0b;" 
d="M882 621v-68h-133v-208h-82v478h82v-202h133zM95 781h413q0 -84 -29 -154t-84 -124.5t-133 -93.5t-177 -62l-31 67q171 38 262 116t101 184h-322v67zM674 193v116h75v-371h-286v371h74v-116h137zM210 96v-95q35 0 64 0.5t55 2.5t50.5 5t51.5 8l6 -61q-30 -6 -58 -9.5
t-58.5 -5t-65 -2t-78.5 -0.5h-46v214h201v83h-203v63h283v-203h-202zM674 3v128h-137v-128h137z" />
    <glyph glyph-name="uniAC10" unicode="&#xac10;" 
d="M882 604v-68h-133v-222h-82v510h82v-220h133zM92 766h414q0 -85 -29 -158t-83 -131t-132.5 -101.5t-177.5 -70.5l-32 65q168 45 261 129.5t105 199.5h-326v67zM184 -61v333h565v-333h-565zM265 206v-201h403v201h-403z" />
    <glyph glyph-name="uniAC11" unicode="&#xac11;" 
d="M882 611v-68h-133v-205h-82v485h82v-212h133zM95 769h412q0 -85 -29 -155.5t-83 -126t-132.5 -96t-177.5 -64.5l-31 67q170 40 261 119.5t102 188.5h-322v67zM667 184v113h82v-359h-567v359h81v-113h404zM667 4v116h-404v-116h404z" />
    <glyph glyph-name="uniAC12" unicode="&#xac12;" 
d="M749 616h133v-68h-133v-213h-82v488h82v-207zM95 769h411q0 -85 -28.5 -155.5t-82.5 -126.5t-132 -96.5t-177 -64.5l-31 67q169 42 260 121t102 188h-322v67zM698 298v-72q0 -33 9.5 -67.5t28.5 -66t48 -58t68 -43.5l-44 -61q-57 26 -93.5 68.5t-56.5 96.5
q-20 -54 -56.5 -96.5t-93.5 -68.5l-44 61q39 18 68 44.5t48.5 57.5t29 64.5t9.5 65.5v75h79zM382 182v108h76v-351h-307v351h77v-108h154zM382 2v117h-154v-117h154z" />
    <glyph glyph-name="uniAC13" unicode="&#xac13;" 
d="M772 574h109v-69h-109v-276h-82v595h82v-250zM96 753h413q0 -86 -29 -160.5t-83 -135t-132 -106.5t-176 -76l-34 66q163 49 258.5 138.5t107.5 207.5h-325v66zM520 295v-39q0 -48 24 -90.5t65 -76t94.5 -57t113.5 -34.5l-33 -65q-49 10 -95.5 28t-86.5 43.5t-71.5 57.5
t-51.5 71q-20 -39 -52 -72t-72 -58.5t-86.5 -43.5t-96.5 -28l-34 65q60 10 114.5 33.5t95.5 57.5t65.5 77t24.5 92v39h82z" />
    <glyph glyph-name="uniAC14" unicode="&#xac14;" 
d="M749 599h133v-68h-133v-210h-82v504h82v-226zM94 766h413q0 -86 -29 -159t-83 -132t-132.5 -102.5t-177.5 -70.5l-31 68q166 45 259 129.5t105 199.5h-324v67zM679 285v-63q0 -35 12 -69.5t35 -64.5t56.5 -54t76.5 -39l-41 -60q-66 24 -111 69t-68 103
q-20 -57 -61 -105.5t-104 -74.5q-66 26 -106 72.5t-60 103.5q-24 -55 -69 -100t-108 -68l-41 60q42 15 75.5 40t56.5 55.5t35.5 64.5t12.5 67v63h79v-63q0 -61 30.5 -119.5t93.5 -96.5q32 20 55.5 46.5t39.5 55.5t23.5 58.5t7.5 55.5v63h80z" />
    <glyph glyph-name="uniAC15" unicode="&#xac15;" 
d="M749 591h133v-68h-133v-236h-82v536h82v-232zM93 756h414q0 -85 -29 -159t-83 -134t-131.5 -105t-175.5 -74l-33 66q160 48 255.5 135.5t107.5 204.5h-325v66zM468 275q66 0 120 -12t92.5 -34.5t59 -54.5t20.5 -73q0 -40 -20.5 -72.5t-59 -55t-92.5 -34.5t-120 -12
t-120 12t-92.5 34.5t-59 55t-20.5 72.5q0 41 20.5 73t59 54.5t92.5 34.5t120 12zM468 -8q97 0 154 29t57 80q0 52 -57 81t-154 29t-154 -29t-57 -81q0 -51 57 -80t154 -29z" />
    <glyph glyph-name="uniAC16" unicode="&#xac16;" 
d="M749 595h133v-69h-133v-216h-82v515h82v-230zM94 766h413q0 -85 -28.5 -157t-82.5 -129.5t-132.5 -100t-177.5 -68.5l-31 67q171 43 262 126t102 195h-325v67zM764 200h-249q2 -37 26 -71t63 -61.5t89.5 -47.5t105.5 -29l-32 -64q-41 7 -84.5 21.5t-83 37t-73 53
t-54.5 68.5q-19 -34 -49 -63t-69 -52.5t-84.5 -39.5t-94.5 -24l-30 63q56 9 106.5 28.5t89.5 47t62.5 61.5t25.5 72h-251v66h586v-66z" />
    <glyph glyph-name="uniAC17" unicode="&#xac17;" 
d="M749 614h133v-68h-133v-217h-82v495h82v-210zM95 765h412q0 -85 -28.5 -155.5t-82.5 -126.5t-132 -96.5t-177 -64.5l-31 67q172 40 262 121.5t100 187.5h-323v67zM768 190h-257q3 -36 27 -69t63 -59.5t90 -45.5t108 -27l-32 -61q-48 8 -93.5 23.5t-84.5 37t-70 49.5
t-50 61q-40 -66 -119 -110.5t-178 -60.5l-32 61q57 8 107.5 27t89.5 46t63 59.5t27 68.5h-257v65h258v107h82v-107h258v-65z" />
    <glyph glyph-name="uniAC19" unicode="&#xac19;" 
d="M749 615h133v-68h-133v-203h-82v479h82v-208zM93 760h417q0 -84 -28.5 -154t-83 -124t-132.5 -93t-177 -62l-33 66q174 37 264 116t99 185h-326v66zM266 92v-92h508v-62h-590v365h570v-61h-488v-89h477v-61h-477z" />
    <glyph glyph-name="uniAC1A" unicode="&#xac1a;" 
d="M749 609h133v-68h-133v-217h-82v499h82v-214zM96 765h413q0 -85 -30.5 -156.5t-86 -128t-134 -97.5t-173.5 -66l-31 69q80 20 144.5 51t111.5 71t75 88t34 102h-323v67zM649 214v-206h135v-66h-615v66h132v206h-124v66h596v-66h-124zM382 214v-206h186v206h-186z" />
    <glyph glyph-name="uniAC1B" unicode="&#xac1b;" 
d="M749 623h133v-68h-133v-205h-82v473h82v-200zM92 771h415q0 -171 -109.5 -282t-311.5 -160l-30 68q174 39 262.5 118.5t98.5 188.5h-325v67zM515 393v-106h271v-63h-624v63h271v106h82zM474 182q118 0 183.5 -33t65.5 -94q0 -63 -65.5 -95.5t-183.5 -32.5t-183.5 32.5
t-65.5 95.5q0 61 65.5 94t183.5 33zM474 -13q81 0 126.5 17.5t45.5 50.5q0 32 -45.5 50t-126.5 18t-126.5 -18t-45.5 -50q0 -33 45.5 -50.5t126.5 -17.5z" />
    <glyph glyph-name="uniAC1C" unicode="&#xac1c;" 
d="M735 823h79v-897h-79v469h-122v-424h-77v828h77v-337h122v361zM87 707h350q0 -87 -16.5 -169.5t-55.5 -157.5t-103.5 -141.5t-160.5 -120.5l-48 59q78 44 133 95.5t91 110t55 123t24 134.5h-269v67z" />
    <glyph glyph-name="uniAC1D" unicode="&#xac1d;" 
d="M731 822h79v-527h-79v235h-118v-231h-78v507h78v-209h118v225zM93 756h350q0 -325 -345 -471l-40 60q141 57 215.5 145t85.5 200h-266v66zM207 185v67h603v-326h-82v259h-521z" />
    <glyph glyph-name="uniAC20" unicode="&#xac20;" 
d="M613 481v-298h-78v623h78v-258h118v274h79v-669h-79v328h-118zM95 735h347q0 -165 -84 -284t-258 -194l-41 60q276 120 300 352h-264v66zM304 18h533v-67h-615v284h82v-217z" />
    <glyph glyph-name="uniAC23" unicode="&#xac23;" 
d="M613 531v-221h-78v497h78v-209h118v224h79v-519h-79v228h-118zM95 756h349q0 -325 -341 -469l-42 61q275 113 299 342h-265v66zM303 4h522v-66h-603v313h593v-66h-512v-181z" />
    <glyph glyph-name="uniAC24" unicode="&#xac24;" 
d="M613 554v-185h-78v436h78v-185h118v202h79v-459h-79v191h-118zM96 768h345q0 -311 -341 -433l-39 60q139 48 212 126t85 181h-262v66zM301 4h543v-66h-624v229h509v90h-511v65h592v-217h-509v-101z" />
    <glyph glyph-name="uniAC2C" unicode="&#xac2c;" 
d="M731 822h79v-514h-79v226h-118v-220h-78v492h78v-205h118v221zM95 756h349q0 -325 -341 -469l-42 61q275 112 298 342h-264v66zM221 -60v321h589v-321h-589zM301 195v-189h428v189h-428z" />
    <glyph glyph-name="uniAC2D" unicode="&#xac2d;" 
d="M731 823h79v-487h-79v203h-118v-197h-78v464h78v-200h118v217zM96 763h347q0 -319 -341 -459l-41 61q274 106 298 331h-263v67zM729 188v108h81v-356h-588v356h82v-108h425zM729 6v117h-425v-117h425z" />
    <glyph glyph-name="uniAC2F" unicode="&#xac2f;" 
d="M613 519v-200h-78v487h78v-220h118v237h79v-586h-79v282h-118zM98 741h347q0 -162 -83 -285t-259 -199l-44 60q145 60 217.5 150t83.5 207h-262v67zM553 277v-39q0 -45 25.5 -85t68 -72.5t97.5 -55t114 -31.5l-33 -65q-50 9 -97.5 26.5t-88.5 42t-73.5 56.5t-53.5 70
q-20 -38 -52.5 -70t-73.5 -56.5t-88.5 -42t-97.5 -26.5l-32 65q59 9 113.5 31.5t96.5 55t67.5 72.5t25.5 85v39h82z" />
    <glyph glyph-name="uniAC30" unicode="&#xac30;" 
d="M613 529v-216h-78v493h78v-210h118v226h79v-513h-79v220h-118zM95 756h348q0 -164 -85.5 -279t-256.5 -187l-42 61q139 55 213.5 140.5t85.5 197.5h-263v67zM696 274v-58q0 -35 12 -69t35.5 -64t57 -54t75.5 -39l-40 -60q-67 23 -112.5 68t-68.5 102q-20 -55 -61 -103
t-104 -75q-66 26 -105.5 72t-59.5 103q-25 -54 -70 -98.5t-109 -68.5l-41 60q42 16 76 41t57 55t35.5 63.5t12.5 66.5v58h79v-58q0 -61 30.5 -119t93.5 -95q32 20 56 46.5t40 55t23.5 57.5t7.5 55v58h80z" />
    <glyph glyph-name="uniAC31" unicode="&#xac31;" 
d="M613 520v-217h-78v503h78v-219h118v235h79v-550h-79v248h-118zM97 749h347q0 -331 -344 -474l-43 60q141 57 216 145t86 203h-262v66zM515 263q70 0 126 -11.5t95.5 -33t60.5 -52.5t21 -70q0 -40 -21 -71t-60.5 -52.5t-95.5 -32.5t-126 -11t-126.5 11t-96.5 32.5
t-61 52.5t-21 71q0 39 21 70t61 52.5t96.5 33t126.5 11.5zM515 -7q103 0 162 27t59 76q0 48 -59 75.5t-162 27.5q-106 0 -164.5 -27.5t-58.5 -75.5q0 -49 58.5 -76t164.5 -27z" />
    <glyph glyph-name="uniAC38" unicode="&#xac38;" 
d="M885 514h-142v-201h142v-68h-142v-319h-82v897h82v-241h142v-68zM101 727h410q0 -94 -23 -184t-72 -171.5t-126 -151.5t-186 -124l-45 64q176 88 266.5 212t104.5 287h-329v68z" />
    <glyph glyph-name="uniAC39" unicode="&#xac39;" 
d="M882 620h-133v-127h133v-66h-133v-130h-82v527h82v-138h133v-66zM92 766h413q0 -85 -29 -157.5t-83 -130.5t-132 -101.5t-176 -70.5l-34 65q167 45 260.5 129t105.5 199h-325v67zM166 190v66h583v-330h-82v264h-501z" />
    <glyph glyph-name="uniAC3C" unicode="&#xac3c;" 
d="M882 586h-133v-153h133v-68h-133v-198h-82v655h82v-168h133v-68zM91 753h418q0 -86 -29.5 -161t-84 -136.5t-132.5 -108.5t-175 -77l-33 65q79 25 143.5 60.5t112 80.5t76 98t34.5 112h-330v67zM272 234v-221h516v-67h-598v288h82z" />
    <glyph glyph-name="uniAC40" unicode="&#xac40;" 
d="M882 645h-133v-111h133v-66h-133v-102h-82v457h82v-112h133v-66zM93 779h415q0 -84 -29.5 -154t-84 -124.5t-133 -93.5t-176.5 -62l-31 67q170 37 262 115.5t102 184.5h-325v67zM262 104v-104h520v-65h-600v231h486v95h-489v65h570v-222h-487z" />
    <glyph glyph-name="uniAC4B" unicode="&#xac4b;" 
d="M882 601h-133v-148h133v-68h-133v-158h-82v596h82v-154h133v-68zM96 753h413q0 -87 -29 -161.5t-83 -135t-132 -106.5t-176 -76l-34 66q165 49 259.5 137.5t106.5 209.5h-325v66zM520 293v-40q0 -48 24 -90.5t65 -76t94.5 -57t113.5 -34.5l-34 -63q-49 10 -95.5 27.5
t-86 42.5t-71 57.5t-51.5 71.5q-20 -39 -52 -72t-72 -58.5t-86.5 -43.5t-96.5 -28l-34 65q60 10 114.5 33.5t95.5 57.5t65.5 76.5t24.5 91.5v40h82z" />
    <glyph glyph-name="uniAC4D" unicode="&#xac4d;" 
d="M881 614h-132v-129h132v-67h-132v-131h-82v536h82v-142h132v-67zM93 756h414q0 -85 -29 -159t-83 -134.5t-131.5 -105.5t-175.5 -73l-33 66q160 48 255.5 135.5t107.5 204.5h-325v66zM468 275q66 0 120 -12t92.5 -34.5t59 -54.5t20.5 -73q0 -40 -20.5 -72.5t-59 -55
t-92.5 -34.5t-120 -12t-120 12t-92.5 34.5t-59 55t-20.5 72.5q0 41 20.5 73t59 54.5t92.5 34.5t120 12zM468 -8q97 0 154 29t57 80q0 52 -57 81t-154 29t-154 -29t-57 -81q0 -51 57 -80t154 -29z" />
    <glyph glyph-name="uniAC54" unicode="&#xac54;" 
d="M735 823h79v-897h-79v343h-122v-299h-77v829h77v-210h122v234zM87 707h350q0 -86 -16.5 -168.5t-55.5 -158t-103.5 -142t-160.5 -120.5l-48 59q78 44 133 95.5t91 110t55 123t24 134.5h-269v67zM613 336h122v186h-122v-186z" />
    <glyph glyph-name="uniAC58" unicode="&#xac58;" 
d="M613 365v-183h-78v624h78v-156h118v172h79v-669h-79v212h-118zM95 735h347q0 -165 -84 -284.5t-258 -194.5l-41 61q276 120 300 352h-264v66zM731 583h-118v-151h118v151zM304 18h533v-67h-615v283h82v-216z" />
    <glyph glyph-name="uniAC5C" unicode="&#xac5c;" 
d="M613 468v-99h-78v437h78v-106h118v122h79v-459h-79v105h-118zM96 769h345q0 -311 -341 -437l-39 61q140 49 212.5 126.5t84.5 183.5h-262v66zM731 636h-118v-104h118v104zM301 -2h543v-66h-624v228h509v94h-511v65h592v-220h-509v-101z" />
    <glyph glyph-name="uniAC65" unicode="&#xac65;" 
d="M731 822h79v-486h-79v115h-118v-109h-78v463h78v-109h118v126zM96 763h347q0 -320 -341 -458l-41 60q274 108 298 331h-263v67zM613 517h118v113h-118v-113zM729 188v108h81v-356h-588v356h82v-108h425zM729 6v117h-425v-117h425z" />
    <glyph glyph-name="uniAC70" unicode="&#xac70;" 
d="M709 822h82v-896h-82v470h-210v67h210v359zM92 726h409q0 -96 -21 -185.5t-69 -169.5t-125 -149.5t-189 -124.5l-45 64q181 89 268 215.5t99 283.5h-327v66z" />
    <glyph glyph-name="uniAC71" unicode="&#xac71;" 
d="M709 823h83v-526h-83v223h-192v67h192v236zM111 766h403q0 -85 -29 -157.5t-83 -131t-131 -102t-173 -70.5l-33 64q163 46 256 130.5t106 199.5h-316v67zM192 191v66h600v-328h-83v262h-517z" />
    <glyph glyph-name="uniAC74" unicode="&#xac74;" 
d="M515 546h194v276h83v-662h-83v319h-194v67zM112 753h407q0 -86 -29.5 -162t-84 -138.5t-131.5 -110.5t-172 -79l-35 66q77 25 141 61.5t111 82t76 99.5t36 114h-319v67zM307 13h508v-67h-590v281h82v-214z" />
    <glyph glyph-name="uniAC77" unicode="&#xac77;" 
d="M709 313v204h-195v68h195v238h83v-510h-83zM108 766h404q0 -85 -28.5 -157.5t-82.5 -131.5t-131 -103t-175 -72l-32 66q164 45 257 130.5t106 200.5h-318v67zM295 4h515v-66h-597v325h581v-66h-499v-193z" />
    <glyph glyph-name="uniAC78" unicode="&#xac78;" 
d="M709 363v178h-195v66h195v216h83v-460h-83zM114 779h394q0 -84 -28 -153t-81.5 -123.5t-130 -94t-172.5 -63.5l-30 65q164 39 253.5 116.5t100.5 186.5h-306v66zM297 0h525v-65h-606v231h494v93h-496v65h578v-220h-495v-104z" />
    <glyph glyph-name="uniAC7A" unicode="&#xac7a;" 
d="M709 823h83v-474h-83v190h-194v67h194v217zM111 777h401q0 -84 -28.5 -153.5t-82.5 -124t-131 -94t-174 -63.5l-30 64q166 39 256.5 117.5t101.5 187.5h-313v66zM242 100v-97q36 0 66 0.5t57 2.5t52.5 5t52.5 8l8 -64q-31 -6 -60 -9.5t-60 -5t-66.5 -2t-80.5 -0.5h-48
v223h209v85h-211v63h290v-209h-209zM506 -62v371h286v-371h-286zM578 248v-248h142v248h-142z" />
    <glyph glyph-name="uniAC80" unicode="&#xac80;" 
d="M709 823h82v-512h-82v214h-195v67h195v231zM108 766h405q0 -85 -29 -157.5t-83 -131t-131 -102t-173 -70.5l-34 64q164 46 257 130.5t106 199.5h-318v67zM212 -61v334h579v-334h-579zM293 208v-203h418v203h-418z" />
    <glyph glyph-name="uniAC81" unicode="&#xac81;" 
d="M709 823h82v-483h-82v190h-194v68h194v225zM110 767h404q0 -84 -28 -155t-81.5 -127t-131 -97.5t-176.5 -66.5l-33 64q168 42 259.5 122.5t102.5 192.5h-316v67zM710 183v112h81v-357h-580v357h82v-112h417zM710 4v115h-417v-115h417z" />
    <glyph glyph-name="uniAC83" unicode="&#xac83;" 
d="M709 216v287h-193v67h193v252h83v-606h-83zM111 752h402q0 -87 -28 -161t-80.5 -134t-128.5 -106.5t-172 -77.5l-36 65q163 51 254 138.5t103 208.5h-314v67zM543 294v-41q0 -48 24 -90.5t65 -76t95 -57t113 -34.5l-33 -64q-49 10 -95.5 28t-86.5 43.5t-71.5 57.5
t-51.5 71q-20 -39 -52 -72t-72 -58.5t-87 -43.5t-97 -28l-33 65q60 10 114.5 33.5t95.5 57.5t65.5 76.5t24.5 91.5v41h82z" />
    <glyph glyph-name="uniAC84" unicode="&#xac84;" 
d="M709 312v213h-193v68h193v230h83v-511h-83zM113 766h400q0 -85 -29 -157.5t-83 -131t-131 -102t-173 -70.5l-34 64q159 46 254.5 131t107.5 199h-312v67zM691 287v-65q0 -34 12 -68.5t35 -64.5t56.5 -54t76.5 -38l-41 -62q-66 25 -111.5 69t-68.5 101q-21 -55 -62 -103
t-104 -74q-66 25 -106 71t-61 103q-24 -54 -69 -98t-108 -69l-42 62q43 15 76.5 40t57 55t35.5 63.5t12 66.5v65h79v-65q0 -60 31 -119t94 -96q32 20 56 46t40 55t24 58.5t8 55.5v65h80z" />
    <glyph glyph-name="uniAC85" unicode="&#xac85;" 
d="M709 288v215h-192v67h192v252h83v-534h-83zM111 755h404q0 -86 -29 -159.5t-83 -132.5t-131.5 -103.5t-174.5 -73.5l-33 65q164 48 257 134t105 204h-315v66zM500 277q68 0 122.5 -12t93 -34t59.5 -54t21 -73q0 -40 -21 -72.5t-59.5 -55t-93 -34.5t-122.5 -12t-123 12
t-94 34.5t-60 55t-21 72.5q0 41 21 73t60 54t94 34t123 12zM500 -5q100 0 157.5 29t57.5 80t-57.5 80t-157.5 29t-158.5 -29t-58.5 -80t58.5 -80t158.5 -29z" />
    <glyph glyph-name="uniAC86" unicode="&#xac86;" 
d="M516 586h193v237h83v-513h-83v209h-193v67zM111 766h416q0 -85 -30 -157.5t-85.5 -130t-135 -100t-178.5 -67.5l-31 66q170 42 265 124.5t107 197.5h-328v67zM803 198h-254q1 -37 24.5 -70.5t62.5 -61t90.5 -47t108.5 -28.5l-31 -63q-49 8 -94.5 23.5t-84.5 38t-69.5 51
t-49.5 61.5q-19 -33 -49.5 -61.5t-69.5 -51t-84.5 -38t-94.5 -23.5l-30 63q57 8 108.5 27.5t90.5 47t62 61.5t24 71h-250v66h590v-66z" />
    <glyph glyph-name="uniAC89" unicode="&#xac89;" 
d="M709 340v189h-190v68h190v226h83v-483h-83zM109 769h405q0 -169 -109.5 -282t-307.5 -165l-32 66q170 42 260.5 122.5t101.5 192.5h-318v66zM300 1h512v-62h-594v364h577v-62h-495v-88h482v-61h-482v-91z" />
    <glyph glyph-name="uniAC8A" unicode="&#xac8a;" 
d="M513 589h196v234h83v-502h-83v200h-196v68zM110 765h403q0 -84 -29 -155.5t-83.5 -129t-131.5 -100t-173 -68.5l-31 65q79 21 143 53t110.5 73t74 90.5t33.5 104.5h-316v67zM670 6h140v-66h-623v66h136v205h-128v66h604v-66h-129v-205zM404 211v-205h185v205h-185z" />
    <glyph glyph-name="uniAC8B" unicode="&#xac8b;" 
d="M709 347v197h-196v67h196v212h83v-476h-83zM112 770h394q0 -169 -107.5 -279.5t-304.5 -162.5l-29 66q168 42 256 121.5t99 188.5h-308v66zM539 284h271v-63h-625v63h272v105h82v-105zM497 180q118 0 183.5 -33t65.5 -93q0 -61 -65.5 -93.5t-183.5 -32.5t-183.5 32.5
t-65.5 93.5q0 60 65.5 93t183.5 33zM497 -14q78 0 121 17.5t43 50.5q0 32 -43 49.5t-121 17.5t-121 -17.5t-43 -49.5q0 -33 43 -50.5t121 -17.5z" />
    <glyph glyph-name="uniAC8C" unicode="&#xac8c;" 
d="M737 823h78v-897h-78v897zM550 456v343h78v-828h-78v419h-184q-42 -78 -106 -146t-158 -125l-48 59q146 88 219 204.5t84 259.5h-265v67h346q0 -66 -10 -129.5t-33 -123.5h155z" />
    <glyph glyph-name="uniAC90" unicode="&#xac90;" 
d="M810 822v-673h-79v673h79zM553 468h-184q-87 -130 -269 -210l-42 60q143 60 217.5 148.5t85.5 203.5h-262v67h346q0 -116 -40 -202h148v269h77v-629h-77v293zM309 13h533v-67h-615v287h82v-220z" />
    <glyph glyph-name="uniAC94" unicode="&#xac94;" 
d="M810 822v-459h-79v459h79zM553 537h-171q-82 -131 -278 -205l-41 61q142 48 215 126t84 184h-260v66h345q0 -45 -8 -86.5t-22 -79.5h136v200h77v-436h-77v170zM301 4h543v-66h-624v227h508v89h-510v65h592v-216h-509v-99z" />
    <glyph glyph-name="uniAC9C" unicode="&#xac9c;" 
d="M731 822h79v-516h-79v516zM553 509h-171q-85 -141 -276 -222l-42 61q275 114 299 341h-262v67h346q0 -97 -33 -180h139v227h77v-487h-77v193zM222 -60v323h588v-323h-588zM302 197v-191h427v191h-427z" />
    <glyph glyph-name="uniAC9D" unicode="&#xac9d;" 
d="M731 822h79v-493h-79v493zM553 516h-174q-86 -137 -277 -210l-40 60q143 54 215 136.5t83 191.5h-258v66h343q0 -90 -32 -177h140v220h77v-467h-77v180zM729 184v108h81v-353h-588v353h82v-108h425zM729 5v114h-425v-114h425z" />
    <glyph glyph-name="uniAC9F" unicode="&#xac9f;" 
d="M810 823v-597h-79v597h79zM553 492h-171q-86 -150 -279 -235l-43 60q277 120 301 357h-263v67h346q0 -105 -31 -183h140v245h77v-500h-77v189zM550 278v-40q0 -45 25.5 -85t68 -72.5t98 -54.5t114.5 -31l-32 -65q-51 9 -98.5 26t-88.5 42t-74 57t-54 70
q-21 -38 -53.5 -70t-74 -56.5t-89 -42t-98.5 -26.5l-32 65q59 9 114.5 31t98 54.5t68 72.5t25.5 85v40h82z" />
    <glyph glyph-name="uniACA0" unicode="&#xaca0;" 
d="M810 822v-517h-79v517h79zM553 502h-176q-88 -135 -273 -215l-43 61q278 110 302 342h-263v66h347q0 -102 -36 -188h142v235h77v-484h-77v183zM696 274v-58q0 -35 12 -69t35.5 -64t57 -54t75.5 -39l-40 -60q-67 23 -112.5 68t-68.5 102q-20 -55 -61 -103.5t-104 -74.5
q-66 26 -105.5 72t-59.5 103q-25 -54 -70 -98.5t-109 -68.5l-41 60q42 15 76 40t57 55.5t35.5 64t12.5 66.5v58h79v-58q0 -61 30.5 -119t93.5 -95q32 20 56 46t39.5 55t23.5 58t8 55v58h80z" />
    <glyph glyph-name="uniACA1" unicode="&#xaca1;" 
d="M810 822v-550h-79v550h79zM553 501h-173q-85 -143 -279 -226l-42 60q141 57 216.5 145t86.5 203h-264v66h349q0 -49 -8.5 -94t-24.5 -87h139v235h77v-500h-77v198zM516 262q71 0 127 -11.5t95.5 -32.5t60.5 -52t21 -70q0 -40 -21 -71t-60.5 -52.5t-95.5 -32.5t-127 -11
q-70 0 -126.5 11t-96 32.5t-60.5 52.5t-21 71q0 39 21 70t60.5 52t96 32.5t126.5 11.5zM516 -8q103 0 162.5 27.5t59.5 76.5q0 48 -59.5 75.5t-162.5 27.5t-162.5 -27.5t-59.5 -75.5q0 -49 59.5 -76.5t162.5 -27.5z" />
    <glyph glyph-name="uniACA8" unicode="&#xaca8;" 
d="M709 824h82v-897h-82v343h-248v67h248v174h-235q-38 -125 -129.5 -231.5t-248.5 -184.5l-43 66q178 88 267.5 214t101.5 285h-330v66h412q0 -74 -14 -149h219v247z" />
    <glyph glyph-name="uniACA9" unicode="&#xaca9;" 
d="M709 823h83v-535h-83v118h-232v67h232v123h-219q-45 -106 -144 -180.5t-247 -116.5l-33 66q81 22 147 55t113 75t75 93t34 108h-322v67h410q0 -52 -12 -100h198v160zM192 182v66h600v-320h-83v254h-517z" />
    </font>
</defs>
</svg>
